<?xml version="1.0" standalone="no"?>
<!DOCTYPE svg PUBLIC "-//W3C//DTD SVG 1.1//EN" "http://www.w3.org/Graphics/SVG/1.1/DTD/svg11.dtd" >
<svg>
<metadata>
Created by FontForge 20120731 at Mon Aug  1 04:48:06 2022
 By ffonts
copyright missing
</metadata>
<defs>
<font id="IndigoOutlineFont-Regular" horiz-adv-x="600" >
  <font-face 
    font-family="Indigo Outline Font"
    font-weight="400"
    font-stretch="normal"
    units-per-em="1000"
    panose-1="0 0 5 0 0 0 0 0 0 0"
    ascent="800"
    descent="-200"
    x-height="585"
    cap-height="861"
    bbox="-230 -5667 2397.16 1121"
    underline-thickness="50"
    underline-position="-50"
    unicode-range="U+0020-25CA"
  />
<missing-glyph horiz-adv-x="500" 
d="M410 800v-1000h-317v1000h317zM333 118h-166v-113h166v113zM300 85v-47h-100v47h100zM333 291h-100v-56h34v23h33v-47h-100v80h-33v-113h166v113zM333 413h-33v-66h-133v-34h166v100zM333 473h-166v-33h66v-37h-66v-33h100v70h66v33zM233 570v-36h-33v36h33zM267 604
h-100v-104h166v34h-66v70zM333 733h-165v-33h65v-37h-66v-33h166v33h-66v37h66v33zM333 -18h-166v-33h70l-70 -47v-33h166v33h-102l70 47h32v33z" />
    <glyph glyph-name=".notdef" horiz-adv-x="500" 
d="M410 800v-1000h-317v1000h317zM333 118h-166v-113h166v113zM300 85v-47h-100v47h100zM333 291h-100v-56h34v23h33v-47h-100v80h-33v-113h166v113zM333 413h-33v-66h-133v-34h166v100zM333 473h-166v-33h66v-37h-66v-33h100v70h66v33zM233 570v-36h-33v36h33zM267 604
h-100v-104h166v34h-66v70zM333 733h-165v-33h65v-37h-66v-33h166v33h-66v37h66v33zM333 -18h-166v-33h70l-70 -47v-33h166v33h-102l70 47h32v33z" />
    <glyph glyph-name="A" unicode="A" horiz-adv-x="845" 
d="M615 5c4 -12 -15 -17 -19 -5c-3 11 -7 22 -10 33c-15 48 -29 96 -44 143c3 -2 7 -5 10 -7h-120h-136c4 2 7 5 10 7c-4 -11 -7 -22 -11 -34c-15 -47 -30 -95 -45 -142c-1 -4 -5 -8 -9 -8h-89h-142c-6 0 -12 7 -10 13c4 10 7 19 10 28c14 38 27 75 41 112l60 165
c23 62 45 124 68 187l63 174c16 42 31 85 47 128c6 17 12 34 18 50c1 5 5 8 10 8h67h146c5 0 8 -3 10 -8c3 -9 6 -18 10 -28c13 -37 26 -74 40 -111l60 -165c22 -62 45 -124 67 -187l63 -174c16 -43 31 -86 47 -129c6 -16 12 -33 18 -50c2 -6 -3 -13 -10 -13h-87h-142
c-13 0 -13 21 0 21h87h142c-3 -5 -6 -9 -9 -13c-4 9 -7 18 -10 28c-14 37 -27 74 -41 111c-20 55 -39 110 -59 165c-23 63 -45 125 -68 187l-63 174c-15 43 -31 86 -47 129c-6 17 -12 33 -18 50c3 -2 7 -5 10 -7h-68h-145c3 2 6 5 9 7c-3 -9 -7 -19 -10 -28
c-14 -37 -27 -74 -41 -112l-60 -165c-22 -62 -45 -124 -67 -186c-21 -58 -42 -116 -64 -174c-15 -43 -31 -86 -46 -129c-6 -17 -12 -33 -19 -50c-3 4 -6 8 -9 13h89h142c-3 -3 -7 -5 -10 -8c4 11 7 23 11 34c15 48 30 95 45 143c1 4 5 7 9 7h120h136c4 0 8 -3 9 -7
c4 -12 7 -23 11 -34c14 -47 29 -95 43 -143zM530 339c2 -5 -2 -11 -7 -13c-5 -1 -10 2 -12 7c-11 31 -23 62 -35 93c-16 44 -32 88 -49 132h20c-12 -32 -24 -63 -37 -94c-16 -44 -33 -87 -50 -131c-3 5 -6 9 -9 13h21h149c13 0 13 -20 0 -20h-21h-149c-6 0 -12 7 -10 13
c12 31 24 62 36 94c17 43 34 87 50 130c4 9 16 10 20 0c11 -31 23 -62 34 -93c17 -44 33 -87 49 -131z" />
    <glyph glyph-name="Aacute" unicode="&#xc1;" 
 />
    <glyph glyph-name="Abreve" unicode="&#x102;" 
 />
    <glyph glyph-name="Acircumflex" unicode="&#xc2;" 
 />
    <glyph glyph-name="Adieresis" unicode="&#xc4;" horiz-adv-x="864" 
d="M629 2c3 -13 -16 -18 -20 -6c-4 13 -7 25 -11 38c-15 47 -29 95 -44 143c3 -3 7 -5 10 -8h-127h-134c3 3 6 5 9 8c-4 -13 -8 -26 -12 -38c-14 -48 -29 -95 -44 -143c-2 -4 -5 -7 -10 -7h-95h-141c-6 0 -12 6 -10 13l15 39c14 40 29 79 43 119c21 57 41 113 61 169
c23 62 46 124 68 187c21 57 42 115 63 172c15 42 31 85 46 127c6 16 12 33 18 49c1 4 5 8 10 8h73h144c5 0 9 -4 10 -8c5 -13 9 -26 14 -39c14 -39 29 -79 43 -119c21 -56 41 -112 61 -169c23 -62 45 -124 68 -186c21 -58 42 -115 62 -173c16 -42 31 -85 46 -127
c6 -16 12 -33 18 -49c3 -7 -3 -13 -9 -13h-94h-141c-13 0 -13 20 0 20h94h141c-4 -4 -7 -8 -10 -13c-5 13 -9 26 -14 39c-14 40 -29 80 -43 119c-21 57 -41 113 -61 169c-23 62 -45 125 -68 187c-21 57 -42 115 -62 173c-16 42 -31 84 -46 126c-6 17 -12 33 -18 50
c3 -3 6 -5 9 -7h-73h-144c3 2 6 4 9 7c-5 -13 -9 -26 -14 -39c-15 -40 -29 -80 -43 -120c-21 -56 -41 -112 -62 -169c-22 -62 -45 -124 -68 -186c-20 -58 -41 -115 -62 -173c-16 -42 -31 -84 -46 -126c-6 -17 -12 -33 -18 -50c-3 5 -7 9 -10 13h95h141c-3 -2 -6 -5 -10 -7
c4 12 8 25 12 38c15 47 30 94 45 142c1 4 5 7 10 7h126h135c4 0 8 -3 9 -7c4 -13 8 -25 12 -38c14 -47 29 -95 44 -142zM542 342c2 -5 -2 -10 -7 -12c-6 -1 -11 2 -13 7c-12 33 -24 66 -37 99c-16 44 -32 87 -48 130h19c-13 -33 -25 -67 -38 -100c-17 -43 -33 -86 -50 -129
c-3 4 -6 9 -10 13h24h150c13 0 13 -20 0 -20h-24h-150c-6 0 -12 6 -9 12c13 34 25 67 38 101c17 43 33 86 50 128c4 10 16 10 19 0c13 -33 25 -66 37 -99c16 -43 33 -86 49 -130zM388 927c13 0 13 -20 0 -20h-14h-148c-5 0 -10 4 -10 10v13v149c0 5 5 10 10 10h14h148
c5 0 10 -5 10 -10v-14v-148c0 -13 -20 -13 -20 0v13v149c3 -4 7 -7 10 -10h-14h-148c3 3 7 6 10 10v-14v-148c-3 3 -7 6 -10 10h14h148zM634 927c13 0 13 -20 0 -20h-14h-148c-6 0 -10 4 -10 10v14v148c0 5 4 10 10 10h14h148c5 0 10 -5 10 -10v-14v-148
c0 -13 -20 -13 -20 0v14v148c3 -4 7 -7 10 -10h-14h-148c3 3 7 6 10 10v-14v-148c-3 3 -7 6 -10 10h14h148z" />
    <glyph glyph-name="Agrave" unicode="&#xc0;" 
 />
    <glyph glyph-name="Amacron" unicode="&#x100;" 
 />
    <glyph glyph-name="Aogonek" unicode="&#x104;" 
 />
    <glyph glyph-name="Aring" unicode="&#xc5;" 
 />
    <glyph glyph-name="Atilde" unicode="&#xc3;" 
 />
    <glyph glyph-name="AE" unicode="&#xc6;" 
 />
    <glyph glyph-name="B" unicode="B" horiz-adv-x="709" 
d="M442 11c13 0 13 -20 0 -20h-92h-192h-106c-5 0 -10 5 -10 10v8v92v164v197v189v142v57c0 5 5 10 10 10c29 -1 57 -1 85 -1h142c44 0 89 1 133 0c51 -1 104 -10 149 -36c24 -15 45 -33 61 -57c15 -22 25 -49 29 -76c9 -53 3 -109 -20 -158c-8 -16 -18 -32 -30 -46
s-26 -25 -40 -36c0 5 -1 10 -2 16c13 -6 25 -11 36 -18c20 -11 37 -26 51 -43c31 -36 47 -82 52 -129c5 -51 0 -104 -22 -151c-23 -49 -65 -87 -114 -108c-38 -16 -79 -26 -120 -26c-13 0 -13 20 0 20c18 0 36 2 54 6c54 11 105 36 139 79c33 42 45 96 45 148
c-1 42 -9 85 -30 123c-13 21 -31 41 -51 55c-16 11 -33 19 -50 26c-5 3 -7 12 -2 16c9 7 18 14 26 22c11 10 19 19 26 31c26 40 37 88 36 135c-1 28 -5 56 -17 80c-11 24 -28 46 -49 61c-42 31 -94 43 -145 46h-62h-70c-80 0 -160 0 -240 1c4 3 7 6 10 10v-9v-92v-164v-196
v-189v-143v-56c-3 3 -6 7 -10 10h93h192h105zM271 193c-13 0 -13 20 0 20h60h43h11h3c2 0 -3 0 0 0c1 0 2 1 3 1c3 0 6 1 8 2c22 6 41 20 46 43c5 20 3 43 -13 56c-24 21 -58 18 -87 18h-74c3 3 6 7 10 10v-1v-139c0 -13 -20 -13 -20 0v1v139c0 5 4 10 10 10h84h28
c24 -2 53 -10 69 -30c15 -19 19 -45 13 -68c-6 -25 -23 -43 -46 -53c-12 -6 -25 -9 -39 -9h-38h-71zM269 510c-12 0 -12 20 0 20h4h83h10h1c-2 0 1 0 1 0c1 0 2 1 3 1c6 1 12 3 17 6c8 4 13 8 18 15c6 10 9 20 9 32c0 10 -2 20 -8 29c-6 8 -16 13 -26 16c-13 4 -25 4 -37 4
h-75c4 3 7 7 10 10v-123c0 -13 -20 -13 -20 0v123c0 5 5 10 10 10h21h47c10 0 21 1 31 -1c25 -3 51 -13 61 -38c10 -22 8 -52 -6 -72c-12 -18 -33 -29 -55 -32c-8 -1 -16 0 -24 0h-75z" />
    <glyph glyph-name="C" unicode="C" horiz-adv-x="755" 
d="M463 -46c13 0 13 -20 0 -20c-74 1 -150 12 -219 41c-50 21 -96 50 -134 90c-33 34 -58 74 -75 117c-20 47 -30 98 -33 149c-4 58 -2 117 12 174c13 53 35 105 68 149c33 45 75 82 123 111c97 57 211 79 322 62c48 -7 93 -24 133 -51c42 -28 78 -64 112 -102
c4 -4 3 -9 0 -14c-12 -14 -24 -28 -36 -43c-32 -38 -63 -75 -95 -113c-3 -4 -10 -3 -14 0c-12 12 -23 24 -37 34c-22 17 -46 31 -73 40c-50 17 -106 16 -153 -10c-46 -25 -79 -69 -92 -119c-26 -93 9 -208 97 -254c47 -23 104 -22 153 -7c25 7 49 19 69 35
c14 11 25 23 36 36c4 4 11 4 14 0c11 -11 21 -23 31 -34c34 -37 67 -74 100 -111c3 -3 4 -8 1 -12c-4 -6 -7 -12 -12 -18c-31 -45 -74 -83 -123 -108c-54 -28 -114 -41 -175 -42c-13 0 -13 20 0 20s26 1 39 2c59 6 115 26 163 60c24 16 45 36 64 58c10 12 19 25 27 38
c1 -4 1 -8 2 -12c-11 12 -21 23 -31 35c-34 37 -67 73 -100 110h14c-5 -6 -11 -13 -17 -19c-12 -13 -26 -24 -42 -33c-30 -18 -64 -29 -99 -34c-52 -6 -104 2 -147 33c-38 29 -66 69 -80 115c-17 52 -18 112 2 164c18 50 54 94 103 118c50 24 108 26 160 9
c28 -10 56 -24 79 -43c15 -11 28 -24 41 -37h-14c12 15 24 29 36 44c32 37 63 75 95 112v-14c-32 35 -65 69 -104 96c-40 27 -83 45 -131 52c-53 8 -108 6 -160 -4c-108 -22 -210 -80 -272 -172c-64 -94 -80 -211 -67 -322c5 -48 17 -97 38 -141c20 -42 48 -80 83 -111
c87 -76 205 -103 318 -104z" />
    <glyph glyph-name="Cacute" unicode="&#x106;" 
d="M463 -46c13 0 13 -20 0 -20c-74 1 -150 12 -219 41c-50 21 -96 50 -134 90c-33 34 -58 74 -75 117c-20 47 -30 98 -33 149c-4 58 -2 117 12 174c13 53 35 105 68 149c33 45 75 82 123 111c97 57 211 79 322 62c48 -7 93 -24 133 -51c42 -28 78 -64 112 -102
c4 -4 3 -9 0 -14c-12 -14 -24 -28 -36 -43c-32 -38 -63 -75 -95 -113c-3 -4 -10 -3 -14 0c-12 12 -23 24 -37 34c-22 17 -46 31 -73 40c-50 17 -106 16 -153 -10c-46 -25 -79 -69 -92 -119c-26 -93 9 -208 97 -254c47 -23 104 -22 153 -7c25 7 49 19 69 35
c14 11 25 23 36 36c4 4 11 4 14 0c11 -11 21 -23 31 -34c34 -37 67 -74 100 -111c3 -3 4 -8 1 -12c-4 -6 -7 -12 -12 -18c-31 -45 -74 -83 -123 -108c-54 -28 -114 -41 -175 -42c-13 0 -13 20 0 20s26 1 39 2c59 6 115 26 163 60c24 16 45 36 64 58c10 12 19 25 27 38
c1 -4 1 -8 2 -12c-11 12 -21 23 -31 35c-34 37 -67 73 -100 110h14c-5 -6 -11 -13 -17 -19c-12 -13 -26 -24 -42 -33c-30 -18 -64 -29 -99 -34c-52 -6 -104 2 -147 33c-38 29 -66 69 -80 115c-17 52 -18 112 2 164c18 50 54 94 103 118c50 24 108 26 160 9
c28 -10 56 -24 79 -43c15 -11 28 -24 41 -37h-14c12 15 24 29 36 44c32 37 63 75 95 112v-14c-32 35 -65 69 -104 96c-40 27 -83 45 -131 52c-53 8 -108 6 -160 -4c-108 -22 -210 -80 -272 -172c-64 -94 -80 -211 -67 -322c5 -48 17 -97 38 -141c20 -42 48 -80 83 -111
c87 -76 205 -103 318 -104z" />
    <glyph glyph-name="Ccaron" unicode="&#x10c;" 
 />
    <glyph glyph-name="Ccedilla" unicode="&#xc7;" horiz-adv-x="755" 
d="M627 260c9 10 23 -4 14 -14c-2 -2 -3 -4 -5 -7c-19 -20 -39 -38 -64 -51c-29 -16 -61 -25 -94 -28c-32 -4 -66 -2 -97 9c-25 10 -47 24 -66 42c-92 89 -97 254 -4 344c48 45 114 63 179 51c34 -6 68 -20 97 -40c20 -14 37 -30 54 -47h-14c5 6 10 12 16 19
c38 46 76 91 115 137v-14c-18 19 -35 38 -54 56c-44 40 -94 72 -152 86c-32 7 -64 10 -96 10c-32 1 -64 -2 -95 -9c-65 -13 -128 -40 -181 -79s-95 -91 -122 -150c-28 -63 -38 -132 -38 -200c1 -62 9 -124 32 -182c20 -51 52 -98 94 -135c51 -44 113 -72 178 -87
c6 -2 9 -8 7 -13c-15 -52 -30 -104 -46 -156c-3 4 -6 9 -9 13c16 0 33 -1 50 -1c16 0 32 -1 47 -4c9 -1 19 -4 26 -9c5 -3 6 -8 4 -13c-4 -10 -19 -14 -29 -17c-19 -4 -40 -5 -60 -5c-30 1 -60 3 -90 5l10 10c-5 -48 -9 -96 -14 -144c-2 3 -5 6 -7 9c33 -6 66 -12 100 -13
c49 -2 99 -1 146 16c51 19 99 63 107 119c4 30 -3 60 -21 84c-20 26 -47 42 -78 51c-5 1 -8 7 -7 12c4 11 7 22 11 33c1 5 5 7 9 7c63 3 125 21 177 56c41 27 73 61 99 102c1 -4 1 -8 2 -12c-4 4 -8 8 -11 12c-40 45 -80 89 -120 133c-8 10 6 24 14 14l12 -12
c39 -44 79 -89 119 -133c3 -3 4 -8 2 -12c-28 -43 -63 -81 -107 -109c-55 -37 -120 -56 -187 -59c3 3 7 5 10 8c-4 -11 -7 -22 -10 -33c-3 4 -5 8 -7 12c26 -8 52 -20 71 -40c20 -19 36 -44 41 -71c9 -53 -13 -105 -52 -140c-46 -41 -106 -56 -166 -58c-36 -2 -73 0 -108 5
c-17 2 -34 6 -52 9c-4 1 -7 6 -7 10c5 48 9 96 14 144c0 5 4 10 10 10c29 -2 58 -4 87 -5c18 0 37 0 55 4c3 1 6 1 9 2c1 1 2 1 3 1c1 1 4 2 1 1c2 1 6 3 7 4c1 -5 2 -9 3 -14c-7 4 -15 6 -23 7c-13 2 -30 3 -45 3s-30 1 -45 1c-7 0 -12 6 -10 12v1c16 52 31 104 46 156
c2 -4 5 -9 7 -13c-49 12 -97 30 -139 57c-50 32 -92 75 -122 126c-29 52 -46 109 -53 168c-17 133 8 276 98 380c88 99 224 153 355 151c61 -1 122 -10 177 -41c53 -29 96 -72 137 -117c4 -4 4 -10 0 -14c-5 -6 -11 -12 -16 -19c-38 -45 -76 -91 -115 -137
c-3 -4 -10 -4 -14 0c-14 14 -27 27 -43 38c-25 19 -53 33 -84 41c-54 13 -111 5 -156 -28c-103 -76 -106 -243 -16 -330c18 -17 39 -31 63 -39c31 -10 64 -11 97 -6c31 5 62 15 89 33c19 12 35 29 50 46z" />
    <glyph glyph-name="D" unicode="D" horiz-adv-x="791" 
d="M38 1c0 -13 -20 -13 -20 0v9v95v164v197v189v142v56c0 5 5 10 10 10h106h176c23 0 45 0 68 -2c58 -5 117 -18 170 -43c51 -23 96 -57 133 -99c37 -43 64 -94 81 -148c17 -58 23 -118 20 -177c-3 -53 -13 -106 -34 -155c-19 -46 -45 -88 -80 -124
c-34 -34 -74 -62 -118 -81c-48 -22 -99 -34 -151 -40c-26 -2 -52 -3 -78 -3h-170h-123c-13 0 -13 20 0 20h83h185h40c51 0 102 6 151 21c47 13 91 35 129 64s70 66 93 107c25 44 40 93 48 143c9 56 8 115 -3 172c-10 55 -31 109 -64 156c-31 45 -72 83 -119 110
c-50 28 -105 46 -162 54c-30 4 -60 5 -90 5h-167h-124c3 3 7 6 10 10v-9v-95v-165v-196v-189v-142v-56zM322 247c-13 0 -13 20 0 20c54 0 112 14 153 51c19 17 34 37 42 61c8 23 10 48 6 72c-10 51 -46 92 -93 114c-24 11 -50 17 -77 19h-34h-74c3 3 6 7 10 10v-38v-183
v-116l-10 10h77c13 0 13 -20 0 -20h-77c-6 0 -10 5 -10 10v38v183v116c0 5 4 10 10 10h91c49 0 98 -13 137 -42c43 -32 72 -81 72 -136c0 -53 -27 -102 -70 -133c-43 -33 -99 -46 -153 -46z" />
    <glyph glyph-name="Eth" unicode="&#xd0;" 
 />
    <glyph glyph-name="Dcaron" unicode="&#x10e;" 
 />
    <glyph glyph-name="Dcroat" unicode="&#x110;" 
 />
    <glyph glyph-name="E" unicode="E" horiz-adv-x="610" 
d="M38 5c0 -13 -20 -13 -20 0v7v90v164v196v189v143v56c0 6 4 10 10 10h2h101h188h181h81c5 0 10 -4 10 -10v-30v-150c0 -6 -5 -10 -10 -10h-31h-180h-118l10 10v-22v-150l-10 10h114h137c6 0 10 -4 10 -10v-3v-144c0 -5 -4 -10 -10 -10h-115h-136c3 4 6 7 10 10v-17v-149
c-4 3 -7 7 -10 10h31h181h118c5 0 10 -4 10 -10v-31v-149c0 -6 -5 -10 -10 -10h-3h-103h-187h-181h-80c-13 0 -13 20 0 20h2h103h188h180h81l-10 -10v30v150c3 -3 6 -7 10 -10h-32h-180h-118c-6 0 -10 5 -10 10v17v149c0 6 4 10 10 10h114h137l-10 -10v4v143
c4 -3 7 -6 10 -10h-115h-136c-6 0 -10 5 -10 10v22v150c0 5 4 10 10 10h31h180h118l-10 -10v30v150l10 -10h-2h-102h-188h-181h-80c3 4 6 7 10 10v-7v-91v-163v-196v-189v-143v-56z" />
    <glyph glyph-name="Eacute" unicode="&#xc9;" 
 />
    <glyph glyph-name="Ecaron" unicode="&#x11a;" 
 />
    <glyph glyph-name="Ecircumflex" unicode="&#xca;" 
 />
    <glyph glyph-name="Edieresis" unicode="&#xcb;" 
 />
    <glyph glyph-name="Edotaccent" unicode="&#x116;" 
d="M38 5c0 -13 -20 -13 -20 0v7v90v164v196v189v143v56c0 6 4 10 10 10h2h101h188h181h81c5 0 10 -4 10 -10v-30v-150c0 -6 -5 -10 -10 -10h-31h-180h-118l10 10v-22v-150l-10 10h114h137c6 0 10 -4 10 -10v-3v-144c0 -5 -4 -10 -10 -10h-115h-136c3 4 6 7 10 10v-17v-149
c-4 3 -7 7 -10 10h31h181h118c5 0 10 -4 10 -10v-31v-149c0 -6 -5 -10 -10 -10h-3h-103h-187h-181h-80c-13 0 -13 20 0 20h2h103h188h180h81l-10 -10v30v150c3 -3 6 -7 10 -10h-32h-180h-118c-6 0 -10 5 -10 10v17v149c0 6 4 10 10 10h114h137l-10 -10v4v143
c4 -3 7 -6 10 -10h-115h-136c-6 0 -10 5 -10 10v22v150c0 5 4 10 10 10h31h180h118l-10 -10v30v150l10 -10h-2h-102h-188h-181h-80c3 4 6 7 10 10v-7v-91v-163v-196v-189v-143v-56z" />
    <glyph glyph-name="Egrave" unicode="&#xc8;" 
 />
    <glyph glyph-name="Emacron" unicode="&#x112;" 
 />
    <glyph glyph-name="Eogonek" unicode="&#x118;" 
 />
    <glyph glyph-name="F" unicode="F" horiz-adv-x="611" 
d="M59 5c0 -13 -20 -13 -20 0v7v90v164v196v189v143v56c0 6 4 10 10 10h8h117h191h178h79c5 0 10 -4 10 -10v-55v-148c0 -5 -5 -10 -10 -10h-62h-189h-111l10 10v-107c-3 4 -6 7 -10 10h7h161h126c5 0 10 -4 10 -10v-57v-147c0 -6 -5 -10 -10 -10h-7h-160h-127
c4 3 7 7 10 10v-34v-180v-117c0 -6 -4 -10 -10 -10h-66h-145c-13 0 -13 20 0 20h65h146c-3 -4 -6 -7 -10 -10v33v180v118c0 5 5 10 10 10h7h161h126l-10 -10v57v147c3 -3 7 -6 10 -10h-7h-160h-127c-5 0 -10 5 -10 10v107c0 6 5 10 10 10h62h189h111c-4 -3 -7 -6 -10 -10v56
v147l10 -10h-8h-118h-191h-178h-78c3 4 6 7 10 10v-7v-91v-163v-196v-189v-143v-56z" />
    <glyph glyph-name="G" unicode="G" horiz-adv-x="796" 
d="M430 -25c13 0 13 -20 0 -20c-62 0 -125 10 -183 32c-53 20 -102 49 -143 88c-35 34 -63 74 -83 118c-22 48 -34 98 -39 150c-6 59 -2 120 12 177c13 56 37 110 71 156c30 41 68 76 111 102s91 44 140 54c56 10 113 13 169 5c60 -9 119 -29 172 -59c44 -24 82 -56 116 -93
c3 -4 4 -11 0 -15c-15 -12 -29 -24 -43 -36c-38 -31 -76 -63 -114 -95c-4 -3 -9 -3 -14 0c-20 19 -42 36 -67 48c-23 12 -47 20 -73 24c-25 4 -52 5 -77 0c-49 -10 -93 -39 -120 -82c-27 -44 -37 -97 -34 -149c3 -51 20 -104 55 -143c33 -36 79 -57 128 -60c28 -2 56 0 84 7
c20 5 40 12 59 20c-2 -3 -5 -6 -7 -9v78c0 5 5 10 10 10c-3 -4 -6 -7 -10 -10v33v150c0 5 5 10 10 10h61h146c6 0 10 -5 10 -10v-102v-192v-72v-19v-4c0 -6 -4 -9 -9 -12c-45 -33 -99 -56 -153 -72c-60 -18 -123 -28 -185 -28c-13 0 -13 20 0 20h5c62 1 125 11 184 30
c51 16 100 38 143 70c-2 -3 -3 -6 -5 -9v92v192v106l10 -10h-60h-147c4 3 7 6 10 10v-34v-149c0 -6 -4 -10 -10 -10c3 3 7 6 10 10v-78c0 -5 -3 -8 -7 -10c-18 -7 -35 -14 -54 -19c-25 -7 -51 -10 -77 -10c-52 0 -103 15 -142 50c-40 34 -65 83 -75 135c-9 53 -6 112 15 162
c19 47 54 88 100 111c49 23 105 25 157 12c26 -6 51 -16 74 -30c20 -12 38 -27 55 -42h-14c15 12 29 24 44 36c37 31 75 63 113 95v-15c-23 26 -48 49 -77 69c-48 33 -103 57 -161 71c-56 13 -114 14 -171 7c-99 -13 -191 -58 -255 -135c-75 -90 -102 -210 -94 -324
c6 -99 43 -196 114 -266c84 -81 200 -117 315 -117z" />
    <glyph glyph-name="Gcommaaccent" unicode="&#x122;" 
 />
    <glyph glyph-name="H" unicode="H" horiz-adv-x="762" 
d="M524 6c0 -13 -20 -13 -20 0v6v160v126c4 -3 7 -6 10 -10h-133h-133l10 10v-6v-160v-126c0 -6 -4 -11 -10 -11h-77h-144c-5 0 -10 5 -10 11v6v90v163v196v189v143v57c0 5 5 10 10 10h77h144c6 0 10 -5 10 -10v-26v-177v-120c-3 4 -6 7 -10 10h133h133l-10 -10v26v177v120
c0 5 5 10 10 10h77h144c6 0 10 -5 10 -10v-7v-90v-163v-196v-189v-143v-56c0 -6 -4 -11 -10 -11h-77h-144c-13 0 -13 21 0 21h77h144c-3 -4 -6 -7 -10 -10v6v90v163v196v189v143v57l10 -10h-77h-144c4 3 7 6 10 10v-26v-177v-120c0 -5 -4 -10 -10 -10h-133h-133
c-5 0 -10 5 -10 10v26v177v120l10 -10h-77h-144c4 3 7 6 10 10v-7v-90v-163v-196v-189v-143v-56l-10 10h77h144c-3 -4 -6 -7 -10 -10v6v160v126c0 6 5 10 10 10h133h133c6 0 10 -4 10 -10v-6v-160v-126z" />
    <glyph glyph-name="I" unicode="I" horiz-adv-x="299" 
d="M40 5c0 -13 -20 -13 -20 0v7v91v164v196v189v143v56c0 6 5 10 10 10h99h140c6 0 10 -4 10 -10v-7v-91v-164v-196v-189v-143v-56c0 -6 -4 -10 -10 -10h-99h-140c-13 0 -13 20 0 20h99h140c-3 -4 -6 -7 -10 -10v7v91v164v196v189v143v56c4 -3 7 -7 10 -10h-99h-140
c4 3 7 7 10 10v-7v-91v-164v-196v-189v-143v-56z" />
    <glyph glyph-name="Iacute" unicode="&#xcd;" 
 />
    <glyph glyph-name="Icircumflex" unicode="&#xce;" 
 />
    <glyph glyph-name="Idieresis" unicode="&#xcf;" 
 />
    <glyph glyph-name="Igrave" unicode="&#xcc;" 
 />
    <glyph glyph-name="Imacron" unicode="&#x12a;" 
 />
    <glyph glyph-name="Iogonek" unicode="&#x12e;" 
 />
    <glyph glyph-name="J" unicode="J" horiz-adv-x="535" 
d="M247 5c12 0 12 -20 0 -20h-2c-51 0 -101 10 -147 31c-43 21 -79 51 -108 88c-4 4 -4 10 0 14c11 13 23 27 35 40c32 38 64 75 97 112c4 5 12 3 15 -2c16 -21 37 -42 63 -50c19 -5 42 -7 57 7c6 6 11 13 14 21c4 11 6 22 7 34c2 16 1 32 1 49v178v119c3 -4 7 -7 10 -10
h-34c-50 1 -100 1 -150 2c-5 0 -10 4 -10 10c0 19 1 39 1 58c0 49 1 98 1 147c0 6 5 10 10 10h1h117h192h102c5 0 10 -5 10 -10v-33v-157v-195v-131c0 -71 -7 -144 -42 -207c-22 -39 -54 -72 -93 -93c-46 -23 -97 -32 -147 -32c-13 0 -13 20 0 20c52 0 106 9 152 38
c83 53 107 155 109 248c1 31 1 61 1 92v182v184v84c3 -3 6 -7 10 -10h-1h-117h-192h-102c3 4 7 7 10 10v-58c-1 -49 -1 -98 -2 -147c-3 3 -7 6 -10 10c12 0 23 -1 34 -1c50 0 100 -1 150 -1c6 0 10 -5 10 -10v-23v-175v-127c0 -41 -10 -98 -60 -105c-21 -3 -45 1 -64 11
c-23 12 -40 31 -55 51c5 -1 11 -1 16 -2c-12 -14 -24 -27 -35 -40c-33 -38 -65 -75 -97 -112v14c28 -36 63 -65 104 -84c43 -21 91 -29 139 -29z" />
    <glyph glyph-name="K" unicode="K" horiz-adv-x="775" 
d="M482 9c6 -12 -11 -22 -17 -11c-13 24 -26 47 -39 70c-30 56 -61 112 -92 168c-17 32 -34 63 -51 95h17c-10 -19 -20 -37 -30 -56c0 2 1 3 1 5v-1v-145v-130c0 -6 -5 -11 -10 -11h-103h-139c-5 0 -10 5 -10 11v8v92v165v196v189v142v56c0 6 5 10 10 10h103h139
c5 0 10 -4 10 -10v-3v-153v-129c-6 2 -12 4 -19 5c15 22 29 43 44 65c35 52 71 105 106 157l36 54l6 9c4 6 10 5 16 5h159h127c9 0 12 -10 7 -17c-5 -6 -10 -12 -15 -19c-33 -41 -65 -81 -97 -122c-40 -50 -79 -100 -118 -150c-20 -24 -39 -48 -58 -73c1 4 1 8 2 12
c1 -2 2 -4 3 -5c20 -33 40 -66 60 -98c34 -54 67 -108 100 -162c31 -51 63 -102 94 -152c14 -23 27 -45 41 -67c4 -7 -1 -16 -8 -16h-3h-152h-129c-13 0 -13 21 0 21h3h151h130c-3 -6 -6 -11 -9 -16c-1 2 -2 4 -4 6c-20 33 -40 65 -60 98c-33 54 -67 108 -100 162
c-31 51 -62 101 -93 152c-14 22 -28 45 -42 67c-2 4 -1 9 2 12c5 7 10 13 15 19c32 41 64 82 97 123c39 50 79 100 118 149c19 25 38 49 58 73c2 -5 4 -11 7 -17h-7h-159h-127c3 2 6 4 9 5c-9 -12 -17 -24 -25 -36c-34 -52 -69 -103 -103 -154c-22 -31 -43 -63 -64 -95
c-6 -8 -19 -5 -19 5v4v153v128c3 -3 7 -6 10 -10h-103h-139c3 4 7 7 10 10v-8v-93v-164v-196v-189v-142v-56c-3 3 -7 6 -10 10h103h139c-3 -4 -7 -7 -10 -10v49v184v43c0 4 3 8 5 12c3 6 7 12 10 19c6 10 11 20 17 30c3 6 13 6 17 0c13 -24 25 -47 38 -70
c31 -56 61 -112 92 -168c17 -31 35 -63 52 -94z" />
    <glyph glyph-name="Kcommaaccent" unicode="&#x136;" 
 />
    <glyph glyph-name="L" unicode="L" horiz-adv-x="605" 
d="M29 3c0 -13 -20 -13 -20 0v8v92v165v196v189v142v56c0 6 4 10 10 10h114h137c6 0 10 -4 10 -10v-30v-144v-196v-172v-74c-3 3 -6 7 -10 10h21h174h121c6 0 10 -5 10 -10v-91v-141c0 -6 -4 -11 -10 -11h-6h-113h-190h-179h-79c-13 0 -13 21 0 21h6h113h190h179h79
c-3 -4 -6 -7 -10 -10v90v142c4 -3 7 -7 10 -10h-21h-173h-122c-5 0 -10 4 -10 10v31v144v195v172v74c4 -3 7 -6 10 -10h-114h-137c3 4 7 7 10 10v-8v-93v-164v-196v-189v-142v-56z" />
    <glyph glyph-name="Lacute" unicode="&#x139;" 
d="M29 3c0 -13 -20 -13 -20 0v8v92v165v196v189v142v56c0 6 4 10 10 10h114h137c6 0 10 -4 10 -10v-30v-144v-196v-172v-74c-3 3 -6 7 -10 10h21h174h121c6 0 10 -5 10 -10v-91v-141c0 -6 -4 -11 -10 -11h-6h-113h-190h-179h-79c-13 0 -13 21 0 21h6h113h190h179h79
c-3 -4 -6 -7 -10 -10v90v142c4 -3 7 -7 10 -10h-21h-173h-122c-5 0 -10 4 -10 10v31v144v195v172v74c4 -3 7 -6 10 -10h-114h-137c3 4 7 7 10 10v-8v-93v-164v-196v-189v-142v-56z" />
    <glyph glyph-name="Lcaron" unicode="&#x13d;" 
 />
    <glyph glyph-name="Lcommaaccent" unicode="&#x13b;" 
 />
    <glyph glyph-name="Lslash" unicode="&#x141;" 
 />
    <glyph glyph-name="M" unicode="M" horiz-adv-x="973" 
d="M735 6c0 -13 -20 -13 -20 0v1v115v193v102c6 -2 12 -4 19 -6c-12 -24 -23 -49 -35 -74c-27 -58 -54 -115 -81 -173c-15 -32 -30 -65 -45 -97c-1 -3 -5 -5 -8 -5h-11h-147c-3 0 -7 2 -9 5c-11 24 -22 48 -34 73c-26 58 -53 115 -80 173c-15 33 -30 65 -45 98
c6 2 12 3 19 5v-1v-114v-193v-102c0 -5 -5 -10 -10 -10h-87h-142c-6 0 -10 5 -10 10v6v88v162v196v190v143v57c0 5 4 10 10 10h6h158h127c3 0 7 -2 9 -5c0 -2 1 -3 2 -5c17 -39 35 -78 53 -118c27 -58 53 -116 80 -175c14 -30 27 -60 41 -90h-17c0 1 1 3 2 4
c18 40 36 79 54 119c27 58 53 116 80 175c14 30 27 60 41 90c2 3 6 5 9 5h5h157h128c5 0 10 -5 10 -10v-6v-88v-162v-196v-190v-143v-57c0 -5 -5 -10 -10 -10h-86h-143c-13 0 -13 20 0 20h86h143c-4 -3 -7 -6 -10 -10v6v88v162v196v190v143v57c3 -4 6 -7 10 -10h-6h-157
h-127c3 1 6 3 8 4c0 -1 -1 -2 -2 -4c-18 -39 -36 -79 -54 -118c-26 -59 -53 -117 -80 -175c-14 -30 -27 -60 -41 -90c-3 -7 -14 -7 -17 0c-1 1 -2 3 -2 4c-18 39 -36 79 -54 118c-26 58 -53 117 -80 175c-13 30 -27 60 -41 90c3 -1 6 -3 9 -4h-6h-158h-127c3 3 7 6 10 10v-6
v-88v-162v-196v-190v-143v-57c-3 4 -7 7 -10 10h86h143c-4 -3 -7 -6 -10 -10v1v115v192v102c0 9 14 14 18 5c11 -24 23 -49 34 -73c27 -58 54 -116 80 -173c15 -33 30 -66 46 -98c-3 2 -6 3 -9 5h10h148c-3 -2 -6 -3 -9 -5c11 25 23 49 34 74c27 58 54 116 81 173
c15 33 30 65 45 98c5 9 19 4 19 -5v-1v-115v-193v-102z" />
    <glyph glyph-name="N" unicode="N" horiz-adv-x="830" 
d="M601 8c4 -4 1 -11 -3 -14c-5 -3 -11 0 -14 4c-1 1 -2 3 -3 4c-23 30 -46 60 -68 90c-39 50 -77 101 -115 151c-36 48 -73 95 -109 143l-48 63c7 1 13 3 19 5v-16v-149v-191v-95c0 -5 -5 -10 -10 -10h-84h-143c-6 0 -10 5 -10 10v7v91v164v196v189v143v56c0 6 4 10 10 10
h134h67c4 0 8 -1 11 -5c0 0 0 -1 1 -1l6 -9c26 -33 51 -66 76 -100l117 -153c36 -46 71 -93 107 -140c16 -20 31 -41 47 -61c-6 -2 -13 -4 -19 -5v24v157v190v93c0 6 5 10 10 10h85h142c6 0 10 -4 10 -10v-7v-91v-164v-196v-189v-143v-56c0 -5 -4 -10 -10 -10h-69h-145
c-13 0 -13 20 0 20h69h145c-3 -3 -6 -7 -10 -10v7v91v164v196v189v143v56c4 -3 7 -6 10 -10h-84h-143l10 10v-24v-157v-191v-92c0 -5 -3 -9 -7 -10c-5 -1 -9 1 -11 5c-3 3 -6 6 -8 10c-25 33 -51 66 -76 99l-117 153c-35 47 -71 94 -107 141c-15 20 -31 41 -47 61
c3 -2 6 -3 9 -5h-56h-147c3 4 6 7 10 10v-7v-91v-164v-196v-189v-143v-56c-4 3 -7 7 -10 10h84h143l-10 -10v16v149v191v95c0 4 3 8 7 9c5 2 9 -1 12 -4c1 -2 2 -3 3 -5c23 -30 45 -59 68 -89c38 -51 77 -101 115 -151c36 -48 72 -95 108 -143z" />
    <glyph glyph-name="Nacute" unicode="&#x143;" 
d="M601 8c4 -4 1 -11 -3 -14c-5 -3 -11 0 -14 4c-1 1 -2 3 -3 4c-23 30 -46 60 -68 90c-39 50 -77 101 -115 151c-36 48 -73 95 -109 143l-48 63c7 1 13 3 19 5v-16v-149v-191v-95c0 -5 -5 -10 -10 -10h-84h-143c-6 0 -10 5 -10 10v7v91v164v196v189v143v56c0 6 4 10 10 10
h134h67c4 0 8 -1 11 -5c0 0 0 -1 1 -1l6 -9c26 -33 51 -66 76 -100l117 -153c36 -46 71 -93 107 -140c16 -20 31 -41 47 -61c-6 -2 -13 -4 -19 -5v24v157v190v93c0 6 5 10 10 10h85h142c6 0 10 -4 10 -10v-7v-91v-164v-196v-189v-143v-56c0 -5 -4 -10 -10 -10h-69h-145
c-13 0 -13 20 0 20h69h145c-3 -3 -6 -7 -10 -10v7v91v164v196v189v143v56c4 -3 7 -6 10 -10h-84h-143l10 10v-24v-157v-191v-92c0 -5 -3 -9 -7 -10c-5 -1 -9 1 -11 5c-3 3 -6 6 -8 10c-25 33 -51 66 -76 99l-117 153c-35 47 -71 94 -107 141c-15 20 -31 41 -47 61
c3 -2 6 -3 9 -5h-56h-147c3 4 6 7 10 10v-7v-91v-164v-196v-189v-143v-56c-4 3 -7 7 -10 10h84h143l-10 -10v16v149v191v95c0 4 3 8 7 9c5 2 9 -1 12 -4c1 -2 2 -3 3 -5c23 -30 45 -59 68 -89c38 -51 77 -101 115 -151c36 -48 72 -95 108 -143z" />
    <glyph glyph-name="Ncaron" unicode="&#x147;" 
 />
    <glyph glyph-name="Ncommaaccent" unicode="&#x145;" 
 />
    <glyph glyph-name="Eng" unicode="&#x14a;" 
 />
    <glyph glyph-name="Ntilde" unicode="&#xd1;" horiz-adv-x="844" 
d="M611 -6c4 -4 1 -11 -3 -14c-5 -3 -11 0 -14 4c-2 2 -4 5 -6 7l-72 96c-39 50 -77 101 -116 152c-36 47 -72 94 -107 141l-48 63c7 1 13 3 19 5v-21v-153v-191v-94c0 -5 -5 -10 -10 -10h-89h-142c-6 0 -10 5 -10 10v12v100v167v197v188v141v56c0 5 4 10 10 10h153h54
c7 0 15 -14 19 -19c27 -35 53 -70 80 -105c39 -51 78 -103 117 -154c36 -46 71 -93 106 -139c16 -20 31 -41 47 -61c-7 -1 -13 -3 -19 -5v30v161v190v92c0 5 5 10 10 10h89h142c6 0 10 -5 10 -10v-13v-99v-168v-196v-189v-140v-56c0 -5 -4 -10 -10 -10h-74h-144
c-13 0 -13 20 0 20h73h145l-10 -10v12v100v167v197v188v141v56l10 -10h-89h-142l10 10v-30v-161v-190v-92c0 -4 -3 -8 -7 -9c-5 -2 -9 1 -12 4c-3 5 -7 10 -10 14c-27 35 -54 70 -80 105c-39 51 -78 103 -118 154c-35 46 -70 93 -106 139c-15 20 -31 41 -46 61
c3 -2 6 -4 9 -5h-61h-146l10 10v-13v-99v-168v-196v-189v-140v-56l-10 10h89h142l-10 -10v21v153v191v94c0 4 3 8 7 9c5 1 9 -1 12 -4c2 -3 3 -5 5 -8c24 -32 49 -63 73 -95c38 -51 77 -102 116 -152c35 -48 71 -95 107 -142c16 -20 31 -41 47 -62zM215 921
c0 -12 -20 -12 -20 0c0 14 0 27 1 40c4 42 15 86 45 118c27 29 66 39 105 33c28 -4 53 -16 77 -29c14 -8 28 -16 42 -23c11 -6 23 -12 36 -14c4 -1 8 0 12 0c0 0 3 0 0 0h3c1 1 3 1 4 1c1 1 2 1 3 1c-3 -1 0 0 0 1c1 0 3 1 4 2c0 0 2 2 0 0l2 2l3 3s1 1 0 0l1 1c1 1 1 2 2 3
s2 3 2 5c1 2 3 7 4 11c3 11 5 23 5 35c1 6 5 10 10 10h83c5 0 10 -4 10 -10c0 -13 0 -27 -1 -40c-4 -39 -13 -81 -40 -111c-25 -27 -62 -38 -97 -36c-31 2 -59 13 -87 27c-13 6 -27 14 -40 22c-10 5 -19 11 -29 14c-5 1 -9 3 -14 3c2 0 -1 0 -1 0h-3c-2 1 -4 1 -6 0
c2 1 -1 0 -2 0s-2 -1 -2 -1c-3 -1 1 1 -1 0c-1 -1 -2 -1 -3 -1l-2 -2l-1 -1c-1 -1 -3 -2 -4 -4c-1 -1 -1 -1 0 0c-1 -1 -1 -1 -1 -2c-1 -1 -2 -1 -2 -2l-3 -6c-2 -4 -4 -8 -5 -13c-3 -12 -5 -24 -6 -37c0 -5 -4 -10 -10 -10h-84c-13 0 -13 20 0 20h84l-10 -10
c1 14 3 28 7 41c5 19 14 38 34 46c18 7 38 0 55 -8c12 -5 23 -12 34 -19c14 -8 28 -15 43 -21c24 -11 50 -18 77 -16c15 1 31 5 44 13s24 18 32 31c21 36 24 82 24 123c3 -3 7 -6 10 -10h-83l10 10c0 -13 -2 -26 -5 -38c-4 -16 -12 -33 -27 -41c-17 -9 -37 -7 -54 -1
c-52 20 -97 63 -156 63c-9 0 -15 -1 -24 -3s-15 -4 -22 -8c-14 -8 -26 -20 -35 -33c-24 -38 -29 -85 -28 -129z" />
    <glyph glyph-name="O" unicode="O" horiz-adv-x="890" 
d="M435 10c13 0 13 -20 0 -20c-60 0 -120 10 -176 33c-52 21 -100 53 -139 94c-82 85 -120 202 -120 319c1 117 38 235 120 321c39 41 86 72 139 94c55 22 116 33 176 33s121 -10 176 -33c53 -22 100 -53 139 -94c82 -86 120 -204 120 -321c-1 -116 -38 -234 -120 -319
c-39 -41 -86 -73 -138 -94c-56 -23 -117 -33 -177 -33c-13 0 -13 20 0 20c89 0 177 24 249 76c93 66 148 172 162 284c14 116 -8 240 -78 335c-33 45 -75 81 -123 108c-51 28 -108 44 -165 49c-116 10 -237 -20 -325 -99c-41 -37 -74 -82 -96 -133
c-24 -54 -36 -113 -38 -171c-4 -115 27 -234 106 -321c37 -41 83 -73 134 -95c55 -22 114 -33 174 -33zM429 636c13 0 13 -20 0 -20c-30 0 -61 -8 -87 -25s-46 -40 -59 -67c-46 -93 -15 -227 88 -265c47 -17 102 -13 145 14c44 28 71 76 78 127c8 52 -3 108 -35 151
c-30 41 -79 65 -130 65c-13 0 -13 20 0 20c46 0 90 -17 123 -47c33 -31 54 -73 61 -117c9 -55 0 -114 -30 -160c-29 -45 -75 -75 -128 -82c-53 -6 -107 9 -147 45c-41 36 -63 90 -66 144c-3 55 13 111 49 153c34 41 85 64 138 64z" />
    <glyph glyph-name="Oacute" unicode="&#xd3;" 
 />
    <glyph glyph-name="Ocircumflex" unicode="&#xd4;" 
 />
    <glyph glyph-name="Odieresis" unicode="&#xd6;" horiz-adv-x="889" 
d="M434 -4c13 0 13 -20 0 -20c-60 0 -120 10 -176 33c-52 21 -100 52 -139 93c-82 86 -119 203 -119 320s37 235 119 321c39 40 87 72 139 94c56 22 116 33 176 33s121 -10 177 -33c52 -22 100 -53 139 -94c81 -86 119 -204 119 -321c0 -116 -37 -234 -119 -319
c-39 -41 -87 -73 -139 -94c-56 -23 -116 -33 -177 -33c-13 0 -13 20 0 20c89 0 177 24 250 76c92 66 147 172 161 284c14 116 -8 240 -78 335c-32 44 -75 81 -123 108c-51 28 -107 44 -165 49c-116 10 -237 -20 -324 -99c-42 -37 -74 -82 -97 -133
c-23 -54 -35 -113 -38 -171c-4 -116 27 -235 106 -321c37 -41 83 -74 134 -95c56 -22 115 -33 174 -33zM429 622c13 0 13 -20 0 -20c-31 0 -62 -9 -88 -25c-25 -17 -46 -40 -59 -68c-46 -92 -15 -226 88 -264c48 -17 103 -13 145 14c44 28 71 76 79 127c8 52 -4 108 -35 151
c-31 41 -79 64 -130 65c-13 0 -13 20 0 20c45 0 89 -17 123 -47c33 -31 54 -73 61 -118c8 -54 0 -113 -31 -159c-29 -45 -75 -75 -128 -82s-107 9 -147 45s-62 90 -65 144s12 111 48 153c35 41 85 63 139 64zM389 920c13 0 13 -20 0 -20h-13h-149c-5 0 -10 5 -10 10v14v148
c0 6 5 10 10 10h14h148c6 0 10 -4 10 -10v-14v-148c0 -13 -20 -13 -20 0v14v148c4 -3 7 -7 10 -10h-13h-149c4 3 7 7 10 10v-14v-148c-3 3 -6 7 -10 10h14h148zM635 920c13 0 13 -20 0 -20h-14h-148c-5 0 -10 5 -10 10v14v148c0 6 5 10 10 10h14h148c6 0 10 -4 10 -10v-14
v-148c0 -13 -20 -13 -20 0v14v148c4 -3 7 -7 10 -10h-14h-148c4 3 7 7 10 10v-14v-148c-3 3 -6 7 -10 10h14h148z" />
    <glyph glyph-name="Ograve" unicode="&#xd2;" 
 />
    <glyph glyph-name="Ohungarumlaut" unicode="&#x150;" 
 />
    <glyph glyph-name="Omacron" unicode="&#x14c;" 
 />
    <glyph glyph-name="Oslash" unicode="&#xd8;" 
 />
    <glyph glyph-name="Otilde" unicode="&#xd5;" 
 />
    <glyph glyph-name="OE" unicode="&#x152;" 
 />
    <glyph glyph-name="P" unicode="P" horiz-adv-x="670" 
d="M30 2c0 -13 -20 -13 -20 0v9v93v165v196v189v142v56c0 6 4 10 10 10h99h182h43c58 0 117 -9 169 -36c46 -24 84 -61 108 -107c25 -47 36 -100 38 -153c3 -58 -6 -118 -34 -169c-26 -49 -68 -86 -118 -110c-54 -24 -113 -35 -171 -36c-23 -1 -46 -2 -68 -3c3 4 7 7 10 10
v-122v-135c0 -5 -4 -10 -10 -10h-110c-46 1 -92 1 -138 1c-12 0 -12 20 0 20c37 0 74 0 110 -1h138l-10 -10v122v135c0 6 4 10 10 10c54 2 108 2 161 14s104 35 142 75c38 39 60 91 66 145c12 101 -12 219 -97 283c-44 34 -98 50 -153 55c-24 2 -49 2 -73 2h-173h-121
c3 4 6 7 10 10v-8v-94v-164v-197v-189v-142v-56zM302 657c13 0 13 -20 0 -20c-19 0 -38 -1 -57 -1l10 10c0 -13 0 -26 1 -38l3 -150c-3 4 -6 7 -10 10c24 1 49 0 73 4c22 2 45 10 60 27s20 41 18 63s-11 44 -30 57c-20 14 -44 18 -68 18c-13 0 -13 20 0 20
c29 0 59 -6 83 -24c22 -17 34 -45 35 -73c1 -26 -4 -51 -20 -71c-15 -19 -38 -30 -61 -35c-29 -6 -60 -5 -90 -6c-5 0 -10 5 -10 10c0 13 0 26 -1 38l-3 150c0 5 4 9 10 10c19 0 38 1 57 1z" />
    <glyph glyph-name="Thorn" unicode="&#xde;" 
 />
    <glyph glyph-name="Q" unicode="Q" horiz-adv-x="946" 
d="M711 94c11 7 21 -10 10 -17c-30 -19 -62 -35 -96 -46c-41 -14 -84 -22 -127 -25c-117 -7 -238 21 -331 96c-44 35 -80 79 -106 128c-27 53 -43 111 -49 169c-11 118 16 241 90 336c34 44 77 81 126 108c52 28 109 45 168 52c117 14 242 -8 340 -78
c45 -33 84 -75 113 -123c30 -50 49 -106 57 -163c9 -60 8 -121 -4 -181c-10 -49 -28 -95 -52 -140c-1 4 -1 8 -2 12c28 -24 57 -49 85 -73c3 -3 4 -9 1 -13c-7 -8 -13 -17 -20 -26c-30 -40 -61 -79 -91 -119c-4 -5 -11 -7 -16 -2c-32 30 -65 60 -98 89c-9 9 5 23 14 15
c33 -30 66 -60 98 -90c-5 -1 -10 -1 -15 -2c6 9 13 18 20 27c30 39 61 79 91 119c0 -4 1 -9 2 -13c-29 25 -57 50 -85 74c-3 3 -4 9 -1 12c11 21 21 42 30 64c10 28 18 57 23 87c18 114 -2 238 -68 334c-31 45 -72 84 -119 112c-50 30 -105 48 -162 57
c-116 16 -240 -5 -337 -72c-45 -32 -83 -73 -111 -121c-29 -49 -47 -105 -55 -162c-15 -116 8 -239 79 -334c69 -91 176 -144 288 -157c59 -6 119 -4 177 10c26 6 52 15 77 26c20 9 38 19 56 30zM462 682c13 0 13 -20 0 -20c-50 0 -98 -20 -133 -56
c-36 -39 -55 -91 -57 -143c-2 -53 10 -107 41 -151c30 -40 75 -68 125 -74c28 -3 57 -1 84 8c13 4 25 10 38 16v-18c-32 25 -64 49 -96 74c-5 4 -7 10 -2 15c1 1 1 2 2 3c33 34 66 69 98 103c4 4 10 4 14 0c27 -24 53 -47 80 -71c-6 -1 -12 -3 -17 -4c2 8 4 17 6 26
c5 23 7 46 6 70c-1 52 -19 105 -55 144c-35 37 -83 58 -134 58c-13 0 -13 20 0 20c49 0 97 -17 134 -50c40 -35 65 -87 72 -139c5 -31 5 -61 -1 -92c-2 -14 -6 -28 -9 -43c-2 -7 -11 -9 -17 -4c-26 24 -52 47 -79 71h14c0 -1 -1 -2 -2 -2c-32 -35 -65 -69 -98 -104
c-1 5 -1 11 -2 16c32 -24 64 -49 96 -73c5 -4 8 -14 0 -18c-20 -8 -40 -18 -61 -22c-34 -7 -71 -7 -105 3c-51 15 -93 49 -119 95c-27 48 -38 105 -32 160c6 54 28 106 67 144c38 38 89 58 142 58z" />
    <glyph glyph-name="R" unicode="R" horiz-adv-x="757" 
d="M463 -1c7 -12 -10 -22 -17 -11l-3 6c-27 45 -54 91 -81 136c-22 36 -44 73 -65 109c2 -2 5 -3 8 -5h-48c3 3 6 7 10 10v-113v-138c0 -5 -5 -10 -10 -10h-88h-142c-6 0 -10 5 -10 10v16v105v169v198v187v140v55c0 5 4 10 10 10h11h158h164c26 0 51 0 77 -4
c55 -7 110 -24 155 -58c40 -31 70 -72 88 -119c19 -51 26 -108 22 -162c-3 -55 -17 -111 -49 -156c-15 -22 -33 -41 -53 -58c-16 -11 -32 -21 -49 -31c1 5 3 10 4 14l27 -45c33 -53 66 -106 98 -159c20 -32 40 -64 59 -96c4 -7 -1 -16 -8 -16h-1h-144h-131
c-13 0 -13 21 0 21h1h144h131c-3 -6 -6 -11 -9 -16c-9 15 -18 30 -28 45c-32 53 -65 107 -97 160c-20 32 -40 64 -59 96c-3 5 -1 11 3 14c11 6 21 11 31 18c43 29 75 70 93 119c19 53 22 112 15 168c-6 48 -22 97 -51 137c-30 42 -74 72 -123 88c-43 15 -88 20 -133 20h-47
h-185h-114c3 3 6 7 10 10v-16v-104v-170v-197v-188v-139v-56c-4 4 -7 7 -10 11h87h143c-4 -4 -7 -7 -10 -11v114v137c0 5 4 10 10 10h42c6 0 12 0 15 -5c1 -2 2 -4 3 -5c27 -46 54 -91 81 -137c22 -36 44 -72 65 -108zM252 473c-13 0 -13 20 0 20h27h41s23 1 34 3
c4 1 8 2 12 4c4 1 5 2 9 4c8 4 12 7 18 13c5 5 10 13 12 20c4 10 5 21 5 32c0 22 -8 45 -28 57c-18 12 -39 15 -60 15h-70c3 4 6 7 10 10v-19v-149c0 -13 -20 -13 -20 0v19v149c0 6 4 10 10 10h51c37 0 79 0 105 -31c17 -19 24 -46 22 -72c-2 -20 -9 -41 -24 -56
c-22 -22 -54 -29 -84 -29h-70z" />
    <glyph glyph-name="Racute" unicode="&#x154;" 
d="M463 -1c7 -12 -10 -22 -17 -11l-3 6c-27 45 -54 91 -81 136c-22 36 -44 73 -65 109c2 -2 5 -3 8 -5h-48c3 3 6 7 10 10v-113v-138c0 -5 -5 -10 -10 -10h-88h-142c-6 0 -10 5 -10 10v16v105v169v198v187v140v55c0 5 4 10 10 10h11h158h164c26 0 51 0 77 -4
c55 -7 110 -24 155 -58c40 -31 70 -72 88 -119c19 -51 26 -108 22 -162c-3 -55 -17 -111 -49 -156c-15 -22 -33 -41 -53 -58c-16 -11 -32 -21 -49 -31c1 5 3 10 4 14l27 -45c33 -53 66 -106 98 -159c20 -32 40 -64 59 -96c4 -7 -1 -16 -8 -16h-1h-144h-131
c-13 0 -13 21 0 21h1h144h131c-3 -6 -6 -11 -9 -16c-9 15 -18 30 -28 45c-32 53 -65 107 -97 160c-20 32 -40 64 -59 96c-3 5 -1 11 3 14c11 6 21 11 31 18c43 29 75 70 93 119c19 53 22 112 15 168c-6 48 -22 97 -51 137c-30 42 -74 72 -123 88c-43 15 -88 20 -133 20h-47
h-185h-114c3 3 6 7 10 10v-16v-104v-170v-197v-188v-139v-56c-4 4 -7 7 -10 11h87h143c-4 -4 -7 -7 -10 -11v114v137c0 5 4 10 10 10h42c6 0 12 0 15 -5c1 -2 2 -4 3 -5c27 -46 54 -91 81 -137c22 -36 44 -72 65 -108zM252 473c-13 0 -13 20 0 20h27h41s23 1 34 3
c4 1 8 2 12 4c4 1 5 2 9 4c8 4 12 7 18 13c5 5 10 13 12 20c4 10 5 21 5 32c0 22 -8 45 -28 57c-18 12 -39 15 -60 15h-70c3 4 6 7 10 10v-19v-149c0 -13 -20 -13 -20 0v19v149c0 6 4 10 10 10h51c37 0 79 0 105 -31c17 -19 24 -46 22 -72c-2 -20 -9 -41 -24 -56
c-22 -22 -54 -29 -84 -29h-70z" />
    <glyph glyph-name="Rcaron" unicode="&#x158;" 
 />
    <glyph glyph-name="Rcommaaccent" unicode="&#x156;" 
 />
    <glyph glyph-name="S" unicode="S" horiz-adv-x="652" 
d="M340 -19c13 -1 13 -21 0 -20c-54 0 -109 8 -161 25c-51 16 -99 41 -142 73c-28 20 -54 43 -80 66c-4 4 -3 10 0 14c15 18 29 35 44 52c31 37 62 75 93 112c3 4 10 3 14 0c26 -22 51 -46 79 -64c49 -33 106 -54 166 -51c21 1 48 5 63 21c7 8 9 18 8 28c-2 8 -6 14 -13 19
c-5 3 -10 6 -15 8c-8 4 -14 6 -23 9c-26 9 -53 16 -80 22c-50 13 -101 26 -146 49c-49 25 -95 62 -119 112c-26 53 -31 115 -22 172c9 55 35 106 77 143c87 75 208 92 318 74c60 -9 119 -29 171 -60c30 -18 56 -41 83 -63c3 -3 4 -9 1 -12c-12 -17 -23 -34 -35 -51
c-29 -40 -57 -80 -85 -119c-4 -6 -11 -7 -16 -2c-20 18 -40 39 -65 52c-26 15 -54 24 -83 30c-28 6 -59 9 -87 3c-11 -2 -22 -5 -32 -12c-2 -2 -5 -4 -7 -7s-3 -8 -3 -12c0 -11 1 -20 9 -27l9 -6l12 -6c1 0 2 0 3 -1c-3 1 -1 1 0 0c1 0 3 -1 4 -1c3 -2 6 -3 10 -4
c19 -7 39 -13 60 -19c28 -7 58 -14 86 -23c26 -8 51 -17 75 -29c42 -20 82 -46 109 -84c30 -41 43 -91 45 -140c2 -58 -11 -116 -44 -163c-30 -43 -73 -77 -121 -98c-51 -22 -105 -30 -160 -30c-12 -1 -12 19 0 20h11c52 1 105 10 152 34c46 22 87 58 113 103
c27 49 34 107 26 162c-6 46 -24 90 -58 124c-33 32 -76 54 -118 70c-52 20 -107 29 -159 46c-15 5 -30 10 -45 16c-8 4 -16 8 -23 14c-9 8 -14 19 -15 31c-2 11 -1 25 6 35c14 19 41 26 63 29c31 3 62 0 91 -7s58 -17 84 -32c25 -14 45 -35 66 -54c-5 -1 -10 -2 -15 -2
c12 17 24 33 35 50c29 40 57 80 85 120c1 -4 1 -8 2 -12c-26 21 -52 43 -81 60c-51 30 -108 49 -166 58c-57 9 -117 8 -173 -6c-50 -13 -98 -37 -134 -73c-39 -39 -61 -91 -64 -146c-4 -56 5 -114 37 -161c16 -22 35 -40 57 -55c23 -16 48 -29 74 -38
c50 -19 102 -30 153 -44c20 -5 41 -12 60 -21c14 -6 29 -15 35 -29c5 -11 6 -26 3 -38c-4 -12 -12 -21 -22 -29c-21 -14 -48 -18 -73 -18c-61 -1 -120 20 -171 54c-30 20 -56 44 -82 67h14c-15 -17 -29 -35 -43 -52c-31 -37 -62 -75 -93 -112v14c23 -21 47 -42 72 -61
c43 -31 90 -57 140 -73c51 -17 103 -24 156 -24z" />
    <glyph glyph-name="Sacute" unicode="&#x15a;" 
d="M340 -19c13 -1 13 -21 0 -20c-54 0 -109 8 -161 25c-51 16 -99 41 -142 73c-28 20 -54 43 -80 66c-4 4 -3 10 0 14c15 18 29 35 44 52c31 37 62 75 93 112c3 4 10 3 14 0c26 -22 51 -46 79 -64c49 -33 106 -54 166 -51c21 1 48 5 63 21c7 8 9 18 8 28c-2 8 -6 14 -13 19
c-5 3 -10 6 -15 8c-8 4 -14 6 -23 9c-26 9 -53 16 -80 22c-50 13 -101 26 -146 49c-49 25 -95 62 -119 112c-26 53 -31 115 -22 172c9 55 35 106 77 143c87 75 208 92 318 74c60 -9 119 -29 171 -60c30 -18 56 -41 83 -63c3 -3 4 -9 1 -12c-12 -17 -23 -34 -35 -51
c-29 -40 -57 -80 -85 -119c-4 -6 -11 -7 -16 -2c-20 18 -40 39 -65 52c-26 15 -54 24 -83 30c-28 6 -59 9 -87 3c-11 -2 -22 -5 -32 -12c-2 -2 -5 -4 -7 -7s-3 -8 -3 -12c0 -11 1 -20 9 -27l9 -6l12 -6c1 0 2 0 3 -1c-3 1 -1 1 0 0c1 0 3 -1 4 -1c3 -2 6 -3 10 -4
c19 -7 39 -13 60 -19c28 -7 58 -14 86 -23c26 -8 51 -17 75 -29c42 -20 82 -46 109 -84c30 -41 43 -91 45 -140c2 -58 -11 -116 -44 -163c-30 -43 -73 -77 -121 -98c-51 -22 -105 -30 -160 -30c-12 -1 -12 19 0 20h11c52 1 105 10 152 34c46 22 87 58 113 103
c27 49 34 107 26 162c-6 46 -24 90 -58 124c-33 32 -76 54 -118 70c-52 20 -107 29 -159 46c-15 5 -30 10 -45 16c-8 4 -16 8 -23 14c-9 8 -14 19 -15 31c-2 11 -1 25 6 35c14 19 41 26 63 29c31 3 62 0 91 -7s58 -17 84 -32c25 -14 45 -35 66 -54c-5 -1 -10 -2 -15 -2
c12 17 24 33 35 50c29 40 57 80 85 120c1 -4 1 -8 2 -12c-26 21 -52 43 -81 60c-51 30 -108 49 -166 58c-57 9 -117 8 -173 -6c-50 -13 -98 -37 -134 -73c-39 -39 -61 -91 -64 -146c-4 -56 5 -114 37 -161c16 -22 35 -40 57 -55c23 -16 48 -29 74 -38
c50 -19 102 -30 153 -44c20 -5 41 -12 60 -21c14 -6 29 -15 35 -29c5 -11 6 -26 3 -38c-4 -12 -12 -21 -22 -29c-21 -14 -48 -18 -73 -18c-61 -1 -120 20 -171 54c-30 20 -56 44 -82 67h14c-15 -17 -29 -35 -43 -52c-31 -37 -62 -75 -93 -112v14c23 -21 47 -42 72 -61
c43 -31 90 -57 140 -73c51 -17 103 -24 156 -24z" />
    <glyph glyph-name="Scaron" unicode="&#x160;" 
 />
    <glyph glyph-name="Scedilla" unicode="&#x15e;" 
d="M340 -19c13 -1 13 -21 0 -20c-54 0 -109 8 -161 25c-51 16 -99 41 -142 73c-28 20 -54 43 -80 66c-4 4 -3 10 0 14c15 18 29 35 44 52c31 37 62 75 93 112c3 4 10 3 14 0c26 -22 51 -46 79 -64c49 -33 106 -54 166 -51c21 1 48 5 63 21c7 8 9 18 8 28c-2 8 -6 14 -13 19
c-5 3 -10 6 -15 8c-8 4 -14 6 -23 9c-26 9 -53 16 -80 22c-50 13 -101 26 -146 49c-49 25 -95 62 -119 112c-26 53 -31 115 -22 172c9 55 35 106 77 143c87 75 208 92 318 74c60 -9 119 -29 171 -60c30 -18 56 -41 83 -63c3 -3 4 -9 1 -12c-12 -17 -23 -34 -35 -51
c-29 -40 -57 -80 -85 -119c-4 -6 -11 -7 -16 -2c-20 18 -40 39 -65 52c-26 15 -54 24 -83 30c-28 6 -59 9 -87 3c-11 -2 -22 -5 -32 -12c-2 -2 -5 -4 -7 -7s-3 -8 -3 -12c0 -11 1 -20 9 -27l9 -6l12 -6c1 0 2 0 3 -1c-3 1 -1 1 0 0c1 0 3 -1 4 -1c3 -2 6 -3 10 -4
c19 -7 39 -13 60 -19c28 -7 58 -14 86 -23c26 -8 51 -17 75 -29c42 -20 82 -46 109 -84c30 -41 43 -91 45 -140c2 -58 -11 -116 -44 -163c-30 -43 -73 -77 -121 -98c-51 -22 -105 -30 -160 -30c-12 -1 -12 19 0 20h11c52 1 105 10 152 34c46 22 87 58 113 103
c27 49 34 107 26 162c-6 46 -24 90 -58 124c-33 32 -76 54 -118 70c-52 20 -107 29 -159 46c-15 5 -30 10 -45 16c-8 4 -16 8 -23 14c-9 8 -14 19 -15 31c-2 11 -1 25 6 35c14 19 41 26 63 29c31 3 62 0 91 -7s58 -17 84 -32c25 -14 45 -35 66 -54c-5 -1 -10 -2 -15 -2
c12 17 24 33 35 50c29 40 57 80 85 120c1 -4 1 -8 2 -12c-26 21 -52 43 -81 60c-51 30 -108 49 -166 58c-57 9 -117 8 -173 -6c-50 -13 -98 -37 -134 -73c-39 -39 -61 -91 -64 -146c-4 -56 5 -114 37 -161c16 -22 35 -40 57 -55c23 -16 48 -29 74 -38
c50 -19 102 -30 153 -44c20 -5 41 -12 60 -21c14 -6 29 -15 35 -29c5 -11 6 -26 3 -38c-4 -12 -12 -21 -22 -29c-21 -14 -48 -18 -73 -18c-61 -1 -120 20 -171 54c-30 20 -56 44 -82 67h14c-15 -17 -29 -35 -43 -52c-31 -37 -62 -75 -93 -112v14c23 -21 47 -42 72 -61
c43 -31 90 -57 140 -73c51 -17 103 -24 156 -24z" />
    <glyph glyph-name="T" unicode="T" horiz-adv-x="410" 
d="M102 10c0 -13 -20 -13 -20 0v65v163v197v166v70c3 -4 6 -7 10 -10h-65h-146c-6 0 -10 4 -10 10v30v150c0 5 4 10 10 10h54h159h197h167h71c6 0 10 -5 10 -10v-30v-150c0 -6 -4 -10 -10 -10h-65h-146c4 3 7 6 10 10v-65v-163v-197v-166v-70c0 -5 -4 -10 -10 -10h-84h-142
c-13 0 -13 20 0 20h84h142c-3 -3 -6 -7 -10 -10v65v163v197v166v70c0 5 5 10 10 10h65h146c-3 -4 -6 -7 -10 -10v30v150l10 -10h-54h-159h-197h-168h-70l10 10v-30v-150c-4 3 -7 6 -10 10h65h146c5 0 10 -5 10 -10v-65v-163v-197v-166v-70z" />
    <glyph glyph-name="Tbar" unicode="&#x166;" 
d="M102 10c0 -13 -20 -13 -20 0v65v163v197v166v70c3 -4 6 -7 10 -10h-65h-146c-6 0 -10 4 -10 10v30v150c0 5 4 10 10 10h54h159h197h167h71c6 0 10 -5 10 -10v-30v-150c0 -6 -4 -10 -10 -10h-65h-146c4 3 7 6 10 10v-65v-163v-197v-166v-70c0 -5 -4 -10 -10 -10h-84h-142
c-13 0 -13 20 0 20h84h142c-3 -3 -6 -7 -10 -10v65v163v197v166v70c0 5 5 10 10 10h65h146c-3 -4 -6 -7 -10 -10v30v150l10 -10h-54h-159h-197h-168h-70l10 10v-30v-150c-4 3 -7 6 -10 10h65h146c5 0 10 -5 10 -10v-65v-163v-197v-166v-70z" />
    <glyph glyph-name="Tcaron" unicode="&#x164;" 
 />
    <glyph glyph-name="uni0162" unicode="&#x162;" 
d="M102 10c0 -13 -20 -13 -20 0v65v163v197v166v70c3 -4 6 -7 10 -10h-65h-146c-6 0 -10 4 -10 10v30v150c0 5 4 10 10 10h54h159h197h167h71c6 0 10 -5 10 -10v-30v-150c0 -6 -4 -10 -10 -10h-65h-146c4 3 7 6 10 10v-65v-163v-197v-166v-70c0 -5 -4 -10 -10 -10h-84h-142
c-13 0 -13 20 0 20h84h142c-3 -3 -6 -7 -10 -10v65v163v197v166v70c0 5 5 10 10 10h65h146c-3 -4 -6 -7 -10 -10v30v150l10 -10h-54h-159h-197h-168h-70l10 10v-30v-150c-4 3 -7 6 -10 10h65h146c5 0 10 -5 10 -10v-65v-163v-197v-166v-70z" />
    <glyph glyph-name="U" unicode="U" horiz-adv-x="736" 
d="M366 -2c13 0 13 -20 0 -20c-42 0 -84 5 -124 17c-47 14 -92 38 -128 72c-40 38 -68 86 -84 139c-14 45 -20 93 -20 141v34v165v189v91c0 5 4 10 10 10h89h142c5 0 10 -5 10 -10v-27v-159v-190v-93c0 -43 6 -95 40 -125c18 -15 42 -21 65 -21c24 1 47 6 66 20
c37 29 44 84 44 128v26v158v190v93c0 5 4 10 10 10h88h142c5 0 10 -5 10 -10v-16v-145v-194v-121c0 -83 -17 -170 -67 -239c-31 -43 -73 -78 -122 -100c-54 -23 -112 -33 -171 -33c-13 0 -13 20 0 20c39 0 79 4 117 15c52 15 101 42 138 82c32 35 54 77 68 123
c12 42 17 85 17 129v34v165v189v91c3 -4 6 -7 10 -10h-88h-142c3 3 7 6 10 10v-40v-169v-185v-58c0 -20 0 -39 -3 -58c-6 -47 -26 -94 -72 -114c-25 -10 -52 -13 -79 -9c-23 4 -46 14 -62 32c-40 44 -39 105 -39 160v158v190v93c3 -4 7 -7 10 -10h-89h-142c3 3 7 6 10 10
v-11v-137v-194v-130c0 -30 1 -59 6 -89c9 -54 29 -107 63 -151c29 -39 69 -68 114 -87c48 -21 101 -29 153 -29z" />
    <glyph glyph-name="Uacute" unicode="&#xda;" 
 />
    <glyph glyph-name="Ucircumflex" unicode="&#xdb;" 
 />
    <glyph glyph-name="Udieresis" unicode="&#xdc;" horiz-adv-x="757" 
d="M376 -26c13 0 13 -20 0 -20c-57 0 -115 9 -168 33c-45 19 -86 49 -117 87c-36 44 -59 96 -70 152c-8 36 -11 73 -11 111v42v171v188v89c0 5 4 10 10 10h98h140c5 0 10 -5 10 -10v-56v-177v-182v-54c0 -21 0 -42 3 -63c7 -41 25 -84 69 -96c44 -13 99 -3 124 37
c29 43 26 97 26 146v165v189v91c0 5 4 10 10 10h96h141c5 0 10 -5 10 -10v-30v-158v-193v-111c0 -88 -19 -180 -74 -251c-32 -43 -75 -76 -124 -97c-55 -24 -114 -33 -173 -33c-12 0 -12 20 0 20c57 0 115 9 167 32c47 21 89 54 119 96c28 40 46 86 56 134c9 48 9 95 9 143
v171v188v89c3 -4 6 -7 10 -10h-97h-140l10 10v-73v-184v-174c0 -46 3 -94 -13 -138c-7 -21 -19 -41 -36 -56c-19 -16 -42 -25 -67 -27c-26 -3 -54 0 -77 12c-20 10 -36 26 -46 45c-25 46 -23 99 -23 150v165v189v91c3 -4 7 -7 10 -10h-98h-140c3 3 7 6 10 10v-23v-151v-194
v-121c0 -89 18 -182 77 -252c31 -37 70 -66 115 -84c49 -20 102 -28 154 -28zM335 891c13 0 13 -20 0 -20h-14h-148c-5 0 -10 5 -10 10v14v148c0 5 5 10 10 10h14h148c5 0 10 -5 10 -10v-14v-148c0 -13 -20 -13 -20 0v14v148l10 -10h-14h-148l10 10v-14v-148l-10 10h14h148z
M581 891c13 0 13 -20 0 -20h-14h-148c-6 0 -10 5 -10 10v14v148c0 5 4 10 10 10h14h148c5 0 10 -5 10 -10v-14v-148c0 -13 -20 -13 -20 0v14v148l10 -10h-14h-148l10 10v-14v-148l-10 10h14h148z" />
    <glyph glyph-name="Ugrave" unicode="&#xd9;" 
 />
    <glyph glyph-name="Uhungarumlaut" unicode="&#x170;" 
 />
    <glyph glyph-name="Umacron" unicode="&#x16a;" 
 />
    <glyph glyph-name="Uogonek" unicode="&#x172;" 
 />
    <glyph glyph-name="Uring" unicode="&#x16e;" 
d="M366 -2c13 0 13 -20 0 -20c-42 0 -84 5 -124 17c-47 14 -92 38 -128 72c-40 38 -68 86 -84 139c-14 45 -20 93 -20 141v34v165v189v91c0 5 4 10 10 10h89h142c5 0 10 -5 10 -10v-27v-159v-190v-93c0 -43 6 -95 40 -125c18 -15 42 -21 65 -21c24 1 47 6 66 20
c37 29 44 84 44 128v26v158v190v93c0 5 4 10 10 10h88h142c5 0 10 -5 10 -10v-16v-145v-194v-121c0 -83 -17 -170 -67 -239c-31 -43 -73 -78 -122 -100c-54 -23 -112 -33 -171 -33c-13 0 -13 20 0 20c39 0 79 4 117 15c52 15 101 42 138 82c32 35 54 77 68 123
c12 42 17 85 17 129v34v165v189v91c3 -4 6 -7 10 -10h-88h-142c3 3 7 6 10 10v-40v-169v-185v-58c0 -20 0 -39 -3 -58c-6 -47 -26 -94 -72 -114c-25 -10 -52 -13 -79 -9c-23 4 -46 14 -62 32c-40 44 -39 105 -39 160v158v190v93c3 -4 7 -7 10 -10h-89h-142c3 3 7 6 10 10
v-11v-137v-194v-130c0 -30 1 -59 6 -89c9 -54 29 -107 63 -151c29 -39 69 -68 114 -87c48 -21 101 -29 153 -29z" />
    <glyph glyph-name="V" unicode="V" horiz-adv-x="593" 
d="M176 6c2 -5 -2 -11 -7 -13c-6 -1 -11 2 -12 7c-4 10 -7 19 -10 28l-39 111c-20 56 -39 111 -59 166c-22 62 -44 125 -65 187c-21 58 -41 116 -62 175l-45 129c-6 17 -12 34 -18 50c-2 7 3 13 9 13h119h136c4 0 8 -3 9 -7c8 -28 17 -55 25 -82c18 -59 35 -117 53 -176
c17 -58 35 -117 53 -175c8 -27 16 -53 24 -80h-20c9 28 17 55 25 82c18 59 36 117 54 176c17 58 35 117 53 175c8 27 16 53 24 80c1 4 5 7 10 7h113h137c6 0 12 -6 10 -13c-3 -9 -7 -18 -10 -27l-39 -111c-19 -55 -38 -111 -58 -166c-22 -62 -43 -124 -65 -187
c-21 -58 -41 -116 -62 -175l-45 -129l-18 -51c-1 -4 -5 -7 -9 -7h-77h-144c-13 0 -13 20 0 20h76h145c-4 -2 -7 -5 -10 -7c3 9 6 18 10 27l39 111c19 55 38 111 58 166c21 62 43 124 65 187c21 58 41 116 62 175l45 129l18 51c3 -5 6 -9 9 -13h-113h-137c3 2 6 5 9 7
c-8 -27 -16 -54 -25 -81c-17 -59 -35 -118 -53 -176c-18 -59 -35 -117 -53 -175c-8 -27 -16 -53 -24 -80c-3 -9 -17 -9 -20 0c-8 27 -16 55 -24 82c-18 58 -36 117 -53 176c-18 58 -35 116 -53 175c-8 26 -16 53 -24 79c3 -2 6 -5 10 -7h-118h-137c4 4 7 8 10 13
c3 -10 7 -19 10 -28l39 -111c19 -56 39 -111 58 -166c22 -62 44 -125 66 -187c21 -58 41 -116 62 -175l45 -129c6 -17 12 -34 18 -50z" />
    <glyph glyph-name="W" unicode="W" horiz-adv-x="1148" 
d="M756 8c4 -12 -16 -17 -20 -5c-8 26 -17 52 -26 78c-27 80 -54 159 -80 238l-48 141h19c-8 -27 -17 -53 -26 -79c-27 -79 -54 -159 -81 -238c-16 -47 -32 -93 -48 -140c-2 -4 -5 -8 -10 -8h-24h-199c-4 0 -8 4 -9 8c-11 31 -21 61 -32 92c-23 70 -47 140 -71 210
c-28 83 -57 166 -85 249c-23 69 -47 139 -71 208c-9 29 -19 58 -29 87c-2 6 3 13 9 13h41h200c4 0 8 -3 9 -8c11 -31 21 -63 31 -94c26 -81 52 -161 78 -242l45 -138h-20c12 33 23 65 34 98c28 80 55 160 83 240c15 46 31 91 47 136c1 5 5 8 9 8h20h198c5 0 8 -3 10 -8
c11 -32 22 -65 33 -97c28 -80 55 -161 83 -241c16 -45 31 -90 47 -136h-19c10 32 20 63 30 95c26 80 52 161 78 242c15 45 30 91 45 137c1 5 5 8 9 8h43h199c7 0 12 -7 10 -13c-10 -31 -21 -61 -31 -92l-72 -210c-28 -83 -56 -166 -85 -249c-23 -70 -47 -139 -70 -208
l-30 -87c-1 -4 -5 -8 -9 -8h-26h-199c-13 0 -13 21 0 21h25h200c-4 -3 -7 -5 -10 -8c10 31 21 61 31 92l72 210l84 249c24 70 48 139 71 208l30 87l9 -12h-42h-200c4 2 7 5 10 7c-10 -32 -20 -63 -30 -95c-27 -80 -53 -161 -79 -241c-14 -46 -29 -92 -44 -138
c-3 -10 -16 -10 -19 0c-12 32 -23 65 -34 98c-28 80 -55 160 -83 240c-15 45 -31 91 -47 136c4 -2 7 -5 10 -7h-20h-198c3 2 7 5 10 7c-11 -33 -23 -65 -34 -98c-27 -80 -55 -160 -82 -240c-16 -45 -32 -91 -47 -136c-4 -10 -17 -10 -20 0c-10 31 -20 63 -30 95
c-26 80 -52 161 -78 241l-45 138c3 -2 7 -5 10 -7h-41h-200c4 4 7 8 10 12c11 -30 21 -61 31 -92l72 -210c28 -83 56 -166 85 -249c23 -69 47 -138 70 -208l30 -87c-3 3 -6 5 -10 8h24h199c-3 -3 -6 -5 -9 -8c8 26 17 52 26 78c27 80 54 159 81 239c16 46 32 93 48 140
c3 9 16 9 19 0l27 -78c27 -80 54 -159 80 -239c16 -46 32 -93 48 -140z" />
    <glyph glyph-name="Wacute" unicode="&#x1e82;" 
 />
    <glyph glyph-name="Wcircumflex" unicode="&#x174;" 
 />
    <glyph glyph-name="Wdieresis" unicode="&#x1e84;" 
 />
    <glyph glyph-name="Wgrave" unicode="&#x1e80;" 
 />
    <glyph glyph-name="X" unicode="X" horiz-adv-x="786" 
d="M540 13c7 -11 -11 -21 -17 -10c-1 2 -2 5 -4 7c-25 48 -51 95 -77 143c-20 37 -39 74 -59 110h17c-1 -2 -3 -5 -4 -7c-26 -48 -52 -95 -79 -143c-20 -37 -40 -73 -60 -110c-2 -3 -5 -5 -9 -5h-1h-147h-130c-7 0 -13 9 -9 15c8 12 15 24 23 35c30 48 60 95 90 142l102 159
l48 75v-10c-8 15 -17 29 -25 44c-29 49 -58 99 -87 149c-32 54 -63 108 -95 161c-15 26 -29 51 -44 76c-4 7 1 15 9 15h1h148h130c4 0 7 -2 9 -5c1 -1 1 -2 2 -3c24 -45 48 -90 72 -136c19 -37 39 -75 59 -113h-17c1 1 1 2 2 4c24 45 49 90 73 135c20 38 41 76 61 113
c2 3 5 5 9 5h127h135c7 0 12 -8 8 -15c-7 -13 -14 -26 -22 -39c-27 -50 -55 -99 -82 -148c-31 -55 -61 -110 -92 -164c-14 -26 -29 -52 -43 -78v10c8 -12 15 -24 23 -36c30 -47 60 -95 91 -142c33 -53 67 -106 101 -159l48 -75c4 -6 -1 -15 -9 -15h-3h-152h-129
c-13 0 -13 20 0 20h3h153h128c-3 -5 -5 -10 -8 -15c-8 12 -16 24 -23 36c-31 48 -61 95 -91 142c-34 53 -68 106 -101 159l-48 75c-2 3 -2 7 0 10c7 13 14 26 22 40c27 49 55 98 82 148c31 55 61 109 92 164c14 26 29 52 43 77l9 -15h-128h-134c3 2 5 4 8 5
c0 -1 -1 -2 -2 -3c-24 -45 -48 -91 -73 -136c-20 -38 -40 -75 -61 -113c-3 -6 -13 -7 -17 0c0 1 -1 2 -2 3c-23 46 -47 91 -71 136c-20 38 -40 76 -60 113c3 -1 6 -3 8 -5h-1h-148h-130c2 5 5 10 8 15c9 -14 17 -29 26 -43c29 -50 58 -100 87 -149c31 -54 63 -108 94 -162
c15 -25 30 -51 44 -76c2 -3 2 -7 0 -10c-7 -12 -15 -24 -22 -35c-30 -48 -61 -95 -91 -142c-34 -53 -67 -106 -101 -159l-48 -75l-9 15h1h147h130c-3 -2 -5 -3 -8 -5c1 3 3 5 4 8c26 47 52 95 78 142c20 37 41 74 61 111c3 6 13 6 17 0c1 -3 3 -5 4 -8
c26 -47 51 -95 77 -142c20 -37 40 -74 59 -111z" />
    <glyph glyph-name="Y" unicode="Y" horiz-adv-x="411" 
d="M121 396c8 -11 -10 -21 -17 -11v1c-16 25 -33 51 -49 76c-34 52 -67 104 -101 156c-33 51 -65 102 -98 153l-45 69c-4 6 1 15 9 15h1h146c43 -1 87 -1 130 -1c4 0 8 -2 9 -5c1 -1 1 -2 2 -4l63 -141c18 -38 35 -77 53 -116c-7 -1 -13 -2 -19 -3c1 1 1 2 1 3
c19 46 38 92 58 138c16 40 32 80 49 120c2 4 5 7 10 7h136h133c7 0 12 -8 8 -15c-12 -21 -24 -42 -37 -64l-90 -156c-31 -53 -61 -107 -92 -160c-14 -24 -28 -49 -42 -73c0 2 0 3 1 5c1 -31 1 -61 2 -92c2 -64 3 -128 5 -192c0 -35 1 -70 2 -106c0 -5 -5 -10 -10 -10h-83
h-143c-5 0 -10 5 -10 10v93v192v106c0 12 20 12 20 0v-94v-192v-105l-10 10h83h143c-3 -3 -7 -6 -10 -10c-1 28 -1 55 -2 82c-1 64 -3 128 -4 192c-1 38 -2 77 -3 116c0 3 1 5 3 8c2 4 5 8 7 12c9 17 19 33 28 49c30 52 61 105 91 157c30 53 61 106 92 159
c14 25 28 49 42 73l9 -15h-137h-132c3 2 6 5 9 7c0 -1 0 -1 -1 -2l-57 -138c-16 -40 -33 -80 -49 -120c-2 -4 -5 -7 -10 -7c-3 0 -7 2 -9 5c0 1 -1 2 -1 4c-22 47 -43 94 -64 141c-17 38 -35 77 -52 116c3 -1 5 -3 8 -5h-1c-49 0 -97 0 -146 1h-130c3 5 5 10 8 15
c17 -26 33 -51 50 -77c33 -52 67 -103 100 -155l99 -153c15 -23 30 -46 44 -69z" />
    <glyph glyph-name="Yacute" unicode="&#xdd;" 
 />
    <glyph glyph-name="Ycircumflex" unicode="&#x176;" 
 />
    <glyph glyph-name="Ydieresis" unicode="&#x178;" 
 />
    <glyph glyph-name="Ygrave" unicode="&#x1ef2;" 
 />
    <glyph glyph-name="Z" unicode="Z" horiz-adv-x="674" 
d="M29 4c0 -13 -20 -13 -20 0v94v86v15c0 4 4 8 6 11c23 29 46 59 68 88l117 150c36 47 73 94 109 141c17 21 33 42 49 63c3 -5 5 -11 7 -17h-37h-182h-116c-6 0 -10 5 -10 10v60v147c0 5 4 10 10 10h36h149h196h171h73c6 0 10 -5 10 -10v-90v-81c0 -5 1 -10 -3 -14
c-2 -3 -4 -5 -6 -7c-24 -32 -49 -63 -74 -94c-40 -50 -79 -100 -119 -150c-37 -47 -74 -93 -110 -140c-16 -20 -33 -40 -49 -61c-2 6 -5 12 -7 17h59h187h112c6 0 10 -4 10 -10v-74v-144c0 -6 -4 -11 -10 -11h-44h-154h-196h-170h-72c-13 0 -13 21 0 21h45h153h196h170h72
c-3 -4 -7 -7 -10 -10v74v144c3 -3 7 -6 10 -10h-58h-188h-112c-9 0 -12 11 -7 17c2 3 4 5 6 8c25 31 49 62 74 94c40 50 80 100 119 150c37 46 74 92 111 139c16 20 32 41 48 61c-1 -2 -2 -5 -3 -7v28v150l10 -10h-36h-149h-196h-171h-73l10 10v-60v-147l-10 10h37h182h116
c10 0 12 -10 7 -17c-1 -1 -2 -3 -3 -4c-22 -29 -45 -58 -68 -88c-39 -50 -77 -100 -116 -149c-37 -48 -73 -95 -110 -142c-16 -21 -32 -42 -49 -63c1 2 2 5 3 7v-47v-148z" />
    <glyph glyph-name="Zacute" unicode="&#x179;" 
d="M29 4c0 -13 -20 -13 -20 0v94v86v15c0 4 4 8 6 11c23 29 46 59 68 88l117 150c36 47 73 94 109 141c17 21 33 42 49 63c3 -5 5 -11 7 -17h-37h-182h-116c-6 0 -10 5 -10 10v60v147c0 5 4 10 10 10h36h149h196h171h73c6 0 10 -5 10 -10v-90v-81c0 -5 1 -10 -3 -14
c-2 -3 -4 -5 -6 -7c-24 -32 -49 -63 -74 -94c-40 -50 -79 -100 -119 -150c-37 -47 -74 -93 -110 -140c-16 -20 -33 -40 -49 -61c-2 6 -5 12 -7 17h59h187h112c6 0 10 -4 10 -10v-74v-144c0 -6 -4 -11 -10 -11h-44h-154h-196h-170h-72c-13 0 -13 21 0 21h45h153h196h170h72
c-3 -4 -7 -7 -10 -10v74v144c3 -3 7 -6 10 -10h-58h-188h-112c-9 0 -12 11 -7 17c2 3 4 5 6 8c25 31 49 62 74 94c40 50 80 100 119 150c37 46 74 92 111 139c16 20 32 41 48 61c-1 -2 -2 -5 -3 -7v28v150l10 -10h-36h-149h-196h-171h-73l10 10v-60v-147l-10 10h37h182h116
c10 0 12 -10 7 -17c-1 -1 -2 -3 -3 -4c-22 -29 -45 -58 -68 -88c-39 -50 -77 -100 -116 -149c-37 -48 -73 -95 -110 -142c-16 -21 -32 -42 -49 -63c1 2 2 5 3 7v-47v-148z" />
    <glyph glyph-name="Zcaron" unicode="&#x17d;" 
 />
    <glyph glyph-name="Zdotaccent" unicode="&#x17b;" 
d="M29 4c0 -13 -20 -13 -20 0v94v86v15c0 4 4 8 6 11c23 29 46 59 68 88l117 150c36 47 73 94 109 141c17 21 33 42 49 63c3 -5 5 -11 7 -17h-37h-182h-116c-6 0 -10 5 -10 10v60v147c0 5 4 10 10 10h36h149h196h171h73c6 0 10 -5 10 -10v-90v-81c0 -5 1 -10 -3 -14
c-2 -3 -4 -5 -6 -7c-24 -32 -49 -63 -74 -94c-40 -50 -79 -100 -119 -150c-37 -47 -74 -93 -110 -140c-16 -20 -33 -40 -49 -61c-2 6 -5 12 -7 17h59h187h112c6 0 10 -4 10 -10v-74v-144c0 -6 -4 -11 -10 -11h-44h-154h-196h-170h-72c-13 0 -13 21 0 21h45h153h196h170h72
c-3 -4 -7 -7 -10 -10v74v144c3 -3 7 -6 10 -10h-58h-188h-112c-9 0 -12 11 -7 17c2 3 4 5 6 8c25 31 49 62 74 94c40 50 80 100 119 150c37 46 74 92 111 139c16 20 32 41 48 61c-1 -2 -2 -5 -3 -7v28v150l10 -10h-36h-149h-196h-171h-73l10 10v-60v-147l-10 10h37h182h116
c10 0 12 -10 7 -17c-1 -1 -2 -3 -3 -4c-22 -29 -45 -58 -68 -88c-39 -50 -77 -100 -116 -149c-37 -48 -73 -95 -110 -142c-16 -21 -32 -42 -49 -63c1 2 2 5 3 7v-47v-148z" />
    <glyph glyph-name="a" unicode="a" 
d="M359 20c5 2 11 -3 12 -7c2 -6 -2 -11 -7 -13c-13 -5 -25 -10 -39 -13c-17 -3 -36 -4 -53 -3c-60 3 -119 23 -166 60c-45 35 -76 84 -93 138c-32 106 -6 231 74 310c37 36 85 63 137 74c26 5 53 7 80 5c12 0 23 -1 34 -4c9 -3 17 -6 26 -9c-4 -4 -8 -7 -12 -10v38
c0 5 4 10 10 10h62c49 0 98 1 147 1c5 0 10 -5 10 -10v-17v-131v-194v-175v-76c0 -6 -5 -10 -10 -10h-63h-146c-6 0 -10 4 -10 10v16c0 13 20 13 20 0v-16c-4 3 -7 6 -10 10h62h147l-10 -10v17v131v193v175v77c3 -4 7 -7 10 -10c-21 0 -42 0 -63 -1h-146c3 3 6 7 10 10v-38
c0 -6 -7 -12 -13 -10c-15 6 -31 12 -46 13c-52 4 -104 -4 -150 -28s-83 -61 -108 -107c-53 -98 -46 -226 22 -315c34 -44 84 -75 137 -89c29 -7 59 -9 88 -8c20 1 38 8 57 16zM303 373c13 1 13 -19 0 -20c-17 0 -34 -4 -46 -16c-13 -10 -21 -25 -25 -41c-4 -17 -5 -36 0 -54
c4 -14 10 -29 22 -38c20 -15 48 -19 72 -12c10 4 22 9 30 18s13 21 16 33c7 25 4 54 -10 77c-13 21 -35 33 -59 33c-13 1 -13 21 0 20c13 0 26 -2 38 -8c10 -5 21 -11 27 -20c17 -20 27 -46 28 -72s-6 -51 -22 -72c-15 -20 -40 -30 -65 -32c-26 -1 -54 6 -74 25
c-18 18 -26 47 -26 72c0 27 7 55 24 76c18 21 43 31 70 31z" />
    <glyph glyph-name="aacute" unicode="&#xe1;" horiz-adv-x="595" 
d="M478 789c4 3 11 1 13 -4c3 -5 1 -10 -3 -13c-31 -23 -62 -45 -93 -67c-44 -31 -87 -62 -130 -93c-5 -3 -8 -6 -14 -4c-11 2 -21 5 -32 7c-23 6 -47 12 -70 17c-8 2 -11 12 -5 17c36 32 71 63 107 94c22 20 44 39 66 59c7 5 13 11 20 17c4 4 8 8 15 7
c45 -12 89 -24 133 -36c13 -3 8 -23 -5 -19h-1c-44 12 -89 24 -133 36c3 0 6 1 10 2c-33 -28 -65 -57 -97 -85c-34 -30 -67 -59 -101 -89c-1 6 -3 11 -4 17c34 -9 69 -17 104 -25c-3 -1 -5 -1 -8 -1c1 0 1 0 2 1c40 29 80 58 120 86c36 26 71 51 106 76zM356 27
c5 2 11 -2 12 -7c2 -6 -2 -11 -7 -13c-12 -4 -24 -9 -37 -12c-15 -4 -31 -4 -47 -4c-59 1 -119 19 -166 55c-45 34 -78 81 -95 135c-35 105 -12 232 68 311c37 38 85 65 137 76c27 5 54 7 81 6c11 -1 22 -2 33 -5c9 -2 18 -5 26 -9c-4 -3 -8 -6 -12 -10v38c0 6 4 10 10 10
h61c49 1 97 1 146 1c6 0 10 -5 10 -10v-14v-128v-193v-176v-77c0 -5 -4 -10 -10 -10h-61h-146c-6 0 -10 5 -10 10v16c0 13 20 13 20 0v-16c-4 3 -7 7 -10 10h61h146c-3 -3 -6 -7 -10 -10v14v128v193v176v77c4 -3 7 -7 10 -10h-61c-49 0 -98 -1 -146 -1c3 4 6 7 10 10v-38
c0 -5 -7 -12 -13 -9c-13 5 -27 10 -40 12c-12 1 -24 1 -37 1s-26 -1 -39 -3c-25 -4 -50 -11 -73 -23c-46 -23 -85 -59 -110 -104c-54 -98 -49 -226 19 -316c33 -43 82 -74 135 -88c29 -7 58 -10 88 -9c20 2 38 8 57 16zM300 378c13 0 13 -20 0 -20c-15 -1 -32 -5 -44 -15
c-12 -11 -21 -25 -25 -40c-4 -18 -5 -36 -1 -54c3 -14 9 -29 21 -38c19 -16 47 -20 70 -14c10 3 23 8 31 17c8 10 14 21 17 33c7 26 4 55 -10 78c-13 21 -34 32 -59 33c-12 0 -12 20 0 20c13 -1 25 -3 37 -8c10 -5 21 -11 28 -20c17 -20 26 -45 27 -70c2 -26 -5 -52 -21 -73
c-14 -20 -40 -30 -64 -32c-26 -2 -54 6 -73 24s-26 47 -27 72c0 27 7 54 25 75c17 21 42 31 68 32z" />
    <glyph glyph-name="abreve" unicode="&#x103;" 
 />
    <glyph glyph-name="acircumflex" unicode="&#xe2;" horiz-adv-x="595" 
d="M356 26c5 2 11 -2 12 -7c2 -6 -2 -11 -7 -13c-12 -4 -24 -9 -37 -12c-15 -4 -31 -4 -47 -4c-59 1 -119 19 -166 55c-45 34 -78 81 -95 135c-35 105 -12 232 68 311c37 38 85 65 137 76c27 5 54 7 81 6c11 -1 22 -2 33 -5c9 -2 18 -5 26 -9l-12 -9v37c0 6 4 10 10 10h61
c49 1 97 1 146 1c6 0 10 -5 10 -10v-14v-128v-193v-176v-77c0 -5 -4 -10 -10 -10h-61h-146c-6 0 -10 5 -10 10v16c0 13 20 13 20 0v-16c-4 3 -7 7 -10 10h61h146c-3 -3 -6 -7 -10 -10v14v128v193v176v77c4 -3 7 -7 10 -10h-61c-49 0 -97 -1 -146 -1c3 4 6 7 10 10v-37
c0 -6 -7 -13 -13 -10c-13 5 -27 10 -40 12c-12 1 -24 1 -37 1s-26 -1 -39 -3c-25 -4 -50 -11 -73 -23c-46 -23 -85 -59 -110 -104c-54 -98 -49 -226 19 -316c33 -43 82 -74 135 -88c29 -7 58 -10 88 -9c20 2 38 8 57 16zM300 377c13 0 13 -20 0 -20c-15 -1 -32 -5 -44 -15
c-12 -11 -21 -25 -25 -40c-4 -18 -5 -36 -1 -54c3 -14 9 -29 21 -38c19 -16 47 -20 70 -14c10 3 23 8 31 17c8 10 14 21 17 33c7 26 4 55 -10 78c-13 21 -34 32 -59 33c-12 0 -12 20 0 20c13 -1 26 -3 37 -8c10 -5 21 -11 29 -20c16 -20 25 -45 26 -70c2 -26 -5 -52 -21 -73
c-14 -20 -40 -30 -64 -32c-26 -2 -54 6 -73 24s-26 47 -27 72c0 27 7 54 25 75c17 21 42 31 68 32zM356 661c8 -10 -6 -24 -15 -15c-20 24 -41 47 -61 70h14c-11 -13 -22 -25 -33 -37l-21 -24c-3 -4 -8 -12 -14 -12h-135c-9 0 -13 11 -7 18c33 34 66 69 99 104
c16 16 32 33 48 50l3 3c4 4 8 3 12 3h42h40c4 0 7 0 11 -3c1 -1 2 -2 3 -4c17 -16 33 -33 50 -50c33 -35 67 -69 100 -103c6 -7 2 -18 -7 -18h-136c-13 0 -13 20 0 20h136c-2 -5 -5 -11 -7 -17c-18 19 -36 37 -53 55c-34 34 -67 69 -101 103c3 -1 5 -2 7 -3h-90c3 1 5 2 8 3
c-17 -17 -34 -35 -51 -53c-33 -35 -67 -70 -100 -105c-2 6 -5 12 -7 17h135c-3 -1 -5 -2 -7 -2c20 23 40 46 61 69c3 4 11 4 14 0c21 -23 41 -46 62 -69z" />
    <glyph glyph-name="adieresis" unicode="&#xe4;" 
d="M359 22c5 2 11 -2 12 -7c2 -6 -1 -10 -7 -12c-12 -5 -25 -11 -39 -14c-17 -3 -35 -3 -53 -3c-60 3 -119 23 -166 60c-44 35 -76 84 -92 138c-32 106 -7 231 73 310c37 37 85 63 137 74c26 5 54 7 81 6c11 -1 22 -2 33 -5c9 -2 18 -6 26 -9c-4 -3 -8 -7 -12 -10v38
c0 6 4 10 10 10c21 0 42 0 63 1h146c6 0 10 -5 10 -10v-17v-131v-193v-175v-77c0 -5 -4 -10 -10 -10h-63h-146c-6 0 -10 5 -10 10v16c0 13 20 13 20 0v-16c-4 3 -7 7 -10 10h63h146l-10 -10v17v131v193v176v76l10 -10h-63c-48 0 -97 -1 -146 -1c3 4 6 7 10 10v-38
c0 -6 -7 -12 -13 -9c-15 6 -30 11 -46 12c-52 4 -104 -4 -150 -28s-83 -61 -108 -106c-53 -98 -46 -227 22 -316c34 -44 84 -75 138 -88c28 -8 58 -10 88 -8c19 1 37 8 56 15zM303 376c13 0 13 -20 0 -20c-16 0 -33 -5 -46 -16c-12 -11 -20 -25 -24 -41
c-5 -18 -5 -37 -1 -54c4 -14 10 -30 22 -39c21 -14 48 -19 72 -11c11 3 23 8 30 17c8 10 14 21 17 33c6 26 3 55 -11 78c-12 21 -34 33 -59 33c-13 0 -13 20 0 20s26 -3 38 -9c10 -4 21 -11 28 -19c17 -21 26 -46 27 -73c1 -25 -6 -51 -21 -71s-41 -31 -65 -32
c-27 -2 -55 5 -74 24c-19 18 -27 47 -27 72c0 27 7 55 25 76c17 21 42 32 69 32zM244 650c13 0 13 -20 0 -20h-13h-149c-5 0 -10 4 -10 10v14v148c0 5 5 10 10 10h14h148c6 0 10 -5 10 -10v-14v-148c0 -13 -20 -13 -20 0v14v148c4 -3 7 -7 10 -10h-13h-149c4 3 7 7 10 10
v-14v-148c-3 3 -6 7 -10 10h14h148zM490 650c13 0 13 -20 0 -20h-14h-148c-5 0 -10 5 -10 10v14v148c0 5 5 10 10 10h14h148c6 0 10 -5 10 -10v-14v-148c0 -13 -20 -13 -20 0v14v148c4 -3 7 -7 10 -10h-14h-148c4 3 7 7 10 10v-14v-148c-3 3 -6 7 -10 10h14h148z" />
    <glyph glyph-name="agrave" unicode="&#xe0;" horiz-adv-x="595" 
d="M356 16c5 2 11 -2 12 -7c2 -6 -2 -11 -7 -13c-12 -4 -24 -9 -37 -12c-15 -4 -31 -4 -47 -4c-59 1 -119 19 -166 55c-45 34 -78 81 -95 135c-35 105 -12 232 68 311c37 38 85 65 137 76c27 5 54 7 81 6c11 -1 22 -2 33 -5c9 -2 18 -5 26 -9c-4 -3 -8 -6 -12 -10v38
c0 6 4 10 10 10h61c48 1 97 1 146 1c6 0 10 -5 10 -10v-14v-128v-193v-176v-77c0 -5 -4 -10 -10 -10h-61h-146c-6 0 -10 5 -10 10v16c0 13 20 13 20 0v-16c-4 3 -7 7 -10 10h61h146l-10 -10v14v128v193v176v77l10 -10h-61c-49 0 -98 -1 -146 -1c3 4 6 7 10 10v-38
c0 -5 -7 -12 -13 -9c-13 5 -27 10 -40 12c-12 1 -24 1 -37 1s-26 -1 -39 -3c-25 -4 -50 -11 -73 -23c-46 -23 -85 -59 -110 -104c-54 -98 -49 -226 19 -316c33 -43 82 -74 135 -88c29 -7 58 -10 88 -9c20 2 38 8 57 16zM300 367c13 0 13 -20 0 -20c-15 -1 -32 -5 -44 -15
c-12 -11 -21 -25 -25 -40c-4 -18 -5 -36 -1 -54c3 -14 9 -29 21 -38c19 -16 47 -20 70 -14c10 3 23 8 31 17c8 10 14 21 17 33c7 26 4 55 -10 78c-13 21 -34 32 -59 33c-12 0 -12 20 0 20c13 -1 25 -3 37 -8c10 -5 21 -11 28 -20c17 -20 26 -45 27 -70c2 -26 -5 -52 -21 -73
c-14 -20 -40 -30 -64 -32c-26 -2 -54 6 -73 24s-27 47 -27 72c0 27 7 54 25 75c17 21 42 31 68 32zM156 780c-4 3 -11 1 -13 -3c-3 -5 -1 -11 3 -14c31 -22 62 -45 93 -67c44 -31 87 -62 130 -93c5 -3 8 -6 14 -4c11 2 21 5 32 8c23 5 47 11 70 17c8 1 10 11 5 16
c-36 32 -71 63 -107 94c-22 20 -44 39 -66 59c-7 6 -13 11 -20 17c-4 4 -8 9 -15 7c-45 -12 -89 -24 -134 -36c-12 -3 -7 -22 6 -19h1c44 12 89 24 133 36c-3 1 -6 1 -10 2c33 -28 65 -57 97 -85c34 -30 67 -59 101 -89c1 6 3 11 4 17c-35 -9 -69 -17 -104 -25
c3 -1 5 -1 8 -1c-1 0 -1 1 -2 1l-120 87c-36 25 -71 50 -106 75z" />
    <glyph glyph-name="amacron" unicode="&#x101;" 
 />
    <glyph glyph-name="aogonek" unicode="&#x105;" 
 />
    <glyph glyph-name="aring" unicode="&#xe5;" 
 />
    <glyph glyph-name="atilde" unicode="&#xe3;" 
 />
    <glyph glyph-name="ae" unicode="&#xe6;" 
 />
    <glyph glyph-name="b" unicode="b" horiz-adv-x="650" 
d="M323 414c13 0 13 -20 0 -20c-6 0 -12 0 -18 -2c-25 -5 -44 -20 -55 -43c-10 -24 -11 -52 -4 -76s21 -43 44 -53c20 -8 43 -8 63 0c16 6 29 20 37 37c9 19 11 43 8 65c-2 19 -10 39 -24 52s-32 20 -51 20c-13 0 -13 20 0 20c25 0 51 -10 68 -29c15 -17 24 -38 27 -61
s1 -48 -8 -69c-7 -20 -20 -37 -38 -48c-19 -11 -42 -15 -64 -12c-26 4 -51 17 -66 39c-15 23 -21 50 -20 77c1 26 10 54 28 73c19 20 46 30 73 30zM366 14c13 0 13 -20 0 -20c-25 0 -50 3 -73 10c-22 7 -42 18 -60 33c6 2 12 5 17 7v-44c0 -5 -4 -10 -10 -10h-75h-145
c-5 0 -10 5 -10 10v9v94v165v196v189v142v56c0 5 5 10 10 10h76h144c6 0 10 -5 10 -10v-15v-170v-123c-5 3 -11 5 -17 7c8 8 17 14 26 19c24 15 49 26 77 31c29 5 58 5 86 0c52 -10 100 -36 136 -74c19 -20 35 -44 47 -68c14 -27 24 -54 29 -83c6 -31 7 -62 6 -93
c-1 -29 -4 -59 -13 -88c-16 -55 -48 -107 -92 -142c-23 -19 -48 -34 -76 -43c-30 -10 -62 -15 -93 -15c-13 0 -13 20 0 20c30 0 59 5 88 14c25 8 49 23 69 40c42 34 71 83 86 134c8 29 11 58 11 88c1 30 -1 60 -7 90c-12 53 -40 106 -80 143c-37 34 -86 56 -137 60
c-29 2 -59 -1 -86 -11c-12 -4 -23 -9 -34 -16c-10 -6 -20 -12 -28 -20c-7 -6 -18 -2 -18 7v15v170v123c4 -3 7 -7 10 -10h-75h-145c4 3 7 7 10 10v-9v-94v-165v-196v-189v-142v-56c-3 3 -6 7 -10 10h76h144c-3 -3 -6 -7 -10 -10v44c0 9 11 12 18 7c33 -27 75 -37 118 -37z
" />
    <glyph glyph-name="c" unicode="c" horiz-adv-x="526" 
d="M306 -11c13 0 13 -20 0 -20h-8c-59 1 -118 13 -170 42c-23 12 -46 28 -64 47c-16 17 -30 36 -41 57c-24 46 -34 98 -36 150c-1 59 9 120 37 172c27 49 68 88 118 114c48 26 105 42 160 40c27 -1 54 -3 80 -11c23 -7 46 -18 66 -32c24 -16 46 -35 66 -57
c9 -10 17 -21 26 -32c3 -4 1 -9 -2 -13c-8 -10 -16 -20 -25 -30c-32 -38 -63 -76 -95 -114c-3 -4 -11 -4 -14 0l-15 18c-9 11 -18 21 -30 30c-21 16 -50 27 -76 21s-46 -24 -57 -48s-11 -52 -3 -77c8 -23 25 -45 49 -54c9 -3 14 -4 23 -4c14 0 28 2 41 6s23 11 33 20
c2 2 3 4 5 6c1 1 4 5 1 1c1 1 2 3 3 4c6 11 12 21 18 32c3 6 11 7 15 2c10 -11 21 -22 31 -33c31 -34 62 -69 94 -104c3 -3 4 -8 1 -12c-6 -12 -12 -24 -20 -35c-14 -20 -32 -39 -52 -54c-47 -34 -102 -52 -159 -52c-13 0 -13 20 0 20c54 0 105 17 149 49c18 14 35 32 47 51
c7 10 12 21 18 31c1 -4 1 -8 2 -12c-10 11 -20 22 -30 32c-31 35 -63 70 -95 105c5 1 11 2 16 2c-4 -7 -8 -15 -12 -22s-8 -14 -13 -20c-9 -9 -19 -18 -31 -24c-13 -6 -27 -10 -41 -12c-22 -3 -45 -1 -64 11c-49 29 -67 96 -46 148c6 13 13 26 23 35c11 10 22 18 36 23
c26 10 55 7 80 -5c14 -6 26 -15 38 -25c4 -4 8 -7 12 -12c8 -9 15 -19 23 -28h-14c8 10 16 20 25 30c32 38 63 76 95 115c-1 -4 -1 -8 -2 -12l-9 12c-1 2 -3 4 -5 7l-2 2s4 -5 0 0c-17 19 -35 37 -55 52c-17 13 -35 24 -55 32c-19 8 -39 12 -59 15c-55 6 -110 -2 -161 -24
c-50 -21 -95 -55 -124 -101c-31 -49 -45 -108 -45 -166c0 -50 8 -102 31 -148c10 -20 23 -39 39 -56c17 -19 39 -34 61 -46c52 -28 110 -39 168 -39z" />
    <glyph glyph-name="cacute" unicode="&#x107;" 
d="M306 -11c13 0 13 -20 0 -20h-8c-59 1 -118 13 -170 42c-23 12 -46 28 -64 47c-16 17 -30 36 -41 57c-24 46 -34 98 -36 150c-1 59 9 120 37 172c27 49 68 88 118 114c48 26 105 42 160 40c27 -1 54 -3 80 -11c23 -7 46 -18 66 -32c24 -16 46 -35 66 -57
c9 -10 17 -21 26 -32c3 -4 1 -9 -2 -13c-8 -10 -16 -20 -25 -30c-32 -38 -63 -76 -95 -114c-3 -4 -11 -4 -14 0l-15 18c-9 11 -18 21 -30 30c-21 16 -50 27 -76 21s-46 -24 -57 -48s-11 -52 -3 -77c8 -23 25 -45 49 -54c9 -3 14 -4 23 -4c14 0 28 2 41 6s23 11 33 20
c2 2 3 4 5 6c1 1 4 5 1 1c1 1 2 3 3 4c6 11 12 21 18 32c3 6 11 7 15 2c10 -11 21 -22 31 -33c31 -34 62 -69 94 -104c3 -3 4 -8 1 -12c-6 -12 -12 -24 -20 -35c-14 -20 -32 -39 -52 -54c-47 -34 -102 -52 -159 -52c-13 0 -13 20 0 20c54 0 105 17 149 49c18 14 35 32 47 51
c7 10 12 21 18 31c1 -4 1 -8 2 -12c-10 11 -20 22 -30 32c-31 35 -63 70 -95 105c5 1 11 2 16 2c-4 -7 -8 -15 -12 -22s-8 -14 -13 -20c-9 -9 -19 -18 -31 -24c-13 -6 -27 -10 -41 -12c-22 -3 -45 -1 -64 11c-49 29 -67 96 -46 148c6 13 13 26 23 35c11 10 22 18 36 23
c26 10 55 7 80 -5c14 -6 26 -15 38 -25c4 -4 8 -7 12 -12c8 -9 15 -19 23 -28h-14c8 10 16 20 25 30c32 38 63 76 95 115c-1 -4 -1 -8 -2 -12l-9 12c-1 2 -3 4 -5 7l-2 2s4 -5 0 0c-17 19 -35 37 -55 52c-17 13 -35 24 -55 32c-19 8 -39 12 -59 15c-55 6 -110 -2 -161 -24
c-50 -21 -95 -55 -124 -101c-31 -49 -45 -108 -45 -166c0 -50 8 -102 31 -148c10 -20 23 -39 39 -56c17 -19 39 -34 61 -46c52 -28 110 -39 168 -39z" />
    <glyph glyph-name="ccaron" unicode="&#x10d;" 
 />
    <glyph glyph-name="ccedilla" unicode="&#xe7;" horiz-adv-x="526" 
d="M396 335c6 11 23 1 17 -10c-4 -7 -8 -15 -12 -22s-8 -14 -13 -20c-9 -10 -19 -18 -31 -24c-13 -6 -27 -10 -41 -12c-22 -3 -45 -1 -64 10c-49 30 -67 97 -46 149c6 13 13 26 23 35c10 10 22 18 36 23c26 10 54 6 79 -5c14 -6 27 -15 39 -25l12 -12c7 -10 15 -19 23 -28
h-14c8 10 16 20 25 30c31 38 63 76 95 114c-1 -4 -1 -8 -2 -12c-4 6 -8 11 -12 17c-1 1 -2 2 -3 4s-1 0 0 -1c-5 6 -11 12 -16 18c-21 21 -44 41 -70 56c-44 24 -96 32 -145 28c-55 -4 -109 -23 -154 -54c-22 -16 -42 -34 -58 -55c-17 -22 -30 -47 -39 -73
c-19 -54 -23 -113 -14 -170c7 -47 24 -93 54 -130c33 -42 81 -70 131 -84c5 -2 9 -7 7 -13c-11 -37 -22 -75 -33 -112c-3 4 -7 8 -10 12h38c12 -1 24 -1 36 -3c7 -1 15 -3 21 -7c5 -4 6 -9 3 -14c-3 -8 -15 -11 -22 -13c-15 -4 -31 -5 -46 -4c-23 0 -46 2 -69 3
c3 4 6 7 10 10c-4 -36 -7 -72 -10 -109c-3 4 -5 7 -8 10c19 -4 38 -8 58 -9c33 -3 67 -3 99 3c22 5 44 13 62 26c19 14 35 34 42 56c7 23 5 48 -8 69c-14 22 -36 37 -62 44c-5 2 -8 7 -7 12c2 6 4 11 5 16c2 5 5 8 10 8c53 1 103 19 145 51c18 13 34 31 46 50
c6 10 11 20 17 30c1 -4 1 -8 2 -12c-10 10 -20 21 -30 32c-32 35 -63 70 -95 105c-9 9 6 24 14 14l30 -33c32 -35 63 -69 95 -104c3 -4 4 -8 1 -12c-6 -11 -12 -23 -19 -34c-14 -20 -31 -39 -51 -53c-45 -34 -99 -53 -155 -54c3 2 6 5 10 7c-2 -5 -4 -11 -5 -16
c-3 4 -5 8 -7 12c37 -11 70 -36 83 -74c11 -34 3 -72 -19 -100c-14 -19 -34 -35 -56 -45c-24 -11 -49 -16 -75 -19c-30 -2 -60 -1 -89 3c-16 2 -31 5 -46 8c-4 0 -8 5 -7 9c3 37 6 73 10 109c0 5 4 11 10 10c22 -1 44 -3 66 -3c14 -1 28 0 41 2c2 1 4 1 6 2c1 0 6 2 3 1
c1 0 2 1 3 1c0 1 1 1 1 1c1 1 1 1 0 0c1 1 1 1 0 0c1 -4 3 -9 4 -14c-5 4 -11 5 -17 6h-2c2 0 2 0 0 0h-3c-2 1 -5 1 -7 1c-7 0 -14 1 -22 1h-34c-6 0 -11 7 -9 13c11 37 22 75 33 113c2 -5 4 -9 7 -13c-38 12 -74 30 -105 55c-26 20 -47 47 -63 76c-24 46 -34 98 -36 149
c-1 59 9 120 37 173c27 49 68 88 117 114s106 41 161 40c27 -1 54 -4 80 -11c23 -7 46 -18 66 -32c24 -16 46 -36 66 -57c9 -10 17 -22 26 -33c2 -3 1 -9 -2 -12c-8 -10 -17 -20 -25 -30c-32 -38 -63 -76 -95 -114c-3 -4 -11 -4 -14 0c-5 6 -10 11 -15 17
c-9 12 -19 22 -30 31c-21 15 -50 26 -76 21c-26 -6 -46 -24 -57 -48s-11 -52 -3 -77c8 -23 25 -46 49 -54c9 -4 14 -5 23 -5c14 0 28 2 41 7c13 4 23 10 32 20l6 6c1 1 3 5 1 1c1 1 2 2 2 4c6 10 13 21 19 32z" />
    <glyph glyph-name="d" unicode="d" horiz-adv-x="643" 
d="M222 304c0 13 20 13 20 0c0 -6 0 -12 1 -19c2 -19 10 -38 24 -52c13 -13 30 -20 48 -20c25 -1 50 7 66 26c15 20 21 46 20 70c-2 25 -10 51 -30 67c-18 14 -44 20 -66 16c-18 -3 -35 -13 -45 -28c-13 -17 -18 -38 -18 -60c0 -13 -20 -13 -20 0c0 28 8 57 26 78
c31 35 89 41 128 15c22 -15 37 -39 42 -65c5 -28 3 -57 -8 -83c-11 -24 -30 -42 -55 -51c-22 -7 -49 -8 -71 0c-19 8 -35 21 -46 40c-12 20 -16 43 -16 66zM173 31c5 -2 6 -9 4 -14c-3 -5 -9 -6 -14 -3c-43 20 -80 51 -106 89c-27 39 -46 85 -52 132c-5 31 -6 62 -4 93
c2 30 7 60 17 88c19 53 50 102 95 136c41 32 93 50 145 51c31 1 62 -4 90 -15c22 -10 44 -24 62 -40c-6 -2 -12 -5 -17 -7v18v172v122c0 5 4 10 10 10h75h145c5 0 10 -5 10 -10v-9v-94v-165v-196v-189v-142v-56c0 -6 -5 -10 -10 -10h-76h-144c-6 0 -10 4 -10 10v44
c5 -2 11 -5 17 -7c-32 -26 -68 -42 -109 -46c-46 -5 -93 3 -136 20c-5 2 -8 6 -7 12c2 5 7 9 13 7c40 -16 85 -24 129 -19c35 4 68 18 96 40c6 5 17 2 17 -7v-44c-4 3 -7 6 -10 10h75h145l-10 -10v9v93v165v197v189v142v56c3 -4 6 -7 10 -10h-76h-144l10 10v-18v-172v-122
c0 -9 -11 -13 -17 -7c-27 23 -59 40 -93 46c-37 7 -75 4 -111 -8c-49 -16 -91 -49 -120 -92c-15 -23 -28 -49 -37 -76c-9 -28 -13 -58 -14 -87c-1 -30 0 -61 5 -91c6 -28 15 -55 29 -81c13 -24 29 -47 49 -67c20 -19 43 -35 69 -47z" />
    <glyph glyph-name="eth" unicode="&#xf0;" 
 />
    <glyph glyph-name="dcaron" unicode="&#x10f;" 
 />
    <glyph glyph-name="dcroat" unicode="&#x111;" 
d="M222 304c0 13 20 13 20 0c0 -6 0 -12 1 -19c2 -19 10 -38 24 -52c13 -13 30 -20 48 -20c25 -1 50 7 66 26c15 20 21 46 20 70c-2 25 -10 51 -30 67c-18 14 -44 20 -66 16c-18 -3 -35 -13 -45 -28c-13 -17 -18 -38 -18 -60c0 -13 -20 -13 -20 0c0 28 8 57 26 78
c31 35 89 41 128 15c22 -15 37 -39 42 -65c5 -28 3 -57 -8 -83c-11 -24 -30 -42 -55 -51c-22 -7 -49 -8 -71 0c-19 8 -35 21 -46 40c-12 20 -16 43 -16 66zM173 31c5 -2 6 -9 4 -14c-3 -5 -9 -6 -14 -3c-43 20 -80 51 -106 89c-27 39 -46 85 -52 132c-5 31 -6 62 -4 93
c2 30 7 60 17 88c19 53 50 102 95 136c41 32 93 50 145 51c31 1 62 -4 90 -15c22 -10 44 -24 62 -40c-6 -2 -12 -5 -17 -7v18v172v122c0 5 4 10 10 10h75h145c5 0 10 -5 10 -10v-9v-94v-165v-196v-189v-142v-56c0 -6 -5 -10 -10 -10h-76h-144c-6 0 -10 4 -10 10v44
c5 -2 11 -5 17 -7c-32 -26 -68 -42 -109 -46c-46 -5 -93 3 -136 20c-5 2 -8 6 -7 12c2 5 7 9 13 7c40 -16 85 -24 129 -19c35 4 68 18 96 40c6 5 17 2 17 -7v-44c-4 3 -7 6 -10 10h75h145l-10 -10v9v93v165v197v189v142v56c3 -4 6 -7 10 -10h-76h-144l10 10v-18v-172v-122
c0 -9 -11 -13 -17 -7c-27 23 -59 40 -93 46c-37 7 -75 4 -111 -8c-49 -16 -91 -49 -120 -92c-15 -23 -28 -49 -37 -76c-9 -28 -13 -58 -14 -87c-1 -30 0 -61 5 -91c6 -28 15 -55 29 -81c13 -24 29 -47 49 -67c20 -19 43 -35 69 -47z" />
    <glyph glyph-name="e" unicode="e" horiz-adv-x="585" 
d="M390 365c2 -5 -2 -11 -7 -13c-5 -1 -10 2 -12 7c-3 7 -6 15 -11 21s-10 11 -18 15c-14 7 -29 10 -45 10c-32 -1 -69 -17 -82 -48c-3 5 -6 10 -8 15h24h150c12 0 12 -20 0 -20h-25h-149c-9 0 -12 8 -9 15c8 19 24 33 42 42c18 10 38 16 59 16c19 0 39 -4 56 -15
c17 -10 28 -27 35 -45zM195 210c-7 11 11 21 17 10c11 -19 30 -33 51 -41c21 -7 43 -8 65 -6c20 3 39 9 55 20c13 8 23 19 33 29c3 -6 5 -11 8 -17h-76h-144c-13 0 -13 20 0 20h75h145c8 0 13 -11 7 -17c-13 -12 -25 -25 -40 -34c-20 -12 -42 -19 -66 -21
c-25 -3 -51 0 -74 10c-23 9 -43 25 -56 47zM305 8c12 0 12 -20 0 -20c-30 0 -59 3 -88 11c-50 12 -94 37 -132 73c-35 34 -60 77 -73 124c-14 52 -15 107 -6 159c9 49 30 94 62 131c35 40 81 70 130 87c52 18 108 20 161 10c52 -10 101 -33 141 -68c36 -32 63 -75 75 -122
c9 -34 10 -69 10 -104v-74c0 -5 -5 -10 -10 -10h-1h-136c2 6 4 11 7 17c1 -2 3 -3 4 -5c34 -36 67 -71 100 -107c3 -4 4 -10 0 -14c-30 -29 -62 -56 -99 -74c-45 -23 -95 -34 -145 -34c-13 0 -13 20 0 20c47 0 95 11 138 33c21 11 42 24 60 40c11 9 21 19 31 29v-14
c-1 2 -3 3 -4 5c-33 36 -66 71 -100 107c-5 6 -1 17 8 17h137c-4 -3 -7 -7 -10 -10v4v84c0 39 -4 76 -18 112c-38 95 -139 150 -238 154c-52 2 -104 -9 -150 -35c-43 -24 -81 -59 -105 -103s-34 -94 -33 -144c0 -49 9 -99 33 -143c24 -42 60 -77 102 -100
c45 -25 97 -36 149 -36z" />
    <glyph glyph-name="eacute" unicode="&#xe9;" horiz-adv-x="584" 
d="M390 365c2 -5 -2 -11 -7 -13c-6 -1 -11 2 -13 7c-2 7 -6 15 -11 21s-10 11 -17 15c-14 7 -30 10 -46 10c-32 -1 -68 -17 -81 -48l-9 15h24h150c13 0 13 -20 0 -20h-24h-150c-8 0 -12 8 -9 15c9 19 24 33 42 42c18 10 38 16 59 16c20 0 40 -4 57 -15c17 -10 28 -27 35 -45
zM194 210c-6 11 11 21 18 10c11 -19 30 -33 50 -41c21 -7 44 -8 66 -6c19 3 38 9 55 20c12 8 23 19 33 29c2 -6 5 -11 7 -17h-76h-144c-13 0 -13 20 0 20h76h144c9 0 13 -11 7 -17c-12 -12 -24 -25 -39 -34c-21 -12 -43 -19 -66 -21c-26 -3 -51 0 -75 10
c-23 9 -43 25 -56 47zM304 8c13 0 13 -20 0 -20c-29 0 -59 3 -87 11c-50 12 -95 37 -132 73c-36 34 -61 77 -74 124c-13 52 -15 107 -5 159c9 49 29 94 62 131c34 40 80 70 130 87c51 18 107 20 161 10c51 -10 100 -33 140 -68c37 -32 63 -75 76 -122c8 -34 9 -69 9 -104
v-74c0 -5 -5 -10 -10 -10h-137c2 6 5 11 7 17l5 -5c33 -36 66 -71 99 -107c4 -4 4 -10 0 -14c-29 -29 -61 -56 -99 -74c-45 -23 -94 -34 -145 -34c-13 0 -13 20 0 20c48 0 95 11 138 33c22 11 42 24 61 40c11 9 21 19 31 29v-14l-5 5c-33 36 -66 71 -99 107c-6 6 -2 17 7 17
h137l-10 -10v4v84c0 39 -3 76 -18 112c-37 95 -139 150 -237 154c-53 2 -105 -9 -150 -35c-44 -24 -82 -59 -106 -103s-33 -94 -33 -144c0 -49 9 -99 34 -143c23 -42 59 -77 101 -100c46 -25 97 -36 149 -36zM482 786c4 3 11 0 13 -4c3 -5 1 -10 -3 -14
c-31 -22 -62 -44 -93 -67c-44 -31 -87 -62 -130 -93c-5 -3 -8 -5 -14 -4c-11 3 -21 5 -32 8c-23 6 -47 11 -70 17c-8 2 -11 12 -5 17c36 31 71 62 107 94c22 19 44 39 66 58c7 6 13 12 20 18c4 4 8 8 15 6c45 -12 89 -23 134 -35c12 -4 7 -23 -6 -20l-1 1
c-44 11 -89 23 -133 35c3 1 6 2 10 3c-33 -29 -65 -57 -97 -86c-34 -29 -67 -59 -101 -88c-1 5 -3 11 -4 16c34 -8 69 -16 104 -25c-3 0 -5 0 -8 -1c1 1 1 1 2 1l120 87c36 25 71 50 106 76z" />
    <glyph glyph-name="ecaron" unicode="&#x11b;" 
 />
    <glyph glyph-name="ecircumflex" unicode="&#xea;" horiz-adv-x="564" 
d="M376 364c2 -5 -2 -11 -7 -12s-10 2 -11 7c-3 7 -6 14 -11 19c-5 7 -10 11 -17 15c-13 7 -29 10 -44 10c-31 -1 -66 -17 -79 -46c-2 4 -5 9 -8 14h23h145c12 0 12 -19 0 -19h-23h-145c-8 0 -11 8 -8 14c7 18 23 32 40 41c17 10 37 15 57 15c19 0 38 -4 54 -14
c17 -10 28 -26 34 -44zM188 215c-7 10 10 20 16 9c11 -18 29 -32 49 -39c21 -7 42 -8 64 -6c18 3 37 9 53 19c12 8 22 18 32 28c2 -5 4 -11 6 -16h-72h-140c-12 0 -12 19 0 19h73h139c9 0 13 -10 7 -16c-12 -12 -23 -24 -38 -33c-19 -11 -41 -18 -63 -20
c-25 -3 -50 -1 -72 9c-22 9 -42 25 -54 46zM294 20c12 0 12 -20 0 -19c-29 0 -57 3 -85 10c-48 12 -91 36 -127 71c-34 32 -59 74 -71 120c-13 49 -14 103 -5 153c8 47 28 91 59 126c34 38 78 68 126 84c50 17 104 20 155 10c50 -10 97 -32 136 -66c35 -31 61 -72 73 -118
c8 -33 9 -66 9 -100v-71c0 -6 -5 -10 -10 -10h-132c2 5 4 11 7 16c1 -1 3 -3 4 -5c32 -34 64 -68 96 -103c4 -4 4 -10 0 -13c-28 -29 -59 -54 -95 -72c-44 -21 -92 -32 -140 -32c-13 -1 -13 19 0 19c46 0 92 10 133 31c21 11 40 24 58 39c11 9 21 19 30 28v-13
c-1 1 -3 3 -4 5c-32 34 -64 68 -96 103c-6 6 -2 16 7 16h132c-3 -3 -6 -6 -10 -9v3v82c0 37 -3 73 -17 108c-36 92 -134 144 -229 148c-51 2 -101 -9 -145 -34c-41 -23 -78 -57 -101 -99c-24 -42 -33 -91 -33 -139c1 -47 10 -96 33 -138c23 -40 58 -74 98 -97
c44 -24 94 -34 144 -34zM350 645c8 -9 -5 -23 -14 -13c-19 22 -39 44 -59 67h14c-11 -12 -21 -24 -32 -36c-7 -8 -13 -15 -20 -23c-4 -4 -8 -11 -14 -11h-130c-9 0 -13 10 -7 16c32 34 64 67 96 101c15 16 31 32 46 48l3 3c3 4 8 3 12 3h40h38c4 0 8 0 11 -3l3 -3
c16 -17 32 -33 48 -49c32 -33 64 -67 97 -100c6 -6 1 -16 -7 -16h-132c-12 0 -12 19 0 19h132c-2 -5 -5 -11 -7 -16c-17 17 -34 35 -51 52c-33 33 -65 67 -97 100c2 -1 4 -2 7 -3h-87c2 1 4 2 7 3c-16 -17 -33 -34 -49 -51c-32 -34 -64 -68 -96 -101c-3 5 -5 11 -7 16h130
c-3 -1 -5 -2 -7 -3c20 23 39 45 59 67c3 4 10 4 14 0c20 -22 39 -44 59 -67z" />
    <glyph glyph-name="edieresis" unicode="&#xeb;" horiz-adv-x="576" 
d="M384 371c2 -5 -2 -11 -7 -12c-5 -2 -10 2 -12 7c-2 7 -6 14 -11 20s-10 11 -17 15c-14 7 -29 10 -45 10c-31 -1 -67 -17 -80 -48l-9 15h24h148c12 0 12 -19 0 -19h-24h-148c-8 0 -11 8 -8 14c8 19 23 33 41 42c17 10 37 16 58 16c19 -1 39 -5 55 -15
c17 -10 28 -27 35 -45zM192 219c-7 11 10 21 17 10c11 -19 29 -33 50 -41c20 -7 42 -8 64 -5c19 2 38 9 54 19c13 8 23 18 33 29c2 -6 5 -12 7 -17h-74h-143c-13 0 -13 19 0 19h75h142c9 0 13 -10 7 -16c-12 -12 -24 -25 -39 -33c-20 -12 -42 -19 -65 -21
c-25 -3 -50 -1 -73 9s-43 25 -55 47zM300 20c12 0 12 -20 0 -20c-29 0 -58 3 -86 10c-50 13 -94 38 -130 73c-35 33 -60 76 -73 122c-13 51 -15 105 -5 157c9 47 29 93 61 129c34 39 79 69 128 86c51 17 106 19 159 9c51 -9 99 -32 138 -67c36 -31 62 -73 74 -120
c9 -34 10 -68 10 -102v-73c0 -6 -5 -10 -10 -10h-1h-134c2 5 4 11 7 17c1 -2 3 -4 5 -6c32 -35 65 -70 97 -105c4 -4 4 -10 0 -14c-29 -29 -60 -54 -97 -73c-45 -22 -94 -33 -143 -33c-13 0 -13 20 0 20c47 0 94 10 136 32c21 11 41 24 60 39c10 9 20 19 30 29v-14
c-1 2 -3 4 -4 5c-33 36 -66 71 -98 106c-6 6 -2 16 7 16h135c-4 -3 -7 -6 -10 -9v4v83c0 37 -3 75 -17 110c-37 94 -137 148 -235 151c-51 2 -103 -9 -148 -34c-42 -24 -80 -58 -103 -101c-24 -44 -33 -93 -33 -142s9 -98 33 -141c23 -42 59 -76 100 -99
c45 -25 96 -35 147 -35zM248 640c12 0 12 -20 0 -20h-14h-146c-5 0 -10 5 -10 10v14v146c0 5 5 10 10 10h14h146c5 0 10 -5 10 -10v-14v-146c0 -12 -20 -12 -20 0v14v146c3 -3 6 -7 10 -10h-14h-146l10 10v-14v-146c-3 4 -7 7 -10 10h14h146zM490 640c13 0 13 -19 0 -19h-14
h-146c-5 0 -9 4 -9 9v14v146c0 5 4 10 9 10h14h146c5 0 10 -5 10 -10v-14v-146c0 -12 -20 -12 -20 0v14v146l10 -10h-14h-146c4 3 7 7 10 10v-14v-146c-3 4 -6 7 -10 10h14h146z" />
    <glyph glyph-name="edotaccent" unicode="&#x117;" 
d="M390 365c2 -5 -2 -11 -7 -13c-5 -1 -10 2 -12 7c-3 7 -6 15 -11 21s-10 11 -18 15c-14 7 -29 10 -45 10c-32 -1 -69 -17 -82 -48c-3 5 -6 10 -8 15h24h150c12 0 12 -20 0 -20h-25h-149c-9 0 -12 8 -9 15c8 19 24 33 42 42c18 10 38 16 59 16c19 0 39 -4 56 -15
c17 -10 28 -27 35 -45zM195 210c-7 11 11 21 17 10c11 -19 30 -33 51 -41c21 -7 43 -8 65 -6c20 3 39 9 55 20c13 8 23 19 33 29c3 -6 5 -11 8 -17h-76h-144c-13 0 -13 20 0 20h75h145c8 0 13 -11 7 -17c-13 -12 -25 -25 -40 -34c-20 -12 -42 -19 -66 -21
c-25 -3 -51 0 -74 10c-23 9 -43 25 -56 47zM305 8c12 0 12 -20 0 -20c-30 0 -59 3 -88 11c-50 12 -94 37 -132 73c-35 34 -60 77 -73 124c-14 52 -15 107 -6 159c9 49 30 94 62 131c35 40 81 70 130 87c52 18 108 20 161 10c52 -10 101 -33 141 -68c36 -32 63 -75 75 -122
c9 -34 10 -69 10 -104v-74c0 -5 -5 -10 -10 -10h-1h-136c2 6 4 11 7 17c1 -2 3 -3 4 -5c34 -36 67 -71 100 -107c3 -4 4 -10 0 -14c-30 -29 -62 -56 -99 -74c-45 -23 -95 -34 -145 -34c-13 0 -13 20 0 20c47 0 95 11 138 33c21 11 42 24 60 40c11 9 21 19 31 29v-14
c-1 2 -3 3 -4 5c-33 36 -66 71 -100 107c-5 6 -1 17 8 17h137c-4 -3 -7 -7 -10 -10v4v84c0 39 -4 76 -18 112c-38 95 -139 150 -238 154c-52 2 -104 -9 -150 -35c-43 -24 -81 -59 -105 -103s-34 -94 -33 -144c0 -49 9 -99 33 -143c24 -42 60 -77 102 -100
c45 -25 97 -36 149 -36z" />
    <glyph glyph-name="egrave" unicode="&#xe8;" horiz-adv-x="584" 
d="M390 369c2 -5 -2 -11 -7 -13c-6 -1 -11 2 -13 7c-2 7 -6 15 -11 21s-10 11 -17 15c-14 7 -30 10 -46 10c-32 -1 -68 -17 -81 -48l-9 15h24h150c13 0 13 -20 0 -20h-24h-150c-8 0 -12 8 -9 15c8 19 24 33 42 42c18 10 38 16 59 16c20 0 40 -4 57 -15c17 -10 28 -27 35 -45
zM194 214c-6 11 11 21 18 10c11 -19 30 -33 50 -41c21 -7 44 -8 66 -6c19 3 38 9 55 20c12 8 22 19 33 29c2 -6 5 -11 7 -17h-76h-144c-13 0 -13 20 0 20h76h144c9 0 13 -11 7 -17c-12 -12 -24 -25 -39 -34c-21 -12 -43 -19 -66 -21c-26 -3 -51 0 -75 10
c-23 9 -43 25 -56 47zM304 12c13 0 13 -20 0 -20c-29 0 -59 3 -87 11c-50 12 -95 37 -132 73c-36 34 -61 77 -74 124c-13 52 -15 107 -5 159c9 49 29 94 62 131c34 40 80 70 130 87c51 18 107 20 161 10c51 -10 100 -33 140 -68c37 -32 63 -75 76 -122c8 -34 9 -69 9 -104
v-74c0 -5 -5 -10 -10 -10h-137c2 6 5 11 7 17l5 -5c33 -36 66 -71 99 -107c4 -4 4 -10 0 -14c-29 -29 -61 -56 -99 -74c-45 -23 -94 -34 -145 -34c-13 0 -13 20 0 20c48 0 95 11 138 33c22 11 42 24 61 40c11 9 21 19 31 29v-14l-5 5c-33 36 -66 71 -99 107c-6 6 -2 17 7 17
h137l-10 -10v4v84c0 39 -3 76 -18 112c-37 95 -139 150 -237 154c-53 2 -105 -9 -150 -35c-44 -24 -82 -59 -106 -103s-33 -94 -33 -144c0 -49 9 -99 34 -143c23 -42 59 -77 101 -100c46 -25 97 -36 149 -36zM180 792c-4 3 -11 0 -13 -4c-3 -5 -1 -10 3 -14l93 -66
c44 -32 87 -63 130 -94c5 -3 8 -5 14 -4c11 3 21 6 32 8c24 6 47 11 71 17c7 2 10 12 4 17c-36 31 -71 63 -107 94c-22 19 -44 39 -66 58c-7 6 -13 12 -20 18c-4 4 -8 8 -15 6c-44 -12 -89 -23 -133 -35c-13 -4 -8 -23 5 -20c0 0 0 1 1 1c44 11 89 23 133 35
c-3 1 -6 2 -10 3c33 -29 65 -57 97 -86c34 -29 67 -59 101 -88c1 5 3 11 4 16c-34 -8 -69 -16 -104 -25c3 0 5 0 8 -1l-2 2c-40 28 -80 57 -120 86c-36 25 -71 51 -106 76z" />
    <glyph glyph-name="emacron" unicode="&#x113;" 
 />
    <glyph glyph-name="eogonek" unicode="&#x119;" 
 />
    <glyph glyph-name="f" unicode="f" horiz-adv-x="392" 
d="M71 -1c0 -13 -20 -13 -20 0v85v192v106c4 -3 7 -6 10 -10h-71c-5 0 -10 5 -10 10v49v148c0 6 5 10 10 10h71l-10 -10v17c0 41 0 81 11 120c13 46 40 88 81 113c47 29 105 35 158 27c25 -3 48 -10 71 -19c21 -8 40 -18 58 -32c2 -2 3 -6 2 -9l-3 -12
c-12 -48 -24 -96 -36 -143c-2 -7 -9 -10 -15 -6c-4 2 -9 5 -13 7c-8 5 -18 7 -27 9c-9 1 -18 2 -27 1c-1 0 -3 -1 -5 -1c-1 0 -2 -1 -3 -1c-3 -1 2 1 -1 -1c-1 0 -2 0 -3 -1v-1c-1 0 -3 -3 -2 -2c-4 -5 -5 -11 -5 -18v-14v-34c-3 4 -6 7 -10 10h101c6 0 10 -4 10 -10v-48
v-149c0 -5 -4 -10 -10 -10h-101l10 10v-85v-191v-107c0 -5 -4 -10 -10 -10h-77h-144c-12 0 -12 20 0 20h77h144l-10 -10v85v192v106c0 6 5 10 10 10h101l-10 -10v49v148c4 -3 7 -6 10 -10h-101c-5 0 -10 5 -10 10v38c0 14 0 31 11 43c14 15 39 13 57 10c12 -1 24 -4 34 -10
c5 -3 10 -5 14 -8c-4 -2 -9 -4 -14 -6c1 4 2 8 3 11l36 144c1 -3 2 -7 2 -10l-3 3l-1 1c2 -2 0 0 -1 0c-19 14 -41 23 -64 30c-25 9 -51 13 -78 14c-50 2 -102 -10 -138 -46c-34 -32 -51 -77 -56 -124c-4 -29 -3 -60 -3 -90c0 -5 -4 -10 -10 -10h-71l10 10v-48v-149
c-3 4 -6 7 -10 10h71c6 0 10 -4 10 -10v-85v-191v-107z" />
    <glyph glyph-name="g" unicode="g" horiz-adv-x="633" 
d="M301 -228c13 0 13 -20 0 -20c-16 0 -32 1 -48 3c-55 7 -108 25 -155 54c-28 17 -53 37 -79 57c-3 3 -4 9 -1 12l24 39c26 42 52 84 79 126c1 -4 2 -9 3 -13c-34 25 -63 57 -84 94c-20 35 -32 74 -37 113c-7 54 -3 110 15 160c18 49 47 93 86 127c39 33 85 56 135 64
c27 4 55 6 83 2c27 -4 51 -15 76 -27c-5 -3 -10 -5 -15 -8v19s4 10 10 10h75h145c5 0 10 -4 10 -10v-16v-143v-195v-129c0 -74 -12 -151 -56 -213c-28 -39 -67 -71 -110 -92c-49 -24 -102 -34 -156 -34c-12 0 -12 20 0 20c37 0 74 5 109 16c46 15 89 41 121 77
c31 34 51 76 61 121c11 47 11 94 11 142v170v188v88l10 -10h-76h-144c3 4 6 7 10 10v-19c0 -8 -9 -12 -15 -9c-16 8 -32 15 -48 19c-17 5 -34 7 -52 7c-32 -1 -64 -6 -94 -17c-95 -36 -160 -128 -171 -227c-6 -53 -2 -108 17 -157s52 -93 94 -124c5 -3 7 -9 4 -14
c-8 -13 -16 -25 -24 -38c-27 -43 -53 -85 -79 -127c-1 4 -1 8 -2 12c3 -2 6 -4 10 -7c6 -5 12 -10 19 -14c2 -2 4 -4 7 -6l1 -1c1 0 1 0 1 -1c-3 2 2 -1 2 -1c22 -17 46 -32 71 -43c49 -23 103 -35 157 -35zM172 0c-4 3 -6 8 -3 13c2 4 9 7 14 4c33 -25 72 -45 114 -44
c34 0 74 8 90 42c4 -4 9 -9 13 -14c-73 -33 -163 -30 -236 5c3 6 7 11 10 17l9 -6c4 -4 6 -9 3 -14c-2 -4 -9 -7 -14 -3c-2 2 -5 4 -8 6c-10 8 -2 23 10 17c33 -16 70 -24 107 -25c38 -1 75 5 109 21c10 4 18 -5 14 -14c-18 -39 -64 -51 -103 -52c-48 -1 -91 18 -129 47z
M308 402c13 0 13 -20 0 -20c-10 0 -22 -1 -31 -6c-10 -4 -18 -11 -24 -19c-15 -18 -23 -41 -24 -64c0 -24 6 -49 21 -67c7 -9 14 -16 24 -20c9 -4 20 -6 30 -7c23 0 46 5 63 23s25 41 25 65c0 25 -7 50 -24 69c-7 8 -16 15 -26 20c-11 4 -23 6 -34 6c-13 0 -13 20 0 20
c19 0 38 -4 54 -15c22 -14 38 -36 45 -60c7 -26 7 -55 -2 -80c-8 -23 -24 -45 -47 -57c-23 -11 -51 -14 -76 -8c-53 13 -78 72 -72 122c3 27 14 52 32 72c18 18 41 26 66 26z" />
    <glyph glyph-name="gcommaaccent" unicode="&#x123;" 
 />
    <glyph glyph-name="h" unicode="h" horiz-adv-x="591" 
d="M379 1c0 -13 -20 -13 -20 0v72v188v54c0 12 0 25 -3 37c-2 10 -4 20 -10 28l-2 2c0 1 -1 2 -2 2c-1 1 -1 2 -2 3c2 -2 -2 1 -2 1c-4 2 -5 3 -10 4s-10 2 -16 3c-12 0 -25 -1 -37 -6c-11 -4 -22 -12 -29 -21c-7 -8 -10 -18 -12 -28c-3 -14 -2 -30 -2 -45v-173v-121
c0 -6 -5 -10 -10 -10h-54h-147c-6 0 -10 4 -10 10v9v95v165v197v189v142v56c0 5 4 10 10 10h53h148c5 0 10 -5 10 -10v-5v-154v-128c-5 3 -10 5 -15 8c28 16 60 25 92 29c52 5 108 -4 154 -30c43 -24 76 -62 95 -107c16 -38 22 -79 22 -120v-47v-186v-113
c0 -6 -5 -10 -10 -10h-54h-147c-13 0 -13 20 0 20h53h148l-10 -10v5v145v173c0 17 0 33 -1 49c-3 48 -17 97 -47 134c-31 38 -74 63 -122 73c-55 11 -113 5 -163 -22c-7 -4 -15 1 -15 9v4v155v128c3 -4 6 -7 10 -10h-54h-147c3 3 7 6 10 10v-10v-95v-165v-197v-189v-141v-56
c-3 3 -7 6 -10 10h53h148l-10 -10v95v183v36c0 19 2 39 12 56c13 22 38 38 63 42c21 3 47 3 64 -10c14 -11 21 -28 24 -45c4 -21 4 -41 4 -62v-175v-120z" />
    <glyph glyph-name="i" unicode="i" horiz-adv-x="260" 
d="M239 10c13 0 13 -20 0 -20h-75h-144c-5 0 -10 5 -10 10v9v120v192v177v78c0 6 5 10 10 10h75h144c5 0 10 -4 10 -10v-9v-120v-191v-178v-78c0 -13 -20 -13 -20 0v9v120v192v177v78c3 -3 7 -6 10 -10h-75h-144c3 4 7 7 10 10v-9v-120v-191v-178v-78l-10 10h75h144z
M230 739c0 13 20 13 20 0c0 -33 -14 -65 -38 -87c-24 -23 -56 -35 -89 -33c-48 3 -89 34 -106 78c-16 45 -4 97 30 129c36 33 87 42 132 22c43 -19 70 -62 71 -109c0 -13 -20 -13 -20 0c0 40 -25 76 -62 92c-40 17 -88 5 -116 -29c-27 -33 -30 -83 -5 -119
c24 -36 71 -53 113 -40c41 13 70 52 70 96z" />
    <glyph glyph-name="iacute" unicode="&#xed;" horiz-adv-x="315" 
d="M268 6c13 0 13 -20 0 -20h-81h-143c-5 0 -10 5 -10 10v11v122v192v177v78c0 5 5 10 10 10h80h144c5 0 10 -5 10 -10v-11v-122v-192v-177v-78c0 -13 -20 -13 -20 0v11v122v192v177v78c3 -4 6 -7 10 -10h-81h-143c3 3 7 6 10 10v-11v-122v-192v-177v-78l-10 10h80h144z
M347 784c4 3 11 1 13 -4c3 -5 1 -10 -3 -14l-93 -66c-44 -31 -87 -62 -130 -94c-5 -3 -8 -5 -14 -4c-11 3 -21 6 -32 8c-24 6 -47 11 -71 17c-7 2 -10 12 -4 17c36 31 71 63 107 94c22 19 44 39 66 58c7 6 13 12 20 18c4 4 8 8 15 6c44 -11 89 -23 133 -35
c13 -4 8 -23 -5 -20c0 1 0 1 -1 1c-44 12 -89 23 -133 35c3 1 6 2 10 3c-33 -29 -65 -57 -97 -86c-34 -29 -67 -59 -101 -88c-1 5 -3 11 -4 16c34 -8 69 -16 104 -25c-3 0 -5 0 -8 -1l2 2c40 28 80 57 120 86c36 25 71 51 106 76z" />
    <glyph glyph-name="icircumflex" unicode="&#xee;" horiz-adv-x="252" 
d="M243 11c12 0 12 -21 0 -21h-81h-143c-5 0 -10 5 -10 10v12v121v191v176v78c0 5 5 10 10 10h80h144c4 0 9 -5 9 -10v-10v-123v-190v-177v-78c0 -12 -19 -12 -19 0v12v121v191v176v78c3 -3 6 -6 10 -9h-81h-143c4 3 8 6 11 9v-10v-123v-190v-177v-78c-3 4 -7 8 -11 11h80
h144zM193 656c9 -11 -5 -25 -14 -15c-20 23 -41 46 -61 68h14c-11 -11 -22 -23 -33 -35c-7 -8 -13 -16 -21 -24c-4 -5 -8 -12 -15 -12h-134c-8 0 -12 11 -6 18c32 34 65 69 98 103c16 17 33 33 48 51l3 3c4 3 8 3 13 3h41h40c3 0 8 0 11 -3c1 -2 2 -3 3 -4
c16 -18 33 -34 50 -51c33 -34 66 -69 99 -102c6 -7 2 -18 -6 -18h-137c-12 0 -12 20 0 20h1h136c-3 -6 -6 -12 -8 -17c-17 18 -36 36 -52 54c-35 35 -68 68 -101 103c3 -1 4 -2 6 -3h-88c3 1 5 2 7 3c-17 -17 -33 -35 -51 -52c-32 -36 -66 -70 -99 -105c-2 6 -6 13 -8 17
h134c-2 -1 -4 -2 -6 -2c20 22 40 45 61 69c3 3 11 3 14 0c21 -24 41 -47 61 -69z" />
    <glyph glyph-name="idieresis" unicode="&#xef;" horiz-adv-x="268" 
d="M246 11c12 0 12 -20 0 -20h-80h-142c-6 0 -10 5 -10 10v11v121v190v175v77c0 5 4 10 10 10h79h143c5 0 10 -5 10 -10v-11v-121v-189v-176v-77c0 -13 -20 -13 -20 0v11v121v190v175v77c3 -4 6 -7 10 -10h-80h-142c3 3 7 6 10 10v-11v-121v-189v-176v-77l-10 10h79h143z
M92 633c13 0 13 -19 0 -19h-13h-147c-5 0 -10 3 -10 9v14v147c0 5 5 10 10 10h14h146c6 0 10 -5 10 -10v-14v-147c0 -12 -19 -12 -19 0v14v147c3 -4 7 -7 9 -10h-13h-147c3 3 7 6 10 10v-14v-147c-3 3 -7 6 -10 10h14h146zM336 633c13 0 13 -19 0 -19h-14h-146
c-5 0 -10 3 -10 9v14v147c0 5 5 10 10 10h13h147c6 0 10 -5 10 -10v-14v-147c0 -12 -20 -12 -20 0v14v147l10 -10h-14h-146c3 3 6 7 9 10v-14v-147c-3 3 -6 7 -9 10h13h147z" />
    <glyph glyph-name="igrave" unicode="&#xec;" horiz-adv-x="372" 
d="M334 11c13 0 13 -20 0 -20h-81h-143c-6 0 -10 5 -10 10v11v122v192v177v78c0 5 4 10 10 10h80h144c5 0 10 -5 10 -10v-11v-122v-192v-177v-78c0 -13 -20 -13 -20 0v11v122v192v177v78c3 -4 6 -7 10 -10h-81h-143c3 3 7 6 10 10v-11v-122v-192v-177v-78l-10 10h80h144z
M25 789c-4 3 -11 1 -13 -4c-3 -5 -1 -10 3 -14c31 -22 62 -44 94 -66c43 -31 86 -62 129 -94c5 -3 8 -5 14 -4c11 3 21 6 32 8c24 6 47 11 71 17c7 2 10 12 4 17c-36 31 -71 63 -107 94c-22 19 -44 39 -66 58c-6 6 -13 12 -20 18c-4 4 -8 8 -15 6c-44 -11 -89 -23 -133 -35
c-13 -4 -8 -23 5 -20c0 1 0 1 1 1c44 12 89 23 133 35c-3 1 -6 2 -10 3c33 -29 65 -57 97 -86c34 -29 67 -59 101 -88c1 5 3 11 4 16c-34 -8 -69 -16 -104 -25c3 0 5 0 8 -1l-2 2c-40 28 -80 57 -120 86c-35 25 -71 51 -106 76z" />
    <glyph glyph-name="imacron" unicode="&#x12b;" 
 />
    <glyph glyph-name="iogonek" unicode="&#x12f;" 
 />
    <glyph glyph-name="j" unicode="j" horiz-adv-x="272" 
d="M15 -220c13 0 13 -20 0 -20c-49 0 -97 13 -140 37c-26 15 -49 34 -72 53c-3 2 -4 9 -2 12c9 12 17 24 26 36c28 41 56 82 85 122c3 6 10 7 15 2c5 -4 9 -7 14 -11c9 -9 19 -17 29 -26c8 -6 17 -13 27 -16c5 -1 10 -1 15 0h3c3 1 -1 0 1 1c0 0 1 0 1 1c-2 -2 -1 -1 0 -1
c2 2 3 5 4 9c1 5 2 11 2 16v2v10v125v193v177v77c0 5 4 10 10 10h75h144c5 0 10 -5 10 -10v-32v-149v-196v-162c0 -38 2 -78 -9 -116c-14 -49 -45 -90 -87 -119c-44 -31 -97 -45 -151 -45c-13 0 -13 20 0 20c59 0 117 19 161 58c36 33 59 76 64 125c2 14 2 28 2 42v128v193
v176v77l10 -10h-75h-144l10 10v-6v-110v-188v-183v-95c0 -13 -1 -26 -9 -37c-13 -18 -41 -13 -57 -4c-14 8 -25 19 -37 29c-9 8 -18 15 -27 23c5 1 11 1 16 2c-9 -12 -17 -24 -25 -36c-29 -41 -57 -81 -85 -122c-1 4 -1 8 -2 12c22 -17 43 -35 66 -49c41 -23 86 -35 132 -35
z" />
    <glyph glyph-name="k" unicode="k" horiz-adv-x="630" 
d="M443 10c9 -9 -5 -23 -14 -14c-18 17 -36 35 -53 52c-35 34 -69 67 -103 101c5 1 10 1 15 2c-12 -20 -24 -40 -35 -60c0 2 0 4 1 5v-93c0 -5 -5 -10 -10 -10h-68h-146c-5 0 -10 5 -10 10v9v94v165v196v189v142v56c0 6 5 10 10 10h68h146c5 0 10 -4 10 -10v-14v-146v-192
v-95c-6 1 -13 3 -19 5c4 4 8 9 11 14c36 46 71 92 107 138c5 7 10 13 15 20c2 2 3 4 5 6c3 1 6 1 9 1h66h146c7 0 13 -9 8 -15c-6 -9 -12 -19 -19 -28c-34 -50 -68 -100 -102 -149c-22 -33 -44 -65 -66 -97c-1 4 -1 8 -2 12c20 -25 40 -49 60 -73c40 -50 80 -100 121 -149
c22 -28 44 -55 66 -82c5 -6 2 -17 -7 -17h-72h-145c-13 0 -13 20 0 20h72h145c-2 -6 -5 -11 -7 -17c-20 24 -40 49 -60 73c-40 50 -80 100 -121 149c-22 27 -44 55 -66 82c-3 3 -4 8 -2 12c7 9 13 19 20 28c34 50 68 100 102 149c22 33 44 65 66 97l9 -15h-70h-146
c3 2 6 3 9 5c-15 -20 -31 -40 -46 -60c-30 -38 -59 -76 -88 -114c-3 -4 -7 -6 -12 -5c-4 1 -7 5 -7 10v14v146v192v95c3 -3 7 -6 10 -10h-68h-146l10 10v-9v-94v-164v-197v-189v-142v-56c-3 3 -6 7 -10 10h68h146l-10 -10v25v48v16c0 4 0 7 2 10c11 20 23 39 35 59
c3 6 11 7 16 2c17 -17 35 -35 53 -52c34 -34 69 -67 103 -101z" />
    <glyph glyph-name="kcommaaccent" unicode="&#x137;" 
 />
    <glyph glyph-name="l" unicode="l" horiz-adv-x="260" 
d="M240 12c13 0 13 -21 0 -21h-76h-144c-6 0 -10 5 -10 11v8v94v165v196v189v142v57c0 5 4 10 10 10h75h145c5 0 10 -5 10 -10v-9v-94v-165v-196v-189v-142v-56c0 -13 -20 -13 -20 0v8v94v165v196v189v142v57c3 -4 6 -7 10 -10h-76h-144l10 10v-9v-94v-165v-196v-189v-142
v-56c-4 3 -7 6 -10 10h75h145z" />
    <glyph glyph-name="lacute" unicode="&#x13a;" 
d="M240 12c13 0 13 -21 0 -21h-76h-144c-6 0 -10 5 -10 11v8v94v165v196v189v142v57c0 5 4 10 10 10h75h145c5 0 10 -5 10 -10v-9v-94v-165v-196v-189v-142v-56c0 -13 -20 -13 -20 0v8v94v165v196v189v142v57c3 -4 6 -7 10 -10h-76h-144l10 10v-9v-94v-165v-196v-189v-142
v-56c-4 3 -7 6 -10 10h75h145z" />
    <glyph glyph-name="lcaron" unicode="&#x13e;" 
 />
    <glyph glyph-name="lcommaaccent" unicode="&#x13c;" 
 />
    <glyph glyph-name="lslash" unicode="&#x142;" 
 />
    <glyph glyph-name="m" unicode="m" horiz-adv-x="944" 
d="M714 -1c0 -12 -20 -12 -20 0v51v187v66v10c0 12 -1 25 -4 37c-2 5 -3 9 -6 13c-1 3 -1 3 -3 5c-1 1 -4 3 -1 1c-1 1 -2 2 -4 2c0 1 -1 1 -2 1c2 0 -1 1 -1 1c-2 0 -4 1 -7 1c-11 3 -25 2 -36 -1c-10 -3 -19 -7 -27 -14c-1 -2 -3 -3 -5 -5c-1 -2 2 2 0 0c0 -1 -1 -2 -1 -2
c-1 -2 -2 -3 -3 -5c-2 -3 -3 -8 -4 -12c-2 -6 -2 -12 -3 -18v-4v-18v-174v-122c0 -5 -4 -10 -10 -10h-64h-146c-5 0 -10 5 -10 10v43v186v70v14c0 8 0 16 -1 24c0 4 -1 8 -2 13c-1 1 -1 3 -2 5c0 0 -2 5 0 2l-3 6c-2 2 0 -1 0 -1c-1 1 -1 1 -1 2c-2 2 -4 3 -9 5
c-5 3 -10 4 -15 6c-22 4 -49 -3 -63 -21c-13 -16 -11 -40 -11 -60v-171v-123c0 -5 -4 -10 -10 -10h-76h-144c-5 0 -10 5 -10 10v12v123v192v177v77c0 6 5 10 10 10h76h144c6 0 10 -4 10 -10v-18l-15 9c24 10 48 19 73 23c26 4 52 4 78 1c48 -7 93 -26 129 -59h-14
c42 32 91 53 144 59c54 7 110 0 159 -24c43 -22 80 -57 102 -100c20 -40 28 -85 28 -129v-43v-184v-116c0 -5 -5 -10 -10 -10h-76h-144c-13 0 -13 21 0 21h76h144c-4 -4 -7 -7 -10 -11v18v167v151c0 31 -3 62 -12 92c-14 45 -41 84 -80 110c-43 29 -94 41 -145 40
c-59 0 -115 -19 -162 -56c-4 -3 -10 -4 -14 0c-32 31 -74 48 -117 54c-24 3 -49 4 -72 0c-23 -5 -45 -12 -67 -22c-7 -3 -15 1 -15 9v18c3 -3 7 -6 10 -10h-76h-144c3 4 7 7 10 10v-11v-123v-192v-177v-78c-3 4 -7 7 -10 11h76h144c-3 -4 -7 -7 -10 -11v62v188v56
c0 11 1 23 3 34c6 24 24 42 48 51c23 8 52 7 74 -7c9 -7 15 -17 18 -28c5 -20 4 -41 4 -61v-173v-122c-3 4 -6 7 -10 11h64h146c-3 -4 -6 -7 -10 -11v69v188v56c0 11 1 22 5 33c5 16 14 27 28 36c22 14 51 19 76 12c17 -5 26 -17 31 -33c7 -21 7 -44 7 -66v-173v-122z" />
    <glyph glyph-name="n" unicode="n" horiz-adv-x="575" 
d="M346 1c0 -13 -20 -13 -20 0v16v172v84v43c-1 10 -2 20 -5 30c0 0 -1 1 -1 2c1 -2 0 0 0 0c-1 1 -1 2 -2 3c0 1 -1 2 -1 2c2 -3 1 -1 0 0c-2 2 2 -1 -1 1c-8 4 -22 4 -32 2c-9 -2 -18 -7 -24 -13l-3 -3s2 2 0 0c0 0 0 -1 -1 -1c-2 -4 -2 -5 -3 -8c-3 -9 -4 -18 -4 -27v-12
v-167v-124c0 -6 -5 -11 -10 -11h-75h-144c-5 0 -10 5 -10 11v10v122v192v178v77c0 6 5 10 10 10h75h144c5 0 10 -4 10 -10v-19c-4 3 -9 6 -13 9c5 2 9 4 14 5c53 17 114 16 166 -3c46 -18 87 -50 113 -92c26 -43 36 -94 36 -145v-36v-182v-116c0 -6 -5 -11 -10 -11h-75h-144
c-13 0 -13 21 0 21h74h145l-10 -10v111v183v40c0 46 -9 93 -32 132c-24 41 -63 72 -108 87c-53 18 -112 18 -163 -3c-7 -2 -13 4 -13 10v19c3 -3 7 -6 10 -10h-75h-144c3 4 7 7 10 10v-10v-123v-191v-178v-77c-3 3 -7 6 -10 10h75h144c-3 -4 -7 -7 -10 -10v30v181v74
c0 21 -2 43 9 62c10 15 29 26 46 28c19 3 44 2 53 -18s9 -43 9 -65v-169v-123z" />
    <glyph glyph-name="nacute" unicode="&#x144;" 
d="M346 1c0 -13 -20 -13 -20 0v16v172v84v43c-1 10 -2 20 -5 30c0 0 -1 1 -1 2c1 -2 0 0 0 0c-1 1 -1 2 -2 3c0 1 -1 2 -1 2c2 -3 1 -1 0 0c-2 2 2 -1 -1 1c-8 4 -22 4 -32 2c-9 -2 -18 -7 -24 -13l-3 -3s2 2 0 0c0 0 0 -1 -1 -1c-2 -4 -2 -5 -3 -8c-3 -9 -4 -18 -4 -27v-12
v-167v-124c0 -6 -5 -11 -10 -11h-75h-144c-5 0 -10 5 -10 11v10v122v192v178v77c0 6 5 10 10 10h75h144c5 0 10 -4 10 -10v-19c-4 3 -9 6 -13 9c5 2 9 4 14 5c53 17 114 16 166 -3c46 -18 87 -50 113 -92c26 -43 36 -94 36 -145v-36v-182v-116c0 -6 -5 -11 -10 -11h-75h-144
c-13 0 -13 21 0 21h74h145l-10 -10v111v183v40c0 46 -9 93 -32 132c-24 41 -63 72 -108 87c-53 18 -112 18 -163 -3c-7 -2 -13 4 -13 10v19c3 -3 7 -6 10 -10h-75h-144c3 4 7 7 10 10v-10v-123v-191v-178v-77c-3 3 -7 6 -10 10h75h144c-3 -4 -7 -7 -10 -10v30v181v74
c0 21 -2 43 9 62c10 15 29 26 46 28c19 3 44 2 53 -18s9 -43 9 -65v-169v-123z" />
    <glyph glyph-name="ncaron" unicode="&#x148;" 
 />
    <glyph glyph-name="ncommaaccent" unicode="&#x146;" 
 />
    <glyph glyph-name="eng" unicode="&#x14b;" 
 />
    <glyph glyph-name="ntilde" unicode="&#xf1;" horiz-adv-x="575" 
d="M133 628c1 -13 -19 -13 -20 0c-1 45 8 101 48 128c16 11 35 15 54 14c29 -1 54 -15 79 -29c12 -7 24 -15 38 -18c5 -2 9 -2 14 -2c0 0 3 0 0 0h3c1 1 3 1 4 2c-3 -1 0 0 1 0c1 1 1 1 2 1c-2 -1 1 2 2 2c0 1 2 3 0 1l2 2c1 2 2 3 3 5c-1 -1 0 2 0 3c1 1 1 2 1 3
c1 3 2 5 2 8c1 6 2 12 2 18c1 5 4 10 10 10h60c6 0 10 -5 10 -10c1 -44 -5 -97 -44 -124c-15 -10 -33 -15 -50 -15c-31 -1 -59 12 -85 26c-11 6 -22 14 -33 18c-5 2 -9 3 -14 4c2 0 -1 0 -1 0h-3h-3c2 0 -1 0 -1 0c-1 0 -4 -2 -2 -1c-1 0 -2 -1 -2 -1c-3 -2 1 1 -1 -1
c-1 0 -2 -1 -2 -2c-2 -2 -4 -5 -6 -9c-4 -10 -6 -22 -7 -33c0 -6 -4 -10 -10 -10h-61c-13 0 -13 20 0 20h61c-3 -3 -6 -7 -10 -10c2 22 6 53 29 64c22 10 47 -5 66 -16c25 -15 53 -30 82 -29c16 0 31 3 44 13c-1 -1 2 1 2 2c1 0 1 1 2 1c1 2 3 3 4 4c1 2 3 3 4 5
c-1 -2 1 1 1 1c0 1 1 2 1 2c5 8 8 15 11 23c7 22 8 45 8 68c3 -4 7 -7 10 -10h-60c4 3 7 6 10 10c-1 -21 -4 -50 -25 -60c-22 -12 -47 0 -67 11c-24 13 -49 31 -76 33c-11 1 -19 1 -28 -2c-8 -2 -14 -4 -21 -10c-5 -3 -12 -11 -16 -16c-5 -8 -10 -16 -13 -24
c-7 -23 -9 -46 -9 -70zM346 -1c0 -13 -20 -13 -20 0v17v171v85v43c-1 10 -2 20 -5 29c0 1 -1 2 -1 3c1 -3 0 -1 0 0c-1 1 -1 2 -2 3c0 1 -1 1 -1 2c2 -3 1 -1 0 -1c-2 2 2 0 -1 1c-8 5 -22 5 -32 3c-9 -3 -18 -7 -24 -14c-1 -1 -2 -1 -3 -2c-1 -2 2 2 0 0c0 -1 0 -1 -1 -2
c-2 -3 -2 -5 -3 -8c-3 -9 -4 -18 -4 -27v-12v-167v-124c0 -5 -5 -10 -10 -10h-75h-144c-5 0 -10 5 -10 10v11v122v192v177v78c0 5 5 10 10 10h75h144c5 0 10 -5 10 -10v-20c-4 3 -8 7 -13 10c5 2 9 3 14 5c53 17 114 16 166 -4c46 -17 87 -49 113 -92s36 -94 36 -144v-36
v-182v-117c0 -5 -5 -10 -10 -10h-75h-144c-13 0 -13 20 0 20h74h145c-4 -3 -7 -7 -10 -10v111v184v40c0 45 -8 92 -32 132s-63 72 -108 87c-53 18 -112 17 -163 -3c-7 -3 -13 3 -13 9v20l10 -10h-75h-144l10 10v-11v-122v-192v-177v-78l-10 10h75h144l-10 -10v30v182v74
c0 20 -1 43 9 61c10 16 29 26 47 29c18 2 43 1 52 -19c10 -20 9 -43 9 -65v-169v-123z" />
    <glyph glyph-name="o" unicode="o" horiz-adv-x="589" 
d="M10 290c0 -12 -20 -12 -20 0c0 84 36 166 98 222c69 62 164 90 255 73c89 -16 168 -73 210 -152c44 -82 48 -182 10 -266c-37 -82 -111 -145 -198 -167c-91 -23 -188 -2 -261 55c-71 57 -114 144 -114 235c0 13 20 13 20 0c0 -60 20 -119 56 -168
c53 -70 138 -112 227 -111c87 1 172 44 223 116c53 73 68 168 39 254c-28 82 -95 148 -178 175c-85 28 -181 13 -253 -40c-71 -53 -114 -137 -114 -226zM289 195c-13 0 -13 20 0 20c37 0 71 29 75 66c3 38 -22 74 -60 82c-41 8 -85 -22 -89 -65c-2 -21 4 -43 19 -58
c14 -16 34 -25 55 -25c13 0 13 -20 0 -20c-11 0 -23 2 -33 6c-21 8 -40 24 -51 45s-14 46 -7 69c13 47 61 77 109 68c47 -9 82 -54 77 -102c-3 -23 -13 -45 -31 -61c-17 -16 -40 -25 -64 -25z" />
    <glyph glyph-name="oacute" unicode="&#xf3;" horiz-adv-x="589" 
d="M10 289c0 -12 -20 -12 -20 0c1 84 36 166 99 222c68 62 163 90 255 73c88 -16 167 -73 210 -152c44 -82 47 -182 9 -266c-37 -82 -111 -145 -198 -167c-90 -23 -187 -2 -260 55c-72 57 -114 144 -115 235c0 13 20 13 20 0c1 -60 20 -119 56 -168
c53 -70 139 -112 227 -111s172 44 224 116c52 73 67 168 38 254c-28 82 -95 148 -177 175c-86 28 -181 13 -254 -40c-71 -53 -113 -137 -114 -226zM290 194c-13 0 -13 20 0 20c37 0 71 29 74 66c3 38 -21 74 -59 82c-42 8 -86 -22 -90 -65c-2 -21 4 -43 19 -58
c14 -16 34 -25 56 -25c12 0 12 -20 0 -20s-23 2 -34 6c-21 8 -40 24 -50 45c-11 21 -14 46 -8 69c14 47 61 77 109 68c47 -9 82 -54 77 -102c-2 -23 -13 -45 -30 -61c-18 -16 -41 -25 -64 -25zM423 786c4 3 11 0 14 -4c2 -5 0 -10 -4 -14c-31 -22 -62 -44 -93 -67
c-44 -31 -87 -62 -130 -93c-5 -3 -8 -5 -14 -4c-11 3 -21 6 -32 8c-23 6 -47 11 -70 17c-7 2 -10 12 -5 17c36 31 71 63 107 94c22 19 44 39 66 58c7 6 13 12 20 18c4 4 8 8 15 6c45 -12 89 -23 134 -35c12 -4 7 -23 -6 -20v1c-45 11 -89 23 -134 35c3 1 7 2 10 3
c-33 -29 -65 -57 -97 -86c-34 -29 -67 -59 -101 -88c-1 5 -3 11 -4 16c35 -8 69 -16 104 -25c-3 0 -5 0 -8 -1c1 1 1 1 2 1c40 29 80 58 121 87c35 25 70 50 105 76z" />
    <glyph glyph-name="ocircumflex" unicode="&#xf4;" horiz-adv-x="589" 
d="M10 287c0 -12 -20 -12 -20 0c1 84 36 166 99 222c69 62 163 90 255 73c88 -16 167 -73 210 -152c44 -82 47 -182 9 -266c-37 -82 -111 -145 -198 -167c-90 -23 -187 -2 -260 55c-72 57 -114 144 -115 235c0 13 20 13 20 0c1 -60 20 -119 56 -168
c53 -70 139 -112 227 -111s173 44 224 116c52 73 67 168 38 254c-28 82 -95 148 -177 175c-86 28 -181 13 -254 -40c-71 -53 -113 -137 -114 -226zM290 192c-13 0 -13 20 0 20c37 0 71 29 74 66c3 38 -21 74 -59 82c-42 8 -86 -22 -90 -65c-2 -21 4 -43 19 -58
c15 -16 34 -25 56 -25c12 0 12 -20 0 -20s-23 2 -34 6c-21 8 -40 24 -50 45c-11 21 -14 46 -8 69c14 47 61 77 109 68c47 -9 82 -54 77 -102c-2 -23 -13 -45 -30 -61c-18 -16 -40 -25 -64 -25zM357 652c8 -10 -6 -24 -15 -14c-20 23 -41 46 -61 69h14
c-11 -12 -22 -24 -33 -37c-7 -8 -14 -15 -21 -23c-3 -5 -8 -12 -14 -12h-135c-9 0 -13 11 -7 17c33 35 66 70 99 104l48 51l3 3c4 3 8 3 12 3h42h40c4 0 7 0 11 -3c1 -2 2 -3 3 -4c17 -17 33 -34 50 -51c33 -34 67 -69 100 -103c6 -6 2 -17 -7 -17h-136c-13 0 -13 20 0 20
h136c-2 -6 -5 -11 -7 -17c-18 18 -36 36 -53 54c-34 35 -67 69 -101 104c3 -1 5 -2 7 -3h-90c3 1 5 2 8 3c-17 -18 -34 -36 -51 -53c-33 -35 -67 -70 -100 -105c-2 6 -5 11 -7 17h135c-3 -1 -5 -2 -7 -3c20 23 40 46 61 69c3 4 11 4 14 0c21 -23 41 -46 62 -69z" />
    <glyph glyph-name="odieresis" unicode="&#xf6;" horiz-adv-x="589" 
d="M10 291c-1 -13 -21 -13 -20 0c2 84 40 165 104 219c70 61 166 86 257 67c88 -18 165 -77 205 -158c42 -83 44 -183 3 -266c-39 -81 -115 -142 -202 -162c-91 -20 -188 3 -259 62c-70 58 -110 147 -108 238c0 13 20 13 20 0c-2 -60 16 -120 51 -169
c51 -72 135 -117 223 -118s174 39 227 109c55 72 72 167 46 253c-26 83 -91 152 -173 181c-85 30 -180 18 -254 -34c-73 -50 -118 -134 -120 -222zM287 188c-13 0 -13 20 0 20c36 -1 72 26 76 64c2 19 -2 38 -13 54c-10 15 -26 25 -44 29c-21 5 -43 1 -60 -11
s-29 -31 -31 -51c-3 -21 3 -43 17 -59s33 -25 55 -26c12 -1 12 -21 0 -20c-12 0 -23 2 -34 7c-44 18 -70 69 -55 115c15 47 63 76 111 65c46 -10 80 -55 74 -103c-3 -23 -14 -45 -32 -61c-18 -15 -41 -24 -64 -23zM253 640c13 0 13 -20 0 -20h-13h-149c-5 0 -10 4 -10 10v14
v148c0 5 5 10 10 10h14h148c6 0 10 -5 10 -10v-14v-148c0 -13 -20 -13 -20 0v14v148c4 -3 7 -7 10 -10h-13h-149c4 3 7 7 10 10v-14v-148c-3 3 -6 7 -10 10h14h148zM499 640c13 0 13 -20 0 -20h-14h-148c-5 0 -10 5 -10 10v14v148c0 5 5 10 10 10h14h148c6 0 10 -5 10 -10
v-14v-148c0 -13 -20 -13 -20 0v14v148c4 -3 7 -7 10 -10h-14h-148c4 3 7 7 10 10v-14v-148c-3 3 -6 7 -10 10h14h148z" />
    <glyph glyph-name="ograve" unicode="&#xf2;" horiz-adv-x="589" 
d="M121 782c-4 3 -11 0 -13 -4c-3 -5 -1 -10 3 -14c31 -22 62 -44 93 -67c44 -31 87 -62 130 -93c5 -3 8 -5 14 -4c11 3 21 5 32 8c24 6 47 11 71 17c7 2 10 12 4 17c-36 31 -71 62 -107 94c-22 19 -44 39 -66 58c-7 6 -13 12 -20 18c-4 4 -8 8 -15 6
c-44 -12 -89 -24 -133 -35c-13 -4 -8 -23 5 -20l1 1c44 11 89 23 133 35c-3 1 -6 2 -10 3c33 -29 65 -57 97 -86c34 -29 67 -59 101 -88c1 5 3 11 4 16c-34 -8 -69 -16 -104 -25c3 0 5 0 8 -1c-1 1 -1 1 -2 1l-120 87c-35 25 -71 50 -106 76zM10 287c0 -12 -20 -12 -20 0
c1 84 36 166 99 222c68 62 163 90 255 73c88 -16 167 -73 210 -152c44 -82 47 -182 9 -266c-37 -82 -111 -145 -198 -167c-90 -23 -187 -2 -260 55c-72 57 -114 144 -115 235c0 13 20 13 20 0c1 -60 20 -119 56 -168c53 -70 139 -112 227 -111s172 44 224 116
c52 73 67 168 38 254c-28 82 -95 148 -177 175c-86 28 -181 13 -254 -40c-71 -53 -113 -137 -114 -226zM290 192c-13 0 -13 20 0 20c37 0 71 29 74 66c3 38 -21 74 -59 82c-42 8 -86 -22 -90 -65c-2 -21 4 -43 19 -58c14 -16 34 -25 56 -25c12 0 12 -20 0 -20s-23 2 -34 6
c-21 8 -40 24 -50 45c-11 21 -14 46 -8 69c14 47 61 77 109 68c47 -9 82 -54 77 -102c-3 -23 -13 -45 -30 -61c-18 -16 -41 -25 -64 -25z" />
    <glyph glyph-name="ohungarumlaut" unicode="&#x151;" 
 />
    <glyph glyph-name="omacron" unicode="&#x14d;" 
 />
    <glyph glyph-name="oslash" unicode="&#xf8;" 
 />
    <glyph glyph-name="otilde" unicode="&#xf5;" 
 />
    <glyph glyph-name="oe" unicode="&#x153;" 
 />
    <glyph glyph-name="p" unicode="p" horiz-adv-x="644" 
d="M30 -229c0 -13 -20 -13 -20 0v68v152v193v192v147v58c0 6 5 10 10 10h77h144c5 0 10 -5 10 -10v-18l-15 9c16 8 33 17 50 21c19 5 39 6 58 5c40 -1 79 -9 116 -25c47 -21 89 -55 119 -96s47 -90 53 -140c5 -52 1 -107 -18 -157c-18 -48 -48 -90 -88 -123
c-41 -33 -89 -57 -141 -64c-27 -4 -54 -5 -81 -1c-24 5 -46 16 -68 28c5 2 10 5 15 8v-121v-136c0 -5 -5 -10 -10 -10h-76h-145c-12 0 -12 20 0 20h77h144c-4 -3 -7 -6 -10 -10v122v135c0 8 8 12 15 9c25 -14 51 -25 80 -27c31 -2 62 1 91 10c50 15 94 45 128 83
c33 37 54 82 63 131c10 50 8 105 -7 155c-14 46 -41 88 -78 120c-38 33 -85 56 -136 65c-25 4 -52 6 -78 3c-23 -3 -43 -12 -63 -23c-7 -3 -15 1 -15 9v18c3 -4 6 -7 10 -10h-76h-145c4 3 7 7 10 10v-67v-152v-194v-192v-146v-59zM330 417c13 0 13 -20 0 -20
c-14 0 -28 -3 -41 -10c-44 -25 -59 -81 -46 -128c7 -23 21 -43 41 -54c20 -13 46 -15 69 -9s44 21 56 41c13 21 17 46 14 70c-2 24 -12 46 -29 63c-18 17 -39 27 -64 27c-13 0 -13 20 0 20c20 0 40 -5 57 -16s32 -26 41 -44c25 -44 22 -107 -12 -145
c-17 -19 -41 -33 -66 -37c-26 -4 -53 -2 -76 12c-22 14 -39 34 -47 58c-9 25 -10 54 -5 80c5 25 18 48 37 65c20 18 44 27 71 27z" />
    <glyph glyph-name="thorn" unicode="&#xfe;" 
 />
    <glyph glyph-name="q" unicode="q" horiz-adv-x="644" 
d="M413 -229c0 -13 -20 -13 -20 0v121v135c5 -3 10 -5 15 -8c-17 -9 -34 -18 -52 -24c-19 -5 -39 -7 -58 -6c-40 0 -79 9 -114 25c-48 22 -90 58 -120 101c-30 42 -46 91 -52 142c-5 52 -1 107 19 156c18 47 48 88 88 119c41 33 90 55 142 62c27 4 54 5 81 1
c24 -3 45 -14 66 -24l-15 -9v18c0 5 5 10 10 10h77h144c5 0 10 -4 10 -10v-67v-152v-194v-191v-147v-59c0 -5 -5 -10 -10 -10h-77c-48 0 -96 0 -144 1c-13 0 -13 20 0 20c26 0 51 -1 77 -1h144c-4 -3 -7 -6 -10 -10v1v67v152v193v192v147v58l10 -10h-77h-144c4 3 7 6 10 10
v-18c0 -8 -8 -12 -15 -8c-12 6 -25 13 -38 17s-26 6 -40 6c-31 1 -62 -2 -92 -10c-49 -14 -93 -42 -128 -79c-33 -36 -55 -80 -64 -128c-10 -51 -8 -106 7 -155c14 -48 40 -90 77 -124c38 -35 84 -59 135 -68c25 -5 52 -7 77 -3c24 4 45 15 66 26c7 3 15 -1 15 -9v-121v-135
zM235 382c9 9 23 -5 14 -14c-10 -10 -18 -22 -22 -35c-8 -23 -10 -50 -3 -74c7 -23 22 -41 42 -54c21 -12 46 -16 70 -11c22 5 42 20 54 40c13 21 17 47 15 71c-3 24 -12 47 -29 65c-17 17 -38 27 -63 26c-25 0 -47 -11 -64 -28c-9 -9 -23 5 -14 14c14 14 31 26 51 31
c20 4 42 5 61 -2c24 -7 45 -25 59 -47s20 -49 19 -75c-1 -25 -7 -51 -22 -72c-15 -20 -37 -37 -62 -42c-26 -6 -53 -3 -77 9c-22 11 -42 30 -53 53c-21 47 -13 107 24 145z" />
    <glyph glyph-name="r" unicode="r" horiz-adv-x="427" 
d="M25 1c0 -13 -20 -13 -20 0v10v122v192v177v78c0 5 5 10 10 10h80h143c6 0 10 -5 10 -10c0 -13 1 -25 1 -38c-6 2 -12 5 -17 7c18 16 38 28 61 34c20 5 42 7 62 7c19 0 37 1 56 1c5 0 10 -5 10 -10v-71c0 -48 1 -97 1 -145c0 -6 -5 -10 -10 -10c-20 0 -40 -1 -60 -1
c-18 0 -37 -2 -52 -10c-3 -1 -6 -3 -9 -5c-2 -2 -3 -2 -6 -5l-6 -6c-2 -3 -2 -3 -5 -6c-21 -31 -26 -70 -26 -108v-68v-145c0 -5 -4 -10 -10 -10h-79h-144c-13 0 -13 20 0 20h80h143l-10 -10v130v78c0 34 3 69 17 101c7 16 17 31 31 42c17 14 38 20 60 22c25 2 51 1 76 1
c-4 -3 -7 -7 -10 -10c0 24 0 48 -1 71v145l10 -10c-19 0 -37 -1 -55 -1c-19 0 -37 -1 -55 -6c-20 -5 -39 -15 -55 -29c-7 -6 -17 -2 -17 7c0 13 -1 25 -1 38l10 -10h-79h-144c4 3 7 7 10 10v-10v-122v-192v-177v-78z" />
    <glyph glyph-name="racute" unicode="&#x155;" 
d="M25 1c0 -13 -20 -13 -20 0v10v122v192v177v78c0 5 5 10 10 10h80h143c6 0 10 -5 10 -10c0 -13 1 -25 1 -38c-6 2 -12 5 -17 7c18 16 38 28 61 34c20 5 42 7 62 7c19 0 37 1 56 1c5 0 10 -5 10 -10v-71c0 -48 1 -97 1 -145c0 -6 -5 -10 -10 -10c-20 0 -40 -1 -60 -1
c-18 0 -37 -2 -52 -10c-3 -1 -6 -3 -9 -5c-2 -2 -3 -2 -6 -5l-6 -6c-2 -3 -2 -3 -5 -6c-21 -31 -26 -70 -26 -108v-68v-145c0 -5 -4 -10 -10 -10h-79h-144c-13 0 -13 20 0 20h80h143l-10 -10v130v78c0 34 3 69 17 101c7 16 17 31 31 42c17 14 38 20 60 22c25 2 51 1 76 1
c-4 -3 -7 -7 -10 -10c0 24 0 48 -1 71v145l10 -10c-19 0 -37 -1 -55 -1c-19 0 -37 -1 -55 -6c-20 -5 -39 -15 -55 -29c-7 -6 -17 -2 -17 7c0 13 -1 25 -1 38l10 -10h-79h-144c4 3 7 7 10 10v-10v-122v-192v-177v-78z" />
    <glyph glyph-name="rcaron" unicode="&#x159;" 
 />
    <glyph glyph-name="rcommaaccent" unicode="&#x157;" 
 />
    <glyph glyph-name="s" unicode="s" horiz-adv-x="536" 
d="M279 -15c13 -1 13 -21 0 -20c-28 0 -55 2 -82 8c-53 11 -102 34 -145 65c-25 19 -48 40 -71 61c-5 4 -4 10 0 14c8 10 17 20 25 31c32 38 64 76 95 114c4 5 11 4 15 0c24 -21 48 -44 75 -61c25 -15 53 -26 83 -27c11 -1 26 -1 36 4c1 1 3 2 4 3c0 0 1 1 1 0s0 -3 -1 0
c0 3 1 -1 2 -2c2 -1 0 0 0 0c-1 1 -2 1 -2 2c-6 3 -10 4 -15 6c-11 4 -22 8 -33 11c-28 7 -55 13 -82 22c-51 16 -102 43 -133 88c-32 48 -39 112 -27 167c6 27 17 53 34 75c17 21 38 39 61 53c48 28 104 38 159 36c61 -2 123 -19 175 -50c27 -16 51 -38 76 -58
c3 -3 4 -9 1 -12c-7 -10 -14 -21 -22 -31c-28 -41 -57 -81 -86 -122c-4 -5 -11 -6 -16 -2c-14 13 -29 27 -44 40c-18 15 -43 23 -66 28c-13 2 -26 4 -39 3c-10 -1 -20 -2 -28 -7c2 2 3 4 5 6c-1 -2 0 3 0 -1v-3c0 1 -2 3 -2 3l1 -1c3 -1 5 -2 7 -3c1 -1 2 -1 2 -1
c2 -1 -2 1 0 0c1 0 1 -1 1 -1c3 -1 5 -2 7 -2c6 -3 13 -5 19 -7c41 -12 83 -20 122 -36c44 -19 86 -46 111 -87c27 -45 34 -104 23 -155c-11 -55 -46 -102 -94 -132c-45 -28 -99 -39 -152 -39c-13 -1 -13 19 0 20c71 0 143 22 189 78c36 42 48 100 39 154
c-4 23 -11 46 -24 66c-11 19 -27 34 -45 47c-20 14 -41 25 -63 33c-28 10 -56 17 -84 24c-18 5 -36 10 -53 17c-8 3 -21 7 -23 16c-2 6 -2 15 2 19s10 7 16 8c13 4 28 5 42 4c29 -3 61 -11 87 -27c12 -7 22 -17 32 -26c9 -8 18 -16 26 -24c-5 0 -10 -1 -15 -2
c7 10 14 21 22 31c28 41 57 81 86 122c0 -4 1 -8 1 -12c-25 21 -50 44 -80 60c-53 29 -114 43 -174 42c-53 0 -105 -14 -149 -45c-21 -16 -39 -35 -51 -58c-13 -25 -20 -52 -21 -80c-2 -55 13 -111 57 -148c21 -18 46 -32 72 -42c23 -8 46 -15 70 -21s49 -11 72 -21
c5 -2 11 -4 15 -7s7 -5 9 -9c1 -5 1 -13 -2 -17c-7 -10 -19 -14 -31 -16c-15 -2 -31 -1 -46 1c-30 4 -58 17 -83 34s-47 38 -71 58h15c-9 -10 -17 -20 -26 -31c-32 -38 -63 -76 -95 -114v14c8 -7 16 -14 24 -22c13 -11 25 -22 39 -33c21 -16 44 -30 69 -41
c48 -22 100 -32 152 -32z" />
    <glyph glyph-name="sacute" unicode="&#x15b;" 
d="M279 -15c13 -1 13 -21 0 -20c-28 0 -55 2 -82 8c-53 11 -102 34 -145 65c-25 19 -48 40 -71 61c-5 4 -4 10 0 14c8 10 17 20 25 31c32 38 64 76 95 114c4 5 11 4 15 0c24 -21 48 -44 75 -61c25 -15 53 -26 83 -27c11 -1 26 -1 36 4c1 1 3 2 4 3c0 0 1 1 1 0s0 -3 -1 0
c0 3 1 -1 2 -2c2 -1 0 0 0 0c-1 1 -2 1 -2 2c-6 3 -10 4 -15 6c-11 4 -22 8 -33 11c-28 7 -55 13 -82 22c-51 16 -102 43 -133 88c-32 48 -39 112 -27 167c6 27 17 53 34 75c17 21 38 39 61 53c48 28 104 38 159 36c61 -2 123 -19 175 -50c27 -16 51 -38 76 -58
c3 -3 4 -9 1 -12c-7 -10 -14 -21 -22 -31c-28 -41 -57 -81 -86 -122c-4 -5 -11 -6 -16 -2c-14 13 -29 27 -44 40c-18 15 -43 23 -66 28c-13 2 -26 4 -39 3c-10 -1 -20 -2 -28 -7c2 2 3 4 5 6c-1 -2 0 3 0 -1v-3c0 1 -2 3 -2 3l1 -1c3 -1 5 -2 7 -3c1 -1 2 -1 2 -1
c2 -1 -2 1 0 0c1 0 1 -1 1 -1c3 -1 5 -2 7 -2c6 -3 13 -5 19 -7c41 -12 83 -20 122 -36c44 -19 86 -46 111 -87c27 -45 34 -104 23 -155c-11 -55 -46 -102 -94 -132c-45 -28 -99 -39 -152 -39c-13 -1 -13 19 0 20c71 0 143 22 189 78c36 42 48 100 39 154
c-4 23 -11 46 -24 66c-11 19 -27 34 -45 47c-20 14 -41 25 -63 33c-28 10 -56 17 -84 24c-18 5 -36 10 -53 17c-8 3 -21 7 -23 16c-2 6 -2 15 2 19s10 7 16 8c13 4 28 5 42 4c29 -3 61 -11 87 -27c12 -7 22 -17 32 -26c9 -8 18 -16 26 -24c-5 0 -10 -1 -15 -2
c7 10 14 21 22 31c28 41 57 81 86 122c0 -4 1 -8 1 -12c-25 21 -50 44 -80 60c-53 29 -114 43 -174 42c-53 0 -105 -14 -149 -45c-21 -16 -39 -35 -51 -58c-13 -25 -20 -52 -21 -80c-2 -55 13 -111 57 -148c21 -18 46 -32 72 -42c23 -8 46 -15 70 -21s49 -11 72 -21
c5 -2 11 -4 15 -7s7 -5 9 -9c1 -5 1 -13 -2 -17c-7 -10 -19 -14 -31 -16c-15 -2 -31 -1 -46 1c-30 4 -58 17 -83 34s-47 38 -71 58h15c-9 -10 -17 -20 -26 -31c-32 -38 -63 -76 -95 -114v14c8 -7 16 -14 24 -22c13 -11 25 -22 39 -33c21 -16 44 -30 69 -41
c48 -22 100 -32 152 -32z" />
    <glyph glyph-name="scaron" unicode="&#x161;" 
 />
    <glyph glyph-name="scedilla" unicode="&#x15f;" 
d="M279 -15c13 -1 13 -21 0 -20c-28 0 -55 2 -82 8c-53 11 -102 34 -145 65c-25 19 -48 40 -71 61c-5 4 -4 10 0 14c8 10 17 20 25 31c32 38 64 76 95 114c4 5 11 4 15 0c24 -21 48 -44 75 -61c25 -15 53 -26 83 -27c11 -1 26 -1 36 4c1 1 3 2 4 3c0 0 1 1 1 0s0 -3 -1 0
c0 3 1 -1 2 -2c2 -1 0 0 0 0c-1 1 -2 1 -2 2c-6 3 -10 4 -15 6c-11 4 -22 8 -33 11c-28 7 -55 13 -82 22c-51 16 -102 43 -133 88c-32 48 -39 112 -27 167c6 27 17 53 34 75c17 21 38 39 61 53c48 28 104 38 159 36c61 -2 123 -19 175 -50c27 -16 51 -38 76 -58
c3 -3 4 -9 1 -12c-7 -10 -14 -21 -22 -31c-28 -41 -57 -81 -86 -122c-4 -5 -11 -6 -16 -2c-14 13 -29 27 -44 40c-18 15 -43 23 -66 28c-13 2 -26 4 -39 3c-10 -1 -20 -2 -28 -7c2 2 3 4 5 6c-1 -2 0 3 0 -1v-3c0 1 -2 3 -2 3l1 -1c3 -1 5 -2 7 -3c1 -1 2 -1 2 -1
c2 -1 -2 1 0 0c1 0 1 -1 1 -1c3 -1 5 -2 7 -2c6 -3 13 -5 19 -7c41 -12 83 -20 122 -36c44 -19 86 -46 111 -87c27 -45 34 -104 23 -155c-11 -55 -46 -102 -94 -132c-45 -28 -99 -39 -152 -39c-13 -1 -13 19 0 20c71 0 143 22 189 78c36 42 48 100 39 154
c-4 23 -11 46 -24 66c-11 19 -27 34 -45 47c-20 14 -41 25 -63 33c-28 10 -56 17 -84 24c-18 5 -36 10 -53 17c-8 3 -21 7 -23 16c-2 6 -2 15 2 19s10 7 16 8c13 4 28 5 42 4c29 -3 61 -11 87 -27c12 -7 22 -17 32 -26c9 -8 18 -16 26 -24c-5 0 -10 -1 -15 -2
c7 10 14 21 22 31c28 41 57 81 86 122c0 -4 1 -8 1 -12c-25 21 -50 44 -80 60c-53 29 -114 43 -174 42c-53 0 -105 -14 -149 -45c-21 -16 -39 -35 -51 -58c-13 -25 -20 -52 -21 -80c-2 -55 13 -111 57 -148c21 -18 46 -32 72 -42c23 -8 46 -15 70 -21s49 -11 72 -21
c5 -2 11 -4 15 -7s7 -5 9 -9c1 -5 1 -13 -2 -17c-7 -10 -19 -14 -31 -16c-15 -2 -31 -1 -46 1c-30 4 -58 17 -83 34s-47 38 -71 58h15c-9 -10 -17 -20 -26 -31c-32 -38 -63 -76 -95 -114v14c8 -7 16 -14 24 -22c13 -11 25 -22 39 -33c21 -16 44 -30 69 -41
c48 -22 100 -32 152 -32z" />
    <glyph glyph-name="germandbls" unicode="&#xdf;" horiz-adv-x="757" 
d="M466 6c13 0 13 -20 0 -20c-43 0 -87 9 -126 28c-40 18 -75 47 -103 81c6 2 12 4 17 7v-92c0 -5 -4 -10 -10 -10h-80h-144c-5 0 -10 5 -10 10v35v146v196v175v84c0 92 13 192 79 262c79 82 205 107 313 85c50 -9 96 -31 133 -65c38 -35 66 -80 73 -132
c9 -57 -7 -113 -32 -164c-13 -25 -27 -49 -40 -73l-9 -18c0 -1 -1 -2 -1 -3c-1 -1 1 3 0 1c-1 -4 -3 -7 -3 -11c-1 3 -1 5 -1 8c0 -1 1 -2 2 -3c-2 3 -2 2 -1 1l2 -2c2 -2 5 -5 8 -7c3 -3 3 -3 6 -5c4 -2 7 -5 10 -7c9 -6 17 -12 26 -17c35 -23 70 -47 100 -76
c35 -34 61 -79 68 -128c9 -52 2 -107 -22 -155c-22 -46 -60 -86 -104 -112c-46 -27 -98 -39 -151 -39c-13 0 -13 20 0 20c29 0 58 4 86 12c48 15 90 44 122 83c32 38 50 86 53 137c2 52 -12 105 -46 146c-13 16 -27 29 -43 42c-21 17 -44 33 -66 48c-19 12 -38 25 -56 39
c-2 2 -5 4 -7 7c-2 2 -5 5 -5 8c-2 5 1 11 3 16c4 11 10 22 16 33c14 26 29 51 41 77c22 49 35 104 21 157c-12 48 -43 90 -84 119c-40 30 -89 45 -138 49c-57 5 -116 -2 -169 -24c-47 -21 -90 -52 -117 -96c-26 -40 -37 -86 -42 -133c-5 -41 -5 -83 -5 -124v-154v-196v-170
v-72c-3 4 -6 7 -10 10h81h143l-10 -10v92c0 8 12 14 17 7c27 -33 60 -60 99 -78c36 -17 76 -25 116 -25zM391 260c-7 11 11 21 17 10c10 -18 20 -37 35 -50c1 0 1 -1 2 -1c-3 2 -1 1 -1 0c3 -2 6 -4 9 -5c5 -2 11 -3 16 -2c11 1 22 7 28 16c3 5 4 10 4 15c0 3 -1 5 -2 8
c0 1 -2 3 -1 1c-1 2 -4 4 -6 6s-5 4 -7 6c1 -1 -1 1 -1 1c-1 0 -2 1 -3 2c-2 1 -4 2 -6 4c-10 8 -22 15 -33 23c-22 16 -44 31 -65 48c-22 18 -44 36 -61 59c-31 41 -45 92 -37 143c8 53 37 98 63 143c5 10 10 19 15 29c2 3 3 6 5 10c0 1 1 2 1 3c-1 -3 0 0 1 1
c1 4 3 8 4 12c0 3 1 5 1 8c0 0 1 3 1 1v2v3v0c-1 2 1 -2 -1 1c-2 4 -6 8 -9 10c-9 6 -21 8 -32 8c-13 0 -25 -1 -37 -6c-7 -3 -14 -7 -19 -12c-1 -2 1 1 1 0c-1 0 -1 -1 -2 -2s-1 -3 -2 -4c0 -1 -1 -1 -1 -2c-1 -2 1 2 0 -1c-2 -5 -4 -10 -5 -16c-5 -19 -7 -37 -8 -56
c-2 -41 -1 -82 -1 -123v-192v-106l-15 9h1c43 20 85 40 127 59c5 3 11 2 14 -3c9 -17 18 -33 27 -50c6 -11 -11 -21 -17 -10c-9 17 -18 33 -27 50c4 -1 9 -3 13 -4h-1c-42 -20 -84 -40 -127 -59c-6 -3 -15 0 -15 8v29v171v165c0 17 0 34 1 51c1 21 3 42 7 63
c3 10 6 20 11 29c4 7 9 12 16 17c22 15 51 18 76 13c12 -2 24 -6 32 -15c7 -6 13 -14 13 -24c-1 -15 -7 -30 -13 -43c-21 -43 -50 -83 -67 -127c-10 -26 -15 -54 -13 -82s12 -55 28 -79l6 -9c0 0 1 -1 1 -2c1 0 1 0 1 -1c1 -1 -1 2 0 1c3 -4 6 -8 9 -11c9 -10 20 -20 30 -29
c17 -14 35 -28 52 -41c23 -16 46 -31 67 -47c8 -6 18 -12 23 -20c8 -10 9 -26 4 -37c-5 -13 -15 -24 -27 -30c-12 -5 -27 -8 -39 -4c-10 3 -18 8 -25 15c-15 14 -26 34 -36 52z" />
    <glyph glyph-name="t" unicode="t" horiz-adv-x="449" 
d="M57 767c0 13 20 13 20 0v-18v-149c0 -6 -5 -10 -10 -10h-72l10 10v-73v-145c-4 3 -7 6 -10 10h72c5 0 10 -5 10 -10v-144v-32c0 -5 0 -10 1 -15v-6c0 -1 1 -2 1 -3c0 -3 -1 2 0 0c0 -5 1 -9 2 -14c2 -11 5 -21 8 -31c2 -6 4 -12 6 -17c1 -3 0 0 1 -1c0 -1 0 -2 1 -2
c0 -2 1 -3 2 -4c1 -3 2 -6 4 -9c3 -6 6 -11 10 -17l6 -9c0 0 1 -1 1 -2c-1 2 1 0 1 0c1 -2 2 -3 3 -4c5 -6 10 -11 15 -16c3 -2 6 -5 9 -7c0 -1 1 -2 2 -2c-2 1 1 -1 1 -1c1 -1 3 -2 4 -3c30 -21 64 -31 100 -33c46 -4 94 2 138 19c14 5 30 13 44 23l9 6l1 1c0 0 1 1 2 1
l3 3c5 4 9 8 13 12s7 7 10 11c1 1 1 2 2 3h1c0 1 1 3 2 4c2 3 4 5 5 8v-10c-4 8 -9 16 -13 24c-23 45 -47 89 -70 133c6 1 12 1 18 2c-7 -20 -21 -40 -37 -53c-15 -12 -31 -20 -50 -20c-17 -1 -38 2 -50 16c-11 13 -11 31 -10 48v52v89c0 5 4 10 10 10h7h146l-10 -10v73v145
c3 -4 6 -7 10 -10h-5h-145c-6 0 -10 4 -10 10v18v149c3 -4 6 -7 10 -10h-75h-144c-13 0 -13 20 0 20h74h145c5 0 10 -5 10 -10v-18v-149c-4 3 -7 6 -10 10h5h145c5 0 10 -5 10 -10v-73v-145c0 -6 -5 -10 -10 -10h-7h-146l10 10c0 -49 0 -97 -1 -145c0 -5 0 -9 1 -13v-3
c0 0 0 -3 0 -1c0 -2 1 -3 1 -5c0 -1 0 -2 1 -3c0 -1 1 -3 0 -1c1 -1 1 -3 2 -4c1 0 2 -2 1 -1l1 -1l2 -2c-2 1 1 0 1 -1c1 0 2 -1 3 -1c3 -2 -1 0 2 -1c2 -1 4 -1 6 -2c5 -1 10 -1 16 -1c9 0 18 2 26 5c15 8 26 20 35 33c3 5 6 10 9 16c1 2 2 3 2 5c1 2 -1 -3 0 -1
c3 8 14 11 18 3c7 -12 13 -24 20 -36c14 -28 29 -56 44 -84c5 -10 10 -20 16 -30c3 -6 7 -11 3 -18c-7 -12 -17 -24 -27 -34c-24 -22 -53 -38 -84 -49c-44 -16 -94 -22 -141 -17c-37 4 -74 14 -105 36c-45 31 -72 80 -83 133c-5 25 -5 48 -5 73v150c3 -4 6 -7 10 -10h-72
c-6 0 -10 4 -10 10v73v145c0 5 4 10 10 10h72l-10 -10v18v149z" />
    <glyph glyph-name="tbar" unicode="&#x167;" 
d="M57 767c0 13 20 13 20 0v-18v-149c0 -6 -5 -10 -10 -10h-72l10 10v-73v-145c-4 3 -7 6 -10 10h72c5 0 10 -5 10 -10v-144v-32c0 -5 0 -10 1 -15v-6c0 -1 1 -2 1 -3c0 -3 -1 2 0 0c0 -5 1 -9 2 -14c2 -11 5 -21 8 -31c2 -6 4 -12 6 -17c1 -3 0 0 1 -1c0 -1 0 -2 1 -2
c0 -2 1 -3 2 -4c1 -3 2 -6 4 -9c3 -6 6 -11 10 -17l6 -9c0 0 1 -1 1 -2c-1 2 1 0 1 0c1 -2 2 -3 3 -4c5 -6 10 -11 15 -16c3 -2 6 -5 9 -7c0 -1 1 -2 2 -2c-2 1 1 -1 1 -1c1 -1 3 -2 4 -3c30 -21 64 -31 100 -33c46 -4 94 2 138 19c14 5 30 13 44 23l9 6l1 1c0 0 1 1 2 1
l3 3c5 4 9 8 13 12s7 7 10 11c1 1 1 2 2 3h1c0 1 1 3 2 4c2 3 4 5 5 8v-10c-4 8 -9 16 -13 24c-23 45 -47 89 -70 133c6 1 12 1 18 2c-7 -20 -21 -40 -37 -53c-15 -12 -31 -20 -50 -20c-17 -1 -38 2 -50 16c-11 13 -11 31 -10 48v52v89c0 5 4 10 10 10h7h146l-10 -10v73v145
c3 -4 6 -7 10 -10h-5h-145c-6 0 -10 4 -10 10v18v149c3 -4 6 -7 10 -10h-75h-144c-13 0 -13 20 0 20h74h145c5 0 10 -5 10 -10v-18v-149c-4 3 -7 6 -10 10h5h145c5 0 10 -5 10 -10v-73v-145c0 -6 -5 -10 -10 -10h-7h-146l10 10c0 -49 0 -97 -1 -145c0 -5 0 -9 1 -13v-3
c0 0 0 -3 0 -1c0 -2 1 -3 1 -5c0 -1 0 -2 1 -3c0 -1 1 -3 0 -1c1 -1 1 -3 2 -4c1 0 2 -2 1 -1l1 -1l2 -2c-2 1 1 0 1 -1c1 0 2 -1 3 -1c3 -2 -1 0 2 -1c2 -1 4 -1 6 -2c5 -1 10 -1 16 -1c9 0 18 2 26 5c15 8 26 20 35 33c3 5 6 10 9 16c1 2 2 3 2 5c1 2 -1 -3 0 -1
c3 8 14 11 18 3c7 -12 13 -24 20 -36c14 -28 29 -56 44 -84c5 -10 10 -20 16 -30c3 -6 7 -11 3 -18c-7 -12 -17 -24 -27 -34c-24 -22 -53 -38 -84 -49c-44 -16 -94 -22 -141 -17c-37 4 -74 14 -105 36c-45 31 -72 80 -83 133c-5 25 -5 48 -5 73v150c3 -4 6 -7 10 -10h-72
c-6 0 -10 4 -10 10v73v145c0 5 4 10 10 10h72l-10 -10v18v149z" />
    <glyph glyph-name="tcaron" unicode="&#x165;" 
 />
    <glyph glyph-name="uni0163" unicode="&#x163;" 
d="M57 767c0 13 20 13 20 0v-18v-149c0 -6 -5 -10 -10 -10h-72l10 10v-73v-145c-4 3 -7 6 -10 10h72c5 0 10 -5 10 -10v-144v-32c0 -5 0 -10 1 -15v-6c0 -1 1 -2 1 -3c0 -3 -1 2 0 0c0 -5 1 -9 2 -14c2 -11 5 -21 8 -31c2 -6 4 -12 6 -17c1 -3 0 0 1 -1c0 -1 0 -2 1 -2
c0 -2 1 -3 2 -4c1 -3 2 -6 4 -9c3 -6 6 -11 10 -17l6 -9c0 0 1 -1 1 -2c-1 2 1 0 1 0c1 -2 2 -3 3 -4c5 -6 10 -11 15 -16c3 -2 6 -5 9 -7c0 -1 1 -2 2 -2c-2 1 1 -1 1 -1c1 -1 3 -2 4 -3c30 -21 64 -31 100 -33c46 -4 94 2 138 19c14 5 30 13 44 23l9 6l1 1c0 0 1 1 2 1
l3 3c5 4 9 8 13 12s7 7 10 11c1 1 1 2 2 3h1c0 1 1 3 2 4c2 3 4 5 5 8v-10c-4 8 -9 16 -13 24c-23 45 -47 89 -70 133c6 1 12 1 18 2c-7 -20 -21 -40 -37 -53c-15 -12 -31 -20 -50 -20c-17 -1 -38 2 -50 16c-11 13 -11 31 -10 48v52v89c0 5 4 10 10 10h7h146l-10 -10v73v145
c3 -4 6 -7 10 -10h-5h-145c-6 0 -10 4 -10 10v18v149c3 -4 6 -7 10 -10h-75h-144c-13 0 -13 20 0 20h74h145c5 0 10 -5 10 -10v-18v-149c-4 3 -7 6 -10 10h5h145c5 0 10 -5 10 -10v-73v-145c0 -6 -5 -10 -10 -10h-7h-146l10 10c0 -49 0 -97 -1 -145c0 -5 0 -9 1 -13v-3
c0 0 0 -3 0 -1c0 -2 1 -3 1 -5c0 -1 0 -2 1 -3c0 -1 1 -3 0 -1c1 -1 1 -3 2 -4c1 0 2 -2 1 -1l1 -1l2 -2c-2 1 1 0 1 -1c1 0 2 -1 3 -1c3 -2 -1 0 2 -1c2 -1 4 -1 6 -2c5 -1 10 -1 16 -1c9 0 18 2 26 5c15 8 26 20 35 33c3 5 6 10 9 16c1 2 2 3 2 5c1 2 -1 -3 0 -1
c3 8 14 11 18 3c7 -12 13 -24 20 -36c14 -28 29 -56 44 -84c5 -10 10 -20 16 -30c3 -6 7 -11 3 -18c-7 -12 -17 -24 -27 -34c-24 -22 -53 -38 -84 -49c-44 -16 -94 -22 -141 -17c-37 4 -74 14 -105 36c-45 31 -72 80 -83 133c-5 25 -5 48 -5 73v150c3 -4 6 -7 10 -10h-72
c-6 0 -10 4 -10 10v73v145c0 5 4 10 10 10h72l-10 -10v18v149z" />
    <glyph glyph-name="u" unicode="u" horiz-adv-x="592" 
d="M256 -4c12 -1 12 -21 0 -20c-50 0 -101 11 -142 39c-40 26 -69 63 -86 107c-14 37 -19 76 -19 115v49v187v113c0 5 5 10 10 10h59h147c5 0 10 -5 10 -10v-76v-188v-53c0 -13 0 -25 3 -38c2 -10 4 -19 10 -27c2 -2 -1 0 1 -1v-1c1 0 2 -1 2 -2c1 0 1 0 1 -1c2 -1 -1 2 0 0
c2 -1 3 -1 4 -2c3 -2 3 -1 5 -2s4 -2 6 -2c6 -1 11 -2 17 -2c12 0 25 2 35 7c11 5 21 13 27 22s9 19 10 29c2 12 1 28 1 42v174v121c0 5 5 10 10 10h59h147c6 0 10 -5 10 -10v-17v-131v-194v-175v-76c0 -6 -4 -10 -10 -10h-59h-147c-5 0 -10 4 -10 10v21l15 -9
c-36 -19 -76 -29 -116 -29c-13 -1 -13 19 0 20c37 0 73 9 106 26c7 4 15 -1 15 -8v-21c-3 3 -6 7 -10 10h59h147l-10 -10v17v131v193v175v77c3 -4 7 -7 10 -10h-59h-147c4 3 7 6 10 10v-98v-183v-36c0 -19 -2 -38 -11 -55c-13 -22 -38 -38 -63 -42c-21 -2 -47 -2 -64 13
c-14 11 -19 30 -22 47c-3 19 -2 38 -2 58v176v120c3 -4 6 -7 10 -10h-59h-147c3 3 7 6 10 10v-95v-190c0 -49 -3 -100 10 -148c12 -45 37 -86 75 -114c41 -30 91 -43 142 -43z" />
    <glyph glyph-name="uacute" unicode="&#xfa;" horiz-adv-x="593" 
d="M256 -6c13 0 13 -20 0 -20c-50 0 -100 12 -142 40c-39 26 -69 63 -86 107c-14 36 -19 75 -19 114v49v187v113c0 6 5 10 10 10h59h147c6 0 10 -4 10 -10v-76v-187v-54c0 -12 0 -25 3 -37c2 -10 4 -20 10 -28h1c0 -1 0 -1 1 -1c0 -1 1 -2 2 -2c0 -1 0 -1 1 -1
c1 -2 -2 1 0 0c1 -1 2 -2 4 -3l4 -2c2 0 4 -1 7 -2c5 -1 11 -1 16 -1c13 0 25 1 36 7c10 5 20 12 27 22c5 9 8 19 10 29c1 12 1 28 1 41v174v121c0 6 4 10 10 10h58h148c5 0 10 -4 10 -10v-17v-131v-193v-175v-77c0 -5 -5 -10 -10 -10h-59h-147c-6 0 -10 5 -10 10v21l15 -9
c-36 -19 -76 -29 -117 -29c-13 0 -13 20 0 20c37 0 74 9 107 27c6 3 15 -1 15 -9v-21l-10 10h58h148c-4 -3 -7 -6 -10 -10v17v131v194v175v76l10 -10h-59h-147c3 4 6 7 10 10v-98v-182v-36c0 -19 -3 -39 -12 -56c-13 -22 -38 -38 -63 -41c-21 -3 -47 -2 -64 12
c-13 11 -19 31 -21 47c-3 20 -3 39 -3 58v176v120c4 -3 7 -6 10 -10h-59h-147l10 10v-95v-189c0 -50 -3 -101 10 -149c13 -45 38 -85 75 -113c42 -31 91 -44 142 -44zM484 789c4 3 11 0 14 -4c3 -5 0 -10 -4 -14c-31 -22 -62 -44 -93 -67c-43 -31 -87 -62 -130 -93
c-4 -3 -8 -5 -14 -4c-10 3 -21 5 -32 8c-23 6 -47 11 -70 17c-7 2 -10 12 -5 17c36 31 71 62 107 94c22 19 44 39 66 58c7 6 13 12 20 18c4 4 8 8 15 6c45 -12 89 -23 134 -35c12 -4 7 -23 -6 -20v1c-45 11 -89 23 -134 35c3 1 7 2 10 3c-32 -29 -65 -57 -97 -86
c-34 -29 -67 -59 -101 -88c-1 5 -3 11 -4 16c35 -8 69 -16 104 -25c-3 0 -5 0 -8 -1c1 1 1 1 2 1c40 29 80 58 121 87c35 25 70 50 105 76z" />
    <glyph glyph-name="ucircumflex" unicode="&#xfb;" horiz-adv-x="571" 
d="M246 12c13 0 13 -19 0 -19c-47 0 -96 11 -137 39c-38 25 -67 61 -82 104c-14 34 -18 72 -18 110v48v180v109c0 5 4 10 9 10h56h142c6 0 10 -5 10 -10v-74v-181v-51c0 -12 0 -25 3 -37c2 -9 4 -18 10 -26v-1c1 0 1 0 1 -1c1 0 1 -1 2 -2c0 0 1 0 1 -1c2 -1 -2 2 0 0
c1 -1 2 -1 4 -2l4 -2s4 -1 6 -2c6 -1 11 -1 17 -1c12 -1 24 1 34 6s20 12 26 22c5 9 8 18 10 28c2 12 1 27 1 40v169v116c0 5 4 10 10 10h56h142c5 0 9 -5 9 -10v-17v-126v-187v-169v-74c0 -5 -4 -10 -9 -10h-56h-142c-6 0 -10 5 -10 10v20c5 -3 10 -6 15 -8
c-35 -19 -74 -29 -114 -29c-12 0 -12 19 0 19c36 1 72 9 104 26c6 4 14 0 14 -8v-20c-3 3 -6 6 -9 10h56h142l-10 -10v16v127v186v170v74c3 -3 6 -7 10 -10h-56h-142c3 3 6 7 9 10v-95v-176v-35c0 -18 -2 -37 -11 -53c-12 -22 -37 -37 -61 -41c-21 -2 -45 -2 -62 12
c-13 11 -19 30 -21 46c-3 19 -2 37 -2 56v170v116c3 -3 6 -7 9 -10h-56h-142c4 3 7 7 10 10v-92v-182c0 -48 -3 -98 10 -145c11 -43 35 -82 72 -109c40 -30 88 -42 136 -43zM347 653c8 -9 -6 -23 -14 -13c-20 21 -40 44 -60 66h14c-11 -12 -21 -24 -32 -36
c-7 -7 -13 -15 -20 -23c-4 -3 -8 -10 -15 -10h-129c-9 0 -13 10 -7 16c32 33 64 67 96 101c16 16 30 32 46 49l3 3c3 3 8 3 12 3h40h39c4 0 7 0 10 -3l4 -4c16 -16 32 -33 47 -49c32 -34 65 -67 97 -100c6 -6 2 -16 -7 -16h-131c-13 0 -13 18 0 18h131l-6 -15
c-18 17 -35 34 -52 52c-33 33 -64 67 -97 100c3 -1 5 -2 7 -3h-87c2 1 4 2 7 3c-17 -17 -33 -34 -48 -51c-33 -34 -65 -68 -97 -101c-3 5 -5 10 -7 15h129c-2 -1 -4 -1 -6 -2c20 22 39 45 59 67c4 4 11 4 14 0c20 -22 40 -45 60 -67z" />
    <glyph glyph-name="udieresis" unicode="&#xfc;" horiz-adv-x="598" 
d="M261 -2c13 0 13 -20 0 -20c-50 0 -100 11 -142 39c-40 26 -70 62 -87 106c-14 36 -19 76 -20 114v50c0 62 -1 124 -1 186c-1 38 -1 76 -1 113c0 6 4 10 10 10c19 0 39 1 58 1c49 0 98 1 147 1c6 0 10 -5 10 -10c1 -25 1 -51 1 -76c1 -62 1 -125 2 -188v-53
c0 -13 0 -25 3 -38c2 -9 5 -19 11 -27c-1 1 1 -1 1 -1c1 -1 1 -2 2 -2c0 -1 1 -1 1 -1c2 -2 -2 1 0 0c1 -1 3 -2 4 -3c3 -1 2 -1 4 -2c3 0 5 -1 7 -2c6 -1 11 -1 17 -1c12 0 24 2 35 7c10 5 21 13 27 23c5 9 8 18 10 29c0 6 1 15 0 22v19c0 58 -1 116 -1 174
c0 41 -1 81 -1 121c0 6 5 10 10 10c20 0 39 0 59 1c49 0 98 0 147 1c5 0 10 -5 10 -10v-17c0 -44 1 -88 1 -131c0 -65 1 -129 1 -194c1 -58 1 -116 2 -175v-76c0 -6 -4 -10 -10 -10c-19 0 -39 0 -58 -1c-49 0 -98 0 -147 -1c-6 0 -10 5 -10 10v21l15 -9
c-36 -19 -76 -30 -117 -30c-13 0 -13 20 0 20c37 0 74 10 106 28c7 3 15 -1 16 -9v-21l-10 10c19 0 39 1 58 1c49 0 98 0 147 1c-3 -3 -6 -7 -10 -10v17c0 43 0 87 -1 131c0 64 -1 129 -1 193c-1 58 -1 117 -2 175v77c3 -4 6 -7 10 -10c-20 0 -39 -1 -59 -1
c-49 0 -98 -1 -147 -1l10 10c0 -33 1 -65 1 -98c0 -61 1 -122 1 -183c0 -12 0 -24 1 -36c0 -18 -3 -38 -12 -55c-12 -22 -37 -38 -62 -42c-22 -3 -47 -2 -65 12c-13 11 -19 30 -21 47c-3 19 -3 38 -3 58c-1 58 -1 117 -2 176c0 40 0 80 -1 120c4 -3 7 -7 10 -10
c-19 0 -39 0 -58 -1c-49 0 -98 0 -147 -1c3 4 6 7 10 10v-94c1 -64 1 -127 2 -190c0 -49 -2 -101 11 -149c13 -44 38 -85 76 -112c41 -31 91 -43 142 -43zM256 645c13 0 13 -20 0 -20h-14h-148c-5 0 -10 5 -10 10v14v148c0 6 5 10 10 10h14h148c6 0 10 -4 10 -10v-14v-148
c0 -13 -20 -13 -20 0v14v148l10 -10h-14h-148l10 10v-14v-148l-10 10h14h148zM502 645c13 0 13 -20 0 -20h-14h-148c-5 0 -10 5 -10 10v14v148c0 6 5 10 10 10h14h148c5 0 10 -4 10 -10v-14v-148c0 -13 -20 -13 -20 0v14v148c3 -3 7 -6 10 -10h-14h-148c3 4 7 7 10 10v-14
v-148c-3 4 -7 7 -10 10h14h148z" />
    <glyph glyph-name="ugrave" unicode="&#xf9;" horiz-adv-x="592" 
d="M162 789c-4 3 -11 0 -13 -4c-3 -5 -1 -11 3 -14c31 -22 62 -44 93 -67c44 -31 87 -62 130 -93c5 -3 8 -5 14 -4c11 3 21 5 32 8c24 6 47 11 71 17c7 2 10 12 4 17c-36 31 -71 62 -107 94c-22 19 -44 39 -66 58c-7 6 -13 12 -20 31c-4 4 -8 9 -15 7
c-44 -26 -89 -38 -133 -49c-13 -4 -8 -23 5 -20h1c44 12 89 24 133 36c-3 1 -6 2 -10 3c33 -29 65 -57 97 -86c34 -29 67 -59 101 -89c1 6 3 12 4 17c-34 -8 -69 -17 -104 -25c3 0 5 -1 8 -1c-1 1 -1 1 -2 1l-120 87c-35 25 -71 50 -106 76zM256 -4c13 0 13 -20 0 -20
c-50 0 -100 12 -142 40c-39 26 -69 63 -86 107c-14 36 -19 75 -19 114v49v187v113c0 6 5 10 10 10h59h147c6 0 10 -4 10 -10v-76v-187v-54c0 -12 0 -25 3 -37c2 -10 4 -20 10 -28h1c0 -1 0 -1 1 -1c0 -1 1 -2 2 -2c0 -1 0 -1 1 -1c1 -2 -2 1 0 0c1 -1 2 -2 4 -3l4 -2
c2 0 4 -1 7 -2c5 -1 11 -1 16 -1c13 0 25 1 36 7c10 5 20 12 27 22c5 9 8 19 10 29c1 12 1 28 1 41v174v121c0 6 4 10 10 10h58h147c6 0 10 -4 10 -10v-17v-131v-193v-175v-77c0 -5 -4 -10 -10 -10h-58h-147c-6 0 -10 5 -10 10v21l15 -9c-36 -19 -76 -29 -117 -29
c-13 0 -13 20 0 20c37 0 74 9 107 27c6 3 15 -1 15 -9v-21l-10 10h58h147l-10 -10v17v131v194v175v76c4 -3 7 -6 10 -10h-58h-147c3 4 6 7 10 10v-98v-182v-36c0 -19 -3 -39 -12 -56c-13 -22 -38 -38 -63 -41c-21 -3 -47 -2 -64 12c-13 11 -19 31 -21 47c-3 20 -3 39 -3 58
v176v120c3 -3 7 -6 10 -10h-59h-147l10 10v-95v-189c0 -50 -3 -101 10 -149c13 -45 38 -85 75 -113c42 -31 91 -44 142 -44z" />
    <glyph glyph-name="uhungarumlaut" unicode="&#x171;" 
 />
    <glyph glyph-name="umacron" unicode="&#x16b;" 
 />
    <glyph glyph-name="uogonek" unicode="&#x173;" 
 />
    <glyph glyph-name="uring" unicode="&#x16f;" 
d="M256 -4c12 -1 12 -21 0 -20c-50 0 -101 11 -142 39c-40 26 -69 63 -86 107c-14 37 -19 76 -19 115v49v187v113c0 5 5 10 10 10h59h147c5 0 10 -5 10 -10v-76v-188v-53c0 -13 0 -25 3 -38c2 -10 4 -19 10 -27c2 -2 -1 0 1 -1v-1c1 0 2 -1 2 -2c1 0 1 0 1 -1c2 -1 -1 2 0 0
c2 -1 3 -1 4 -2c3 -2 3 -1 5 -2s4 -2 6 -2c6 -1 11 -2 17 -2c12 0 25 2 35 7c11 5 21 13 27 22s9 19 10 29c2 12 1 28 1 42v174v121c0 5 5 10 10 10h59h147c6 0 10 -5 10 -10v-17v-131v-194v-175v-76c0 -6 -4 -10 -10 -10h-59h-147c-5 0 -10 4 -10 10v21l15 -9
c-36 -19 -76 -29 -116 -29c-13 -1 -13 19 0 20c37 0 73 9 106 26c7 4 15 -1 15 -8v-21c-3 3 -6 7 -10 10h59h147l-10 -10v17v131v193v175v77c3 -4 7 -7 10 -10h-59h-147c4 3 7 6 10 10v-98v-183v-36c0 -19 -2 -38 -11 -55c-13 -22 -38 -38 -63 -42c-21 -2 -47 -2 -64 13
c-14 11 -19 30 -22 47c-3 19 -2 38 -2 58v176v120c3 -4 6 -7 10 -10h-59h-147c3 3 7 6 10 10v-95v-190c0 -49 -3 -100 10 -148c12 -45 37 -86 75 -114c41 -30 91 -43 142 -43z" />
    <glyph glyph-name="v" unicode="v" horiz-adv-x="618" 
d="M228 5c2 -5 -2 -11 -7 -12c-6 -2 -10 2 -12 7c-5 11 -9 22 -14 33c-18 45 -36 91 -55 136c-24 61 -48 122 -73 182c-21 53 -42 106 -64 159c-9 23 -18 45 -27 68c-3 6 4 13 10 13h64h146c5 0 8 -3 10 -8c1 -3 3 -7 4 -11c21 -51 41 -102 62 -154c16 -38 31 -77 47 -115
h-20c2 3 3 7 5 11c21 51 41 103 62 154c15 38 31 77 46 115c2 5 5 8 10 8h64h147c5 0 12 -7 9 -13c-4 -11 -9 -22 -13 -33c-18 -45 -37 -91 -55 -136c-24 -61 -49 -122 -73 -182c-21 -53 -43 -106 -64 -159c-9 -23 -18 -45 -27 -68c-2 -4 -5 -8 -10 -8h-32h-150
c-13 0 -13 20 0 20h32h150c-3 -2 -6 -4 -10 -7c5 11 9 22 13 33c19 45 37 91 55 137c25 60 49 121 74 181c21 53 42 106 64 159c9 23 18 46 27 68c3 -4 6 -8 10 -12h-65h-146c3 2 7 5 10 7c-2 -4 -3 -7 -5 -11c-20 -51 -41 -103 -62 -154c-15 -39 -31 -77 -46 -116
c-4 -9 -16 -9 -20 0c-1 4 -3 8 -4 11c-21 52 -41 103 -62 155c-16 38 -31 77 -47 115c4 -2 7 -5 10 -7h-64h-146l9 12c5 -11 9 -21 13 -32c19 -46 37 -92 55 -137c25 -61 49 -121 74 -182l63 -159c10 -22 19 -45 28 -68z" />
    <glyph glyph-name="w" unicode="w" horiz-adv-x="889" 
d="M522 5c3 -12 -17 -18 -20 -5c-11 46 -23 91 -35 136c-10 43 -21 85 -32 128h19v-1c-12 -45 -23 -90 -35 -136c-11 -42 -22 -85 -33 -127c-1 -4 -5 -8 -9 -8h-60h-147c-5 0 -8 4 -10 8c-2 8 -5 17 -8 25c-14 44 -29 89 -44 134c-20 61 -40 123 -61 185
c-18 55 -36 109 -54 164c-7 24 -15 47 -23 71c-2 6 3 13 10 13h77h144c5 0 9 -3 10 -8c11 -40 23 -81 35 -121c12 -43 25 -86 37 -129h-19c11 40 23 81 35 121c12 43 25 86 37 129c1 5 5 8 10 8h49h148c4 0 8 -3 10 -8c11 -40 23 -81 35 -121c12 -43 25 -86 37 -129h-19
c11 40 23 81 35 121c12 43 25 86 37 129c1 5 5 8 10 8h77h144c6 0 12 -7 10 -13c-3 -8 -6 -17 -9 -25c-14 -45 -29 -89 -43 -134c-21 -61 -41 -123 -61 -185c-18 -55 -36 -109 -54 -164c-8 -24 -16 -48 -24 -71c-1 -4 -5 -8 -9 -8h-61h-146c-13 0 -13 21 0 21h60h147
c-4 -3 -7 -5 -10 -8c3 9 6 17 8 25c15 45 30 89 44 134c20 62 41 123 61 185c18 55 36 110 54 164c8 24 16 48 23 71c4 -4 7 -8 10 -12h-78h-143c3 2 6 5 9 7c-11 -40 -23 -81 -35 -121c-12 -44 -25 -87 -37 -130c-3 -9 -17 -9 -19 0c-12 41 -24 81 -35 122
c-13 43 -25 86 -38 129c4 -2 7 -5 10 -7h-49h-148c3 2 6 5 9 7c-11 -40 -23 -81 -35 -121c-12 -44 -24 -87 -37 -130c-3 -9 -16 -9 -19 0c-12 41 -24 81 -35 122c-13 43 -25 86 -37 129c3 -2 6 -5 9 -7h-78h-143l9 12c3 -8 6 -16 9 -25c14 -44 29 -89 44 -133l60 -186
c18 -54 36 -109 54 -164c8 -24 16 -47 24 -71c-4 3 -7 5 -10 8h60h147c-3 -3 -7 -5 -10 -8v1c12 45 23 90 35 135c11 43 22 86 33 128c2 10 17 10 19 0c12 -46 23 -91 35 -136c11 -43 22 -85 33 -128z" />
    <glyph glyph-name="wacute" unicode="&#x1e83;" 
 />
    <glyph glyph-name="wcircumflex" unicode="&#x175;" 
 />
    <glyph glyph-name="wdieresis" unicode="&#x1e85;" 
 />
    <glyph glyph-name="wgrave" unicode="&#x1e81;" 
 />
    <glyph glyph-name="x" unicode="x" horiz-adv-x="540" 
d="M364 5c3 -4 1 -11 -3 -14c-6 -3 -11 0 -14 4c-2 2 -3 4 -5 6c-28 40 -57 80 -85 119h17c-27 -38 -54 -77 -81 -115c-4 -6 -8 -15 -16 -15h-16h-81h-140c-7 0 -13 9 -9 15c10 15 20 30 30 46c35 52 69 104 104 156c21 31 41 62 62 93v-10c-7 12 -15 24 -23 35
c-33 52 -66 103 -100 154c-21 33 -42 65 -63 97c-4 7 1 15 9 15h123h89h26h5c5 0 7 -3 10 -6c25 -40 51 -79 77 -119h-18c26 38 51 75 76 113c4 5 7 12 15 12h18h83h139c7 0 13 -8 9 -15c-9 -12 -17 -25 -26 -38c-34 -50 -69 -101 -104 -152c-21 -32 -43 -63 -64 -95v10
l33 -48c35 -52 70 -104 105 -155l63 -93c4 -6 -1 -15 -9 -15h-106h-139c-12 0 -12 20 0 20h107h138c-2 -5 -5 -10 -8 -15l-33 48c-35 52 -70 104 -105 155l-63 93c-2 3 -2 7 0 10c8 13 17 25 25 38c35 51 70 102 104 152c22 32 43 64 65 95c3 -5 5 -10 8 -15h-102h-139
c3 2 6 3 8 5c0 -1 0 -1 -1 -2c-26 -39 -53 -78 -79 -118c-5 -6 -13 -6 -18 0c0 1 0 1 -1 2c-25 39 -51 79 -77 118c3 -2 6 -3 9 -5h-104h-139c3 5 6 10 8 15c8 -11 16 -23 23 -35c34 -51 67 -103 100 -154c21 -32 42 -64 63 -97c2 -2 2 -7 0 -10l-30 -45
c-34 -52 -69 -104 -103 -156c-21 -31 -42 -63 -63 -94c-2 5 -5 10 -8 15h97h140c-2 -2 -5 -3 -8 -5c1 2 3 4 4 6l84 120c4 6 13 6 17 0c2 -3 3 -5 5 -7c28 -40 57 -79 85 -119z" />
    <glyph glyph-name="y" unicode="y" horiz-adv-x="621" 
d="M101 -233c-2 -5 -6 -9 -12 -7c-5 1 -9 7 -7 12c4 10 8 20 13 31c22 55 45 111 68 166c15 37 30 73 45 109c0 -2 1 -5 1 -8l-3 6c-17 33 -34 67 -51 101c-29 56 -58 113 -87 169l-81 159c-12 24 -24 47 -36 71c-3 6 1 15 9 15h124h135c4 0 8 -3 9 -7v-1
c17 -43 34 -86 51 -130c16 -41 31 -82 47 -123h-19v1c15 42 31 85 46 128c15 41 30 83 44 125c2 4 5 7 10 7h117h136c6 0 13 -7 10 -13c-2 -5 -5 -11 -7 -17c-13 -33 -27 -66 -40 -99c-21 -53 -42 -106 -64 -159c-24 -61 -49 -122 -73 -183c-24 -58 -47 -115 -70 -173
c-18 -43 -35 -86 -52 -129l-21 -51c-2 -4 -5 -7 -10 -7h-102h-139c-13 0 -13 20 0 20h102h139c-3 -3 -6 -5 -9 -8c2 6 4 12 7 17c13 33 26 66 40 100c21 52 42 105 64 158c24 61 49 122 73 183c24 58 47 116 70 174c18 43 35 86 52 129l21 51c3 -5 6 -9 9 -13h-116h-137
c3 2 7 5 10 7c-16 -43 -31 -85 -46 -128c-15 -42 -30 -83 -45 -125c-3 -10 -15 -9 -19 0c-17 44 -34 87 -51 130c-15 41 -31 82 -47 123c3 -2 6 -5 10 -7h-124h-135c3 5 6 10 8 15c8 -14 15 -28 22 -43c25 -48 49 -96 74 -145c30 -58 59 -116 89 -174c21 -41 42 -83 64 -124
c3 -7 6 -13 9 -20c3 -5 0 -10 -2 -15c-3 -8 -6 -15 -9 -23c-23 -55 -46 -111 -69 -166c-15 -37 -30 -73 -45 -109z" />
    <glyph glyph-name="yacute" unicode="&#xfd;" 
 />
    <glyph glyph-name="ycircumflex" unicode="&#x177;" 
 />
    <glyph glyph-name="ydieresis" unicode="&#xff;" 
 />
    <glyph glyph-name="ygrave" unicode="&#x1ef3;" 
 />
    <glyph glyph-name="z" unicode="z" horiz-adv-x="550" 
d="M30 1c0 -12 -20 -12 -20 0v74v84c0 6 -1 12 3 17c3 3 7 7 10 11c38 42 75 84 113 126c27 30 55 61 82 92c2 -6 5 -12 7 -18h-38h-149c-5 0 -10 5 -10 10v36v149c0 6 5 10 10 10h34h163h189h91c6 0 10 -4 10 -10v-78v-78c0 -4 0 -7 -3 -10c0 -1 -1 -2 -2 -2
c-4 -5 -8 -10 -12 -14c-39 -43 -78 -87 -117 -130l-81 -90c-2 6 -5 12 -7 17h84h143c5 0 10 -4 10 -10v-36v-150c0 -5 -5 -10 -10 -10h-61h-177h-186h-86c-13 0 -13 20 0 20h61h176h186h87c-4 -3 -7 -6 -10 -10v37v149l10 -10h-84h-143c-9 0 -13 11 -7 17c5 6 10 11 14 17
l117 129l81 90c-1 -2 -2 -5 -3 -7v12v147c3 -3 7 -6 10 -10h-33h-164h-189h-91l10 10v-35v-150c-3 4 -6 7 -10 10h38h149c9 0 13 -10 7 -17c-3 -3 -7 -7 -10 -11c-38 -42 -75 -84 -113 -126c-27 -31 -55 -61 -82 -92c1 3 2 5 3 7v-18v-149z" />
    <glyph glyph-name="zacute" unicode="&#x17a;" 
d="M30 1c0 -12 -20 -12 -20 0v74v84c0 6 -1 12 3 17c3 3 7 7 10 11c38 42 75 84 113 126c27 30 55 61 82 92c2 -6 5 -12 7 -18h-38h-149c-5 0 -10 5 -10 10v36v149c0 6 5 10 10 10h34h163h189h91c6 0 10 -4 10 -10v-78v-78c0 -4 0 -7 -3 -10c0 -1 -1 -2 -2 -2
c-4 -5 -8 -10 -12 -14c-39 -43 -78 -87 -117 -130l-81 -90c-2 6 -5 12 -7 17h84h143c5 0 10 -4 10 -10v-36v-150c0 -5 -5 -10 -10 -10h-61h-177h-186h-86c-13 0 -13 20 0 20h61h176h186h87c-4 -3 -7 -6 -10 -10v37v149l10 -10h-84h-143c-9 0 -13 11 -7 17c5 6 10 11 14 17
l117 129l81 90c-1 -2 -2 -5 -3 -7v12v147c3 -3 7 -6 10 -10h-33h-164h-189h-91l10 10v-35v-150c-3 4 -6 7 -10 10h38h149c9 0 13 -10 7 -17c-3 -3 -7 -7 -10 -11c-38 -42 -75 -84 -113 -126c-27 -31 -55 -61 -82 -92c1 3 2 5 3 7v-18v-149z" />
    <glyph glyph-name="zcaron" unicode="&#x17e;" 
 />
    <glyph glyph-name="zdotaccent" unicode="&#x17c;" 
d="M30 1c0 -12 -20 -12 -20 0v74v84c0 6 -1 12 3 17c3 3 7 7 10 11c38 42 75 84 113 126c27 30 55 61 82 92c2 -6 5 -12 7 -18h-38h-149c-5 0 -10 5 -10 10v36v149c0 6 5 10 10 10h34h163h189h91c6 0 10 -4 10 -10v-78v-78c0 -4 0 -7 -3 -10c0 -1 -1 -2 -2 -2
c-4 -5 -8 -10 -12 -14c-39 -43 -78 -87 -117 -130l-81 -90c-2 6 -5 12 -7 17h84h143c5 0 10 -4 10 -10v-36v-150c0 -5 -5 -10 -10 -10h-61h-177h-186h-86c-13 0 -13 20 0 20h61h176h186h87c-4 -3 -7 -6 -10 -10v37v149l10 -10h-84h-143c-9 0 -13 11 -7 17c5 6 10 11 14 17
l117 129l81 90c-1 -2 -2 -5 -3 -7v12v147c3 -3 7 -6 10 -10h-33h-164h-189h-91l10 10v-35v-150c-3 4 -6 7 -10 10h38h149c9 0 13 -10 7 -17c-3 -3 -7 -7 -10 -11c-38 -42 -75 -84 -113 -126c-27 -31 -55 -61 -82 -92c1 3 2 5 3 7v-18v-149z" />
    <glyph glyph-name="zero" unicode="0" horiz-adv-x="745" 
d="M672 -3515c53 -95 68 -208 62 -316c-5 -102 -32 -207 -98 -288c-31 -39 -70 -71 -115 -91c-46 -22 -97 -32 -148 -32c-47 0 -94 8 -137 26c-46 20 -87 49 -119 87c-32 36 -56 79 -72 125c-19 50 -29 104 -33 158c-4 58 -2 116 8 174c17 98 60 196 138 260
c39 31 84 53 132 64c50 11 104 12 154 2c48 -9 95 -29 134 -58c39 -30 71 -68 94 -111zM373 -3363c-14 0 -28 -1 -42 -2c-48 -6 -95 -22 -135 -49s-72 -63 -97 -104c-55 -93 -70 -205 -64 -311c5 -99 31 -203 96 -280c31 -37 70 -67 115 -85c46 -19 97 -26 147 -23
c49 3 97 15 139 40c42 23 77 57 103 97c59 88 78 197 76 301c-1 102 -23 209 -86 293c-28 38 -66 70 -109 91c-45 22 -94 32 -143 32zM301 -3660c7 21 18 44 37 57c17 13 42 15 62 5c22 -11 34 -33 42 -54c9 -23 13 -46 16 -70c3 -30 4 -60 3 -90c-1 -27 -3 -54 -9 -81
c-8 -41 -29 -95 -79 -96c-19 0 -37 9 -49 24c-15 18 -23 41 -29 64c-6 26 -9 53 -10 80c-2 30 -1 60 2 90c2 24 6 48 14 71zM373 -3616c-19 0 -33 -14 -41 -31c-8 -16 -13 -34 -17 -52c-4 -24 -6 -48 -7 -72c0 -27 0 -53 3 -80c2 -23 7 -46 15 -68c6 -18 17 -39 36 -44
c7 -2 17 -3 25 1c10 4 17 12 23 21c10 18 16 37 20 58c5 26 7 53 7 80c1 29 0 59 -4 88c-3 22 -8 45 -18 65c-5 10 -10 20 -19 27c-7 5 -15 7 -23 7zM672 727c53 -95 68 -209 62 -316c-5 -102 -32 -207 -98 -289c-31 -38 -70 -70 -115 -91c-46 -21 -97 -31 -148 -31
c-47 0 -94 8 -137 26c-46 19 -87 49 -119 86s-56 80 -72 125c-19 51 -29 105 -33 158c-4 58 -2 117 8 174c17 98 60 196 138 260c39 31 84 54 132 64c50 12 104 13 154 3c48 -9 95 -29 134 -59s71 -67 94 -110zM373 879c-14 0 -28 -1 -42 -3c-48 -5 -95 -22 -135 -49
c-40 -26 -72 -63 -97 -104c-55 -92 -70 -204 -64 -310c5 -99 31 -204 96 -281c31 -36 70 -66 115 -84c46 -19 97 -26 147 -23c49 2 97 15 139 39s77 58 103 98c59 88 78 197 76 301c-1 102 -23 209 -86 292c-28 39 -66 71 -109 92c-45 22 -94 32 -143 32zM301 582
c7 21 18 43 37 57c17 13 42 14 62 5c22 -11 34 -33 42 -54c9 -23 13 -47 16 -71c3 -29 4 -60 3 -90c-1 -27 -3 -54 -9 -80c-8 -42 -29 -96 -79 -96c-19 0 -37 8 -49 23c-15 19 -23 42 -29 64c-6 26 -9 53 -10 80c-2 30 -1 61 2 91c2 24 6 48 14 71zM373 626
c-19 0 -33 -15 -41 -32c-8 -15 -13 -33 -17 -51c-4 -24 -6 -48 -7 -72c0 -27 0 -54 3 -80c2 -23 7 -47 15 -69c6 -17 17 -39 36 -44c7 -2 17 -2 25 2c10 4 17 12 23 21c10 18 16 37 20 58c5 26 7 53 7 80c1 29 0 58 -4 87c-3 22 -8 46 -18 65c-5 10 -10 20 -19 27
c-7 5 -15 8 -23 8z" />
    <glyph glyph-name="one" unicode="1" horiz-adv-x="463" 
d="M443 890c5 0 10 -4 10 -10v-16v-104v-170v-198v-187v-140v-55c0 -3 -1 -5 -3 -7s-4 -3 -7 -3h-120h-136c-5 0 -10 5 -10 10v6v113v190v179v66c-29 -7 -59 -15 -89 -23c-6 -1 -11 2 -13 7c-8 28 -16 56 -25 84c-13 45 -27 91 -40 136c-1 4 1 10 4 12c8 3 16 7 24 11
l162 78c14 7 28 13 42 20c5 2 12 1 17 1h35h149zM189 592c6 2 12 -3 12 -10v-6v-114v-190v-179v-69h100h128v3v100v168v197v188v141v45h-32h-147c-32 -15 -64 -31 -97 -46l-117 -57c7 -22 14 -44 20 -67c13 -43 26 -86 39 -128c31 8 62 16 94 24z" />
    <glyph glyph-name="two" unicode="2" horiz-adv-x="644" 
d="M624 155c0 -47 0 -94 1 -141c0 -5 -5 -10 -10 -10h-14c-42 0 -83 -1 -125 -1c-64 0 -128 -1 -192 -1c-59 -1 -118 -1 -177 -1c-26 -1 -51 -1 -77 -1c-4 0 -6 1 -8 3c-1 2 -2 4 -2 7v39c-1 50 -1 101 -1 152c0 6 4 9 8 12c5 6 11 11 16 16c19 19 38 38 57 56
c44 43 87 85 131 128c8 8 17 17 26 25c10 10 19 21 28 31l24 30c6 8 12 17 17 27c5 8 8 15 11 23c2 8 4 16 5 24c0 0 1 2 1 3v3v5c1 5 1 10 0 15c-2 12 -8 23 -17 30s-20 10 -31 9c-8 0 -16 -2 -24 -6c-8 -5 -16 -12 -23 -19c-15 -15 -28 -33 -41 -50c-3 -4 -9 -7 -13 -4
c-25 18 -50 36 -74 54c-38 27 -77 55 -115 83c-4 3 -6 8 -3 13c11 20 23 39 37 56c18 21 38 40 60 56c44 33 96 54 150 62c57 9 115 8 170 -9c51 -17 100 -46 134 -88c38 -45 58 -101 60 -160c1 -53 -6 -106 -28 -154c-21 -45 -52 -84 -85 -120c-29 -33 -62 -63 -94 -94
c22 0 43 0 65 1c48 0 95 0 142 1c6 0 10 -5 10 -10c0 -32 0 -64 1 -95zM43 163c0 -46 1 -92 1 -139c40 0 80 1 120 1c63 0 127 1 191 1c59 1 118 1 178 2h68c-1 25 -1 50 -1 75c0 44 -1 88 -1 132h-89c-47 -1 -93 -1 -140 -1c-8 0 -13 11 -7 17c11 10 22 21 33 31
c19 19 39 37 58 56c16 14 29 31 43 47c16 18 31 38 45 59c24 39 41 81 45 127c3 29 4 59 -1 88c-5 28 -14 55 -29 80c-27 46 -69 81 -118 102c-52 22 -108 27 -163 22c-54 -6 -107 -23 -152 -53c-22 -15 -42 -32 -59 -52c-14 -16 -26 -32 -36 -50c19 -14 38 -28 58 -42
c36 -26 72 -53 109 -79c1 2 2 4 3 5c28 36 63 80 114 69c27 -6 48 -28 53 -55c3 -19 1 -39 -4 -57c-14 -45 -46 -82 -76 -115c-11 -12 -22 -23 -33 -34c-43 -41 -86 -83 -128 -125c-28 -26 -55 -53 -82 -79v-33z" />
    <glyph glyph-name="three" unicode="3" horiz-adv-x="702" 
d="M688 325c6 -30 5 -61 0 -91c-4 -27 -12 -54 -25 -78c-28 -49 -69 -89 -119 -114c-56 -29 -118 -42 -180 -42c-60 0 -120 10 -175 35c-52 23 -99 60 -131 108c-15 23 -27 49 -36 76c-4 13 -8 27 -12 40c-1 5 2 11 7 13c29 7 57 15 86 22c46 12 92 24 137 36
c6 2 11 -2 13 -7c4 -15 7 -30 14 -43c11 -21 30 -39 53 -46c25 -8 56 -8 80 4c11 6 20 15 25 26s6 25 4 36c-5 27 -30 39 -53 46c-23 6 -46 7 -69 7h-73c-6 0 -10 5 -10 10v39v149c0 6 4 10 10 10h65c12 0 23 0 34 1c23 1 51 4 67 20c9 9 12 18 12 30c0 10 0 23 -7 31
c-15 18 -44 25 -67 20c-24 -5 -43 -21 -51 -44c-5 -13 -7 -26 -10 -39c-1 -6 -7 -8 -12 -7c-29 7 -58 13 -87 20c-46 11 -92 21 -138 32c-6 1 -9 7 -7 12c6 21 11 42 20 62c22 53 60 99 108 130c51 34 111 53 171 58c118 10 249 -30 312 -136c28 -49 36 -109 25 -164
c-9 -49 -38 -92 -77 -122c48 -32 85 -82 96 -140zM453 301c2 -13 1 -28 -4 -41c-21 -57 -98 -67 -147 -45c-24 10 -44 31 -56 54c-6 11 -9 23 -13 35c-22 -6 -44 -12 -67 -18c-43 -11 -86 -23 -129 -34c6 -22 13 -44 23 -64c24 -50 63 -91 111 -118c53 -29 113 -43 173 -46
c115 -4 240 38 298 144c12 24 20 50 24 76c4 30 4 60 -4 89c-15 53 -53 96 -101 122c-7 4 -7 14 0 18c11 6 21 14 31 23c19 17 35 39 44 63c10 25 14 52 14 79c-1 27 -5 55 -16 80c-11 24 -27 47 -46 66c-41 41 -95 64 -152 74c-61 11 -126 8 -186 -12
c-55 -18 -104 -50 -140 -96c-17 -21 -30 -46 -40 -71c-4 -12 -7 -23 -10 -34c22 -5 45 -11 67 -16c44 -10 87 -20 130 -30c3 16 7 31 15 45c14 22 37 39 63 43c28 4 57 -2 79 -20c21 -17 26 -46 20 -71c-11 -54 -79 -59 -123 -59h-63v-20v-140h7c36 0 71 2 107 -4
c27 -4 57 -14 76 -36c8 -11 13 -22 15 -36z" />
    <glyph glyph-name="four" unicode="4" horiz-adv-x="714" 
d="M694 365c6 0 10 -4 10 -10v-96v-141c0 -5 -4 -10 -10 -10h-84v-98c0 -3 -2 -5 -3 -7c-2 -2 -4 -3 -7 -3h-117h-137c-5 0 -10 5 -10 10v98h-19h-178h-119c-6 0 -10 5 -10 10v2v155c0 4 -1 10 2 14l3 6c7 10 14 21 20 31c27 42 53 83 79 124c35 55 70 109 105 164l99 156
l63 99c4 6 9 18 17 18h54h148c5 0 10 -4 10 -10v-72v-180v-185v-75h84zM586 122c0 6 4 10 10 10h84v77v132h-84c-6 0 -10 5 -10 10v72v181v184v75h-37h-143c-17 -27 -34 -54 -51 -80c-32 -50 -63 -99 -95 -149c-35 -55 -70 -110 -106 -166c-28 -45 -57 -90 -86 -135
c-11 -18 -23 -36 -34 -54v-9v-138h19h179h118c6 0 10 -4 10 -10v-98h97h129v98zM396 529c5 8 18 5 18 -5v-21v-149c0 -4 -1 -6 -3 -8c-1 -1 -4 -2 -7 -2h-107c-7 0 -13 8 -9 15c10 15 19 30 29 45c26 41 52 83 79 125zM390 368v107c-22 -36 -45 -72 -68 -107h68z" />
    <glyph glyph-name="five" unicode="5" horiz-adv-x="671" 
d="M642 417c18 -48 23 -101 16 -151c-7 -51 -26 -98 -58 -139c-31 -40 -73 -73 -120 -94c-49 -23 -102 -33 -156 -33c-12 0 -25 0 -37 2c-58 4 -114 21 -165 50c-24 15 -47 32 -68 51c-14 13 -27 27 -41 42c-2 3 -4 8 -1 12c11 16 23 32 34 48c29 40 57 79 86 119
c4 5 11 7 16 2c6 -6 11 -12 17 -17c6 -6 12 -11 18 -17c6 -5 11 -10 16 -14c9 -6 19 -12 29 -18c13 -7 27 -15 41 -21c26 -10 56 -16 83 -10c23 5 46 18 57 39c10 20 10 47 3 68c-16 46 -76 57 -119 53c-46 -4 -88 -26 -128 -48c-5 -3 -10 -1 -14 4c-2 3 -5 7 -8 10
c-18 24 -36 47 -54 70c-8 11 -16 21 -24 31c-3 4 -8 9 -8 14v112v193v102c0 5 5 10 10 10h85h184h183h83c5 0 10 -5 10 -10v-64v-146c0 -5 -5 -10 -10 -10h-26h-176h-110v-57c39 5 80 5 119 -2c100 -18 196 -83 233 -181zM430 355c11 -23 13 -51 8 -76
c-6 -25 -20 -44 -41 -57c-24 -15 -52 -21 -80 -19c-32 3 -61 14 -89 30c-20 11 -41 23 -58 39c-10 8 -19 17 -28 26l-21 -30c-28 -39 -55 -77 -83 -115c15 -15 29 -30 45 -44c43 -35 93 -61 147 -74c55 -13 114 -15 169 -4c97 20 188 87 222 182c32 91 18 203 -51 274
c-74 77 -188 106 -291 87c-7 -1 -13 3 -13 10v87c0 6 4 10 10 10h25h177h110v44v138h-67h-181h-185h-74v-96v-193v-100h1c27 -36 54 -71 82 -106c42 22 86 43 135 45c26 2 53 -2 77 -12c22 -9 43 -24 54 -46z" />
    <glyph glyph-name="six" unicode="6" horiz-adv-x="719" 
d="M666 482c31 -51 45 -108 43 -168c-2 -58 -17 -115 -49 -164c-31 -48 -74 -85 -124 -110c-55 -27 -115 -40 -176 -40c-51 0 -102 8 -150 28c-52 21 -100 54 -134 98c-36 46 -58 100 -64 158c-6 59 1 121 24 175c12 29 25 56 41 83c8 14 16 27 25 41c2 2 3 4 5 7
c26 32 52 65 78 97c40 49 79 98 119 147l36 45c2 2 4 5 5 7c4 4 11 3 16 3h162h126c9 0 12 -11 7 -17c-12 -14 -24 -27 -36 -41c-41 -47 -81 -94 -122 -141l-60 -69c44 -4 88 -17 127 -39c41 -24 76 -59 101 -100zM125 573c-17 -25 -32 -50 -46 -77c-12 -24 -23 -48 -31 -74
c-15 -52 -19 -110 -8 -163c11 -54 38 -105 78 -144s91 -66 146 -80c112 -27 245 -7 332 75c40 37 68 86 81 140c13 56 12 118 -8 173c-20 51 -55 97 -100 128c-48 32 -104 47 -161 47c-9 0 -13 10 -7 17c12 13 23 27 35 41l123 141c20 23 39 45 59 68h-135h-124l-48 -60
c-40 -50 -80 -100 -120 -149c-22 -28 -44 -55 -66 -83zM351 229c-25 2 -49 11 -65 32c-18 21 -26 47 -24 75c2 26 11 50 31 67c20 18 46 25 73 24c25 -1 50 -10 67 -30c18 -20 25 -46 24 -73c-1 -26 -9 -51 -27 -69c-19 -19 -44 -26 -70 -26h-9zM322 399
c-21 -11 -35 -30 -39 -53c-4 -24 0 -51 16 -70c7 -9 16 -16 26 -21c11 -5 23 -6 35 -6c18 0 37 4 51 16s22 27 25 45c6 36 -7 78 -44 92c-21 7 -49 7 -70 -3z" />
    <glyph glyph-name="seven" unicode="7" horiz-adv-x="682" 
d="M662 883c5 0 10 -4 10 -10v-154v-29c0 -3 0 -6 -2 -10c-3 -7 -7 -14 -10 -21c-18 -38 -36 -75 -53 -113c-27 -56 -53 -112 -80 -168c-27 -59 -55 -118 -83 -177c-22 -46 -44 -93 -66 -139l-27 -57c-1 -2 -2 -3 -4 -4c-1 -1 -3 -1 -4 -1h-4h-153h-129c-7 0 -12 8 -8 15
c2 4 4 7 5 11c17 33 34 66 51 98c27 54 54 108 81 161c30 59 60 117 89 175l72 141c7 14 14 28 22 43h-49h-190h-110c-5 0 -10 4 -10 10v75v144c0 6 5 10 10 10h49h156h197h168h72zM648 719v140h-33h-152h-197h-170h-62v-56v-135h58h190h110c7 0 12 -9 8 -15
c-2 -5 -4 -9 -6 -13c-17 -32 -33 -64 -49 -97c-28 -53 -55 -107 -82 -160c-30 -58 -59 -117 -89 -175l-72 -141c-7 -14 -14 -29 -22 -43h129h125c2 5 5 10 7 16c18 37 35 74 53 111c26 56 52 112 79 167c27 59 55 118 83 177c22 47 44 94 66 140c9 18 17 36 26 55v29z" />
    <glyph glyph-name="eight" unicode="8" horiz-adv-x="696" 
d="M2361 -5237c52 -93 49 -216 -16 -302c-66 -89 -178 -128 -287 -128c-24 0 -49 2 -73 6c-57 10 -113 32 -159 68c-41 32 -73 75 -90 124c-18 51 -20 107 -7 159c12 53 40 102 80 138c-23 30 -39 64 -46 101c-8 41 -7 83 5 123c16 56 50 103 97 136c49 34 108 52 167 56
c106 6 221 -28 284 -119c29 -43 44 -95 44 -146c0 -55 -18 -107 -51 -150c21 -19 39 -42 52 -66zM2118 -5639c52 8 104 25 148 56c40 28 73 67 90 113c19 49 22 103 10 153c-12 54 -41 101 -83 137c-4 4 -3 10 0 14c29 35 48 78 52 123c4 42 -3 86 -21 124
c-22 45 -58 81 -102 104c-47 25 -100 35 -154 35c-78 0 -160 -24 -215 -82c-39 -41 -60 -96 -61 -152s17 -109 53 -152c4 -4 5 -11 0 -14c-23 -20 -43 -44 -58 -71c-26 -47 -37 -103 -31 -156c6 -49 26 -96 59 -133c76 -87 202 -115 313 -99zM2100 -5272
c25 -7 48 -20 61 -42c15 -22 20 -52 14 -78c-6 -23 -21 -43 -40 -56c-23 -15 -50 -22 -77 -22c-26 0 -54 7 -75 22c-19 14 -35 33 -40 56c-5 26 -2 56 13 78c30 46 95 55 144 42zM2121 -5429c17 12 31 31 32 53c1 24 -6 48 -25 64s-45 21 -70 21c-23 0 -47 -5 -66 -18
c-17 -13 -26 -34 -27 -55c-1 -22 6 -41 21 -56c16 -15 39 -24 61 -26c25 -2 52 3 74 17zM1997 -5071c-17 14 -25 34 -24 55c0 18 5 36 17 50c10 14 26 23 42 27c43 10 96 -6 110 -52c7 -24 4 -53 -13 -72c-18 -20 -45 -27 -71 -27c-22 0 -44 5 -61 19zM2058 -4960
c-19 0 -39 -7 -51 -22c-5 -6 -8 -15 -10 -24c-1 -9 -1 -21 3 -31c9 -22 36 -29 57 -29s49 5 60 26c9 18 5 45 -8 60c-13 14 -32 20 -51 20zM650 430c52 -93 49 -216 -16 -302c-66 -88 -178 -128 -287 -128c-24 0 -49 2 -73 6c-57 10 -113 32 -159 68c-41 32 -73 75 -90 124
c-18 51 -20 107 -7 159c12 53 40 102 80 138c-23 30 -39 64 -46 101c-8 41 -7 83 5 123c16 56 50 103 97 136c49 34 108 52 167 56c106 6 221 -28 284 -119c29 -43 44 -95 44 -146c0 -55 -18 -107 -51 -150c21 -19 39 -42 52 -66zM407 28c52 8 104 25 148 56
c40 28 73 67 90 113c19 49 22 103 10 153c-12 54 -41 101 -83 137c-4 4 -3 10 0 14c29 35 48 78 52 123c4 42 -3 86 -21 124c-22 45 -58 81 -102 104c-47 25 -100 35 -154 35c-78 0 -160 -24 -215 -82c-39 -41 -60 -96 -61 -152s17 -109 53 -152c4 -4 5 -11 0 -14
c-23 -20 -43 -44 -58 -71c-26 -47 -37 -103 -31 -156c6 -49 26 -96 59 -133c76 -87 202 -115 313 -99zM389 395c25 -7 48 -20 61 -42c15 -22 20 -52 14 -78c-6 -23 -21 -43 -40 -56c-23 -15 -50 -22 -77 -22c-26 0 -54 7 -75 22c-19 14 -35 33 -40 56c-5 26 -2 56 13 78
c30 46 95 55 144 42zM410 238c17 12 31 31 32 53c1 24 -6 48 -25 64s-45 21 -70 21c-23 0 -47 -5 -66 -18c-17 -13 -26 -34 -27 -55c-1 -22 6 -41 21 -56c16 -15 39 -24 61 -26c25 -2 52 3 74 17zM286 596c-17 14 -25 34 -24 55c0 18 5 36 17 50c10 14 26 23 42 27
c43 10 96 -6 110 -52c7 -24 4 -53 -13 -72c-18 -20 -45 -27 -71 -27c-22 0 -44 5 -61 19zM347 707c-19 0 -39 -7 -51 -22c-5 -6 -8 -15 -10 -24c-1 -9 -1 -21 3 -31c9 -22 36 -29 57 -29s49 5 60 26c9 18 5 45 -8 60c-13 14 -32 20 -51 20z" />
    <glyph glyph-name="nine" unicode="9" horiz-adv-x="720" 
d="M689 685c22 -56 25 -118 16 -178c-9 -59 -35 -113 -65 -164c-9 -15 -18 -31 -29 -45l-9 -12l-42 -51c-40 -50 -81 -99 -121 -149c-22 -27 -44 -55 -66 -82l-2 -2c-2 -1 -4 -2 -6 -2h-9c-54 0 -108 1 -162 1c-42 0 -84 0 -126 1c-9 0 -12 10 -7 17c12 13 24 27 36 40
l123 141c20 23 41 46 61 69c-56 5 -111 24 -155 58c-45 35 -80 82 -99 136c-20 56 -21 120 -8 178c12 55 40 107 79 147c85 86 215 114 331 95c57 -9 113 -30 159 -66c45 -34 80 -80 101 -132zM358 24l42 51c40 49 79 98 119 147c25 31 51 62 76 93c3 4 8 13 12 19
c8 13 16 27 24 41c14 26 28 53 37 80c19 56 24 118 12 175c-11 54 -38 105 -78 144s-92 66 -146 80c-112 27 -245 7 -332 -74c-40 -38 -68 -87 -81 -141c-13 -56 -12 -118 8 -173c20 -51 55 -97 100 -128c48 -31 103 -46 160 -46c9 0 12 -11 7 -17c-12 -14 -24 -28 -36 -41
l-123 -141c-20 -22 -40 -45 -60 -68h135c42 -1 83 -1 124 -1zM458 559c-1 -26 -9 -51 -28 -70s-44 -27 -70 -27c-3 0 -6 0 -9 1c-26 2 -50 11 -66 31c-17 22 -24 48 -22 75c2 26 10 50 30 68c19 17 44 24 69 24c26 -1 51 -9 69 -28c18 -21 28 -46 27 -74zM412 499
c14 13 23 29 25 47c2 20 0 41 -10 59c-10 15 -24 28 -41 32c-22 6 -49 5 -69 -7c-19 -12 -31 -32 -34 -54c-2 -25 1 -51 18 -70c15 -17 36 -24 59 -24c18 0 38 5 52 17z" />
    <glyph glyph-name="fraction" unicode="&#x2044;" horiz-adv-x="618" 
d="M643 900c12 -5 2 -23 -10 -17c-21 11 -43 21 -64 32c4 1 9 2 14 4c-1 -1 -1 -1 -1 -2c-11 -21 -22 -43 -32 -64c-24 -47 -47 -94 -71 -141c-31 -64 -63 -128 -95 -192c-36 -72 -72 -143 -107 -215c-36 -71 -71 -143 -107 -214c-30 -61 -61 -123 -92 -185
c-22 -43 -43 -86 -65 -130c-8 -16 -16 -33 -24 -49c-2 4 -3 9 -4 14c22 -11 43 -22 64 -33c-4 -1 -9 -2 -13 -3v1c11 22 22 43 33 65c23 47 46 94 70 141c32 64 63 127 95 191l108 216c35 71 71 142 106 213c31 62 61 124 92 185c22 44 43 87 65 130c8 17 16 33 25 50
c5 11 23 1 17 -10c0 -1 -1 -1 -1 -2c-10 -21 -21 -43 -32 -64c-23 -47 -47 -94 -70 -141l-96 -192c-35 -72 -71 -144 -107 -215c-35 -71 -71 -143 -106 -214c-31 -61 -62 -123 -93 -185c-21 -43 -43 -87 -64 -130c-9 -16 -17 -33 -25 -49c-3 -5 -9 -6 -14 -4
c-21 11 -43 22 -64 32c-5 3 -6 9 -4 14c1 0 1 1 1 1c11 22 22 43 32 65c24 47 47 94 71 141c31 64 63 128 95 191c36 72 72 144 107 216c36 71 71 142 107 213c30 62 61 124 92 185c22 44 43 87 65 130c8 17 16 33 24 50c3 5 9 6 14 3c21 -10 43 -21 64 -32z" />
    <glyph glyph-name="asterisk" unicode="*" horiz-adv-x="522" 
d="M280 720c4 -4 1 -11 -3 -14c-5 -3 -11 0 -14 4c-7 10 -14 21 -21 31h17c-9 -16 -20 -31 -31 -45c-3 -4 -9 -7 -14 -4c-20 15 -41 29 -61 44c-6 4 -6 10 -2 16c12 14 23 28 35 42c2 -5 3 -11 4 -16c-17 4 -35 8 -52 13c-6 1 -9 7 -7 12c8 25 15 49 23 74c2 5 7 8 13 7
c17 -6 34 -12 51 -19c-4 -4 -8 -7 -12 -10c-2 18 -3 36 -3 54c0 6 5 10 10 10h75c6 0 11 -4 10 -10c0 -18 -1 -36 -3 -54c-4 3 -8 6 -12 10c17 7 35 12 52 18c6 2 11 -2 13 -7c7 -24 15 -48 23 -72c2 -5 -2 -10 -7 -12c-17 -6 -34 -11 -52 -15c2 5 3 11 5 16
c12 -13 23 -27 34 -41c5 -6 4 -12 -2 -16c-20 -15 -41 -29 -62 -44c-5 -3 -10 -1 -13 4c-4 4 -7 9 -11 14c-3 4 -1 11 4 14s10 0 13 -4c4 -5 7 -10 11 -14c-5 1 -9 2 -14 3c21 15 42 30 62 44c0 -5 -1 -10 -2 -15c-11 14 -23 28 -35 41c-4 6 -3 15 5 17c17 4 34 10 52 15
c-3 -4 -5 -8 -7 -12l-24 72c4 -2 8 -5 13 -7c-18 -6 -36 -12 -53 -19c-6 -2 -13 4 -13 10c2 18 3 36 3 54c4 -3 7 -7 10 -10h-75l10 10c0 -18 1 -36 3 -54c0 -6 -7 -12 -13 -10c-17 7 -34 13 -52 19c4 3 9 5 13 7c-8 -24 -16 -49 -24 -73c-2 4 -5 8 -7 12
c17 -5 35 -9 53 -13c8 -2 9 -12 4 -17c-12 -14 -23 -28 -35 -42c0 5 -1 10 -2 15c21 -14 41 -29 61 -44c-4 -1 -9 -2 -13 -3c11 15 22 29 31 45c4 7 13 7 17 0c7 -10 14 -21 21 -31z" />
    <glyph glyph-name="backslash" unicode="\" horiz-adv-x="620" 
d="M108 817c11 6 21 -12 10 -18l-63 -33c1 4 2 9 3 13c3 -5 6 -11 9 -16c15 -29 31 -58 46 -87l75 -141c30 -57 60 -113 90 -170c30 -58 61 -116 92 -175c27 -51 55 -103 82 -154c20 -37 39 -74 59 -111c7 -14 15 -28 22 -43c-4 2 -9 3 -14 4c22 11 43 22 64 34
c-1 -5 -2 -9 -4 -14c-3 6 -6 11 -8 17c-16 29 -31 58 -47 87c-25 47 -49 94 -74 141c-30 56 -60 113 -90 169c-31 59 -62 117 -93 175c-27 52 -54 103 -82 155c-19 37 -39 74 -58 111c-8 14 -15 28 -23 42c-6 11 12 21 18 10c3 -5 6 -11 8 -17c16 -29 31 -58 47 -87
c25 -47 49 -94 74 -141c30 -56 60 -113 90 -169c31 -59 62 -117 93 -175c27 -52 54 -103 82 -155c19 -37 39 -74 58 -111c8 -14 15 -28 23 -42c2 -5 1 -11 -4 -14c-21 -11 -42 -22 -64 -33c-4 -3 -11 -2 -13 3c-3 6 -6 11 -9 17c-15 29 -31 58 -46 87l-75 141
c-30 57 -60 113 -90 170c-30 58 -61 116 -92 174c-27 52 -55 104 -82 155c-20 37 -39 74 -59 111c-7 14 -15 28 -22 42c-3 5 -1 11 3 14c22 11 43 22 64 34z" />
    <glyph glyph-name="periodcentered" unicode="&#xb7;" 
 />
    <glyph glyph-name="bullet" unicode="&#x2022;" horiz-adv-x="620" 
d="M220 373c-1 -13 -21 -13 -20 0c0 24 8 47 24 65c31 36 85 46 127 21c40 -24 60 -76 43 -121c-18 -45 -64 -72 -112 -63c-47 8 -82 50 -82 98c-1 13 19 13 20 0v-3c1 -43 39 -79 82 -77s79 38 78 81s-37 79 -80 79c-44 0 -80 -36 -80 -80z" />
    <glyph glyph-name="colon" unicode=":" horiz-adv-x="530" 
d="M328 512c13 0 13 -20 0 -20h-5h-145c-6 0 -10 5 -10 10v5v145c0 6 4 10 10 10h5h145c5 0 10 -4 10 -10v-5v-145c0 -13 -20 -13 -20 0v5v145l10 -10h-5h-145l10 10v-5v-145l-10 10h5h145zM328 122c13 0 13 -20 0 -20h-5h-145c-5 0 -10 5 -10 10v5v145c0 5 5 10 10 10h5
h145c6 0 10 -5 10 -10v-5v-145c0 -13 -20 -13 -20 0v5v145c4 -3 7 -7 10 -10h-5h-145c4 3 7 7 10 10v-5v-145c-3 3 -6 7 -10 10h5h145z" />
    <glyph glyph-name="comma" unicode="," horiz-adv-x="469" 
d="M96 -64c-5 -2 -11 -1 -14 4c-2 4 -1 11 4 13c10 5 19 9 29 13c7 3 14 7 19 14c6 6 8 14 9 23c4 -4 7 -8 10 -12h-43c-6 0 -10 4 -10 10v4v144c0 6 4 10 10 10h5h144c5 0 10 -4 10 -10v-109c0 -38 -4 -79 -24 -113c-13 -22 -31 -40 -54 -53c-13 -8 -27 -14 -42 -20
c-5 -3 -10 -2 -13 3c-18 28 -36 55 -54 83c-7 11 11 21 18 10c17 -28 35 -55 53 -83c-5 2 -9 3 -14 4c24 10 47 20 66 37c25 24 38 55 42 89c3 27 2 56 2 83v69l10 -10h-5h-144c3 4 6 7 10 10v-4v-144c-4 3 -7 6 -10 10h43c7 0 11 -7 10 -13c-3 -11 -6 -22 -14 -32
c-6 -7 -14 -13 -23 -17c-10 -4 -20 -9 -30 -13z" />
    <glyph glyph-name="ellipsis" unicode="&#x2026;" 
 />
    <glyph glyph-name="exclam" unicode="!" horiz-adv-x="620" 
d="M224 2c0 -14 -20 -14 -20 0v23v150c0 6 4 10 10 10h35h149c6 0 10 -4 10 -10v-23v-150c0 -6 -4 -11 -10 -11h-35h-149c-13 0 -13 21 0 21h35h149c-3 -3 -6 -7 -10 -10v23v150c4 -3 7 -7 10 -10h-35h-149c3 3 6 7 10 10v-23v-150zM253 271c0 -5 -5 -10 -10 -10
c-6 0 -10 5 -10 10l-3 27c-5 58 -10 117 -15 176c-4 41 -8 83 -11 125c-2 12 0 24 0 36v91v134c0 6 4 10 10 10h37h149c6 0 10 -4 10 -10v-32v-182v-47c0 -10 -1 -21 -2 -31c-5 -60 -10 -119 -15 -179c-4 -39 -7 -79 -10 -118c-1 -5 -4 -10 -10 -10h-130c-13 0 -13 20 0 20
h130c-4 -3 -7 -6 -10 -10c0 9 1 18 2 27c5 58 10 117 15 176c3 41 7 83 10 125c1 12 0 24 0 36v91v134c4 -3 7 -7 10 -10h-37h-149c3 3 6 7 10 10v-32v-182v-47c0 -10 1 -21 2 -31c6 -60 11 -119 16 -179c4 -39 7 -79 11 -118z" />
    <glyph glyph-name="exclamdown" unicode="&#xa1;" horiz-adv-x="620" 
d="M390 857c0 13 20 13 20 0v-24v-149c0 -6 -4 -10 -10 -10h-35h-150c-5 0 -10 4 -10 10v23v150c0 5 5 10 10 10h36h149c13 0 13 -20 0 -20h-35h-150c4 3 7 6 10 10v-24v-149l-10 10h36h149c-3 -4 -6 -7 -10 -10v23v150zM361 587c-1 6 5 10 10 10c6 0 9 -4 10 -10
c1 -8 2 -17 2 -26c6 -59 11 -117 16 -176c4 -42 7 -83 11 -125c1 -12 0 -25 0 -37v-90v-135c0 -5 -4 -10 -10 -10h-37h-150c-5 0 -10 5 -10 10v33v182v46c0 11 2 21 3 32c5 59 10 119 15 179c3 39 7 78 10 117c1 6 4 10 10 10h130c13 0 13 -20 0 -20h-130c3 4 7 7 10 10
c-1 -8 -1 -17 -2 -26c-5 -59 -10 -117 -15 -176c-4 -42 -7 -83 -11 -125c-1 -12 0 -25 0 -37v-90v-135c-3 4 -6 7 -10 11h38h149c-3 -4 -6 -7 -10 -11v33v182v46c0 11 -2 21 -3 32c-5 59 -10 119 -16 179c-3 39 -7 78 -10 117z" />
    <glyph glyph-name="numbersign" unicode="#" horiz-adv-x="620" 
d="M101 -10c-3 -13 -22 -7 -19 5c6 25 11 50 17 75c11 47 22 94 33 140c3 -4 6 -8 10 -12h-121c4 2 7 5 10 7l-18 -75c-11 -47 -22 -93 -33 -140c-1 -4 -5 -8 -9 -8h-6h-145c-6 0 -11 7 -9 13c6 25 12 50 17 75c12 47 23 94 34 140l9 -12h-91c-6 0 -10 4 -10 10v4v144
c0 6 4 10 10 10h121c-3 -2 -6 -5 -9 -7c0 2 1 4 1 7c10 47 19 95 29 143c3 -5 7 -9 10 -13h-108c-6 0 -10 5 -10 10v4v144c0 6 4 10 10 10h138c-3 -2 -7 -4 -10 -7c5 22 11 43 16 65c12 47 23 94 35 141c1 4 5 7 9 7h6h145c6 0 11 -6 9 -12c-5 -22 -10 -43 -16 -65
c-11 -47 -23 -94 -34 -141c-4 4 -7 8 -10 12h121c-4 -2 -7 -4 -10 -7c5 22 11 43 16 65c12 47 23 94 35 141c1 4 5 7 9 7h6h145c7 0 11 -6 10 -12c-6 -22 -11 -43 -16 -65c-12 -47 -23 -94 -35 -141c-3 4 -6 8 -10 12h94c6 0 10 -4 10 -10v-4v-144c0 -5 -4 -10 -10 -10h-124
c4 2 7 5 10 7c0 -2 -1 -4 -1 -7c-10 -47 -20 -95 -30 -143c-3 5 -6 9 -10 13h111c6 0 10 -4 10 -10v-4v-144c0 -6 -4 -10 -10 -10h-1h-140c4 2 7 5 10 7l-18 -75c-11 -47 -22 -93 -33 -140c-1 -4 -5 -8 -9 -8h-6h-145c-12 0 -12 21 0 21h6h145c-4 -3 -7 -5 -10 -8l18 75
c11 47 22 94 33 140c1 5 5 8 9 8h2h139c-3 -4 -6 -7 -10 -10v4v144c4 -3 7 -7 10 -10h-111c-6 0 -11 6 -9 13c0 2 1 4 1 7c10 47 20 95 30 143c1 4 5 7 9 7h124c-3 -3 -6 -7 -10 -10v4v144c4 -3 7 -6 10 -10h-94c-6 0 -11 7 -9 13c5 22 10 43 16 65c11 47 23 94 35 141
c3 -4 6 -8 9 -13h-6h-145c4 3 7 5 10 8c-5 -22 -11 -43 -16 -65c-12 -47 -23 -94 -35 -141c-1 -5 -5 -8 -9 -8h-121c-7 0 -11 7 -10 13c6 22 11 43 16 65c12 47 23 94 35 141c3 -4 6 -8 10 -13h-6h-145c4 3 7 5 10 8c-5 -22 -11 -43 -16 -65c-11 -47 -23 -94 -35 -141
c-1 -5 -5 -8 -9 -8h-1h-137c3 4 6 7 10 10v-4v-144c-4 3 -7 7 -10 10h108c7 0 11 -6 9 -13c0 -2 -1 -4 -1 -7c-10 -47 -19 -95 -29 -143c-1 -4 -6 -7 -10 -7h-121c3 3 6 7 10 10v-4v-144c-4 3 -7 6 -10 10h91c7 0 11 -7 10 -13l-18 -75c-11 -47 -22 -93 -33 -140
c-3 4 -6 8 -10 13h6h145c-4 -3 -7 -5 -10 -8l18 75c11 47 22 94 33 140c1 5 5 8 9 8h121c6 0 11 -7 9 -13c-6 -25 -11 -50 -17 -75c-11 -47 -22 -93 -33 -140zM181 353c-1 -5 -7 -8 -12 -7c-6 2 -8 7 -7 13c0 2 1 4 1 7c10 47 20 95 30 143c3 -5 6 -9 10 -13h-121
c3 2 6 5 10 7c-1 -2 -1 -4 -2 -7c-10 -47 -19 -95 -29 -143c-3 5 -6 9 -10 13h121c12 0 12 -20 0 -20h-121c-6 0 -10 6 -9 13c0 2 1 4 1 7c10 47 20 95 29 143c1 4 6 7 10 7h121c6 0 10 -6 9 -13c0 -2 -1 -4 -1 -7c-10 -47 -20 -95 -30 -143z" />
    <glyph glyph-name="period" unicode="." horiz-adv-x="620" 
d="M55 90c0 -13 -20 -13 -20 0c1 49 41 90 90 90s91 -41 90 -90c0 -49 -40 -90 -90 -90c-49 0 -89 41 -90 90c0 13 20 13 20 0c1 -32 23 -61 55 -68s65 9 79 39c19 40 -6 88 -49 97c-43 10 -84 -24 -85 -68z" />
    <glyph glyph-name="question" unicode="?" horiz-adv-x="633" 
d="M208 -1c0 -12 -20 -12 -20 0v39v149c0 6 4 10 10 10h34h149c6 0 10 -4 10 -10v-38v-150c0 -5 -4 -10 -10 -10h-34h-149c-13 0 -13 21 0 21h34h149c-3 -4 -6 -7 -10 -11v39v149c4 -3 7 -6 10 -10h-34h-149c3 4 7 7 10 10v-38v-150zM210 235c0 -13 -20 -13 -20 0v29
c0 46 2 92 17 136c17 50 52 91 90 127c8 8 17 16 25 25c11 10 23 20 31 31s15 23 17 37c2 12 0 26 -4 37c-3 9 -10 21 -17 26c-8 6 -17 8 -27 10c-13 2 -28 3 -41 1c-12 -1 -24 -4 -34 -10c-9 -6 -15 -14 -20 -24c0 -1 -2 -5 -1 -2c-1 -2 -1 -3 -2 -5c-1 -3 -2 -7 -3 -11
c-8 -31 -8 -64 -9 -96c0 -5 -4 -10 -10 -10h-22h-150c-5 0 -10 5 -10 10c0 34 0 68 5 102c8 50 28 97 60 136c31 38 73 65 120 80c51 15 108 17 160 7c49 -9 96 -31 132 -67c36 -35 61 -82 69 -132c8 -53 3 -112 -27 -157c-26 -40 -62 -73 -97 -106c-15 -15 -32 -32 -43 -49
c-2 -3 -3 -5 -5 -8c0 -1 -1 -2 -1 -3l-1 -1c-1 -2 1 2 0 0c-2 -7 -4 -13 -5 -20c-6 -30 -4 -62 -4 -93c0 -6 -5 -10 -10 -10h-23h-150c-13 0 -13 20 0 20h23h150c-3 -4 -7 -7 -10 -10c0 26 -1 54 2 80c1 15 4 29 10 43c5 11 13 21 21 31c18 21 39 40 59 60
c18 17 35 35 50 54c12 14 24 31 31 50c10 25 14 53 13 80c-1 49 -16 98 -48 137c-31 38 -73 65 -120 77c-50 14 -106 14 -156 1c-47 -11 -88 -35 -120 -71c-33 -37 -52 -83 -60 -132c-6 -32 -5 -66 -5 -99c-3 4 -6 7 -10 10h23h149c-3 -3 -7 -6 -10 -10c1 16 1 32 2 47
c2 42 9 93 52 113c25 11 56 11 83 6c10 -2 21 -5 30 -11c9 -7 16 -17 22 -28c12 -26 13 -56 0 -82c-9 -18 -22 -31 -35 -45c-27 -25 -55 -51 -78 -79c-15 -19 -28 -38 -38 -60c-8 -21 -14 -45 -17 -68c-4 -34 -3 -69 -3 -104z" />
    <glyph glyph-name="questiondown" unicode="&#xbf;" horiz-adv-x="633" 
d="M426 869c0 13 20 13 20 0v-38v-150c0 -5 -5 -10 -10 -10h-34h-150c-5 0 -10 5 -10 10v39v149c0 5 5 10 10 10h35h149c13 0 13 -20 0 -20h-34h-150c4 3 7 7 10 10v-38v-150c-3 3 -6 7 -10 10h35h149l-10 -10v39v149zM424 634c0 13 20 13 20 0v-30c0 -45 -2 -92 -17 -135
c-17 -50 -53 -91 -90 -127c-9 -9 -17 -17 -26 -25c-10 -10 -22 -20 -30 -32c-8 -11 -15 -23 -17 -36s0 -26 4 -38c3 -9 10 -20 16 -25c9 -6 18 -9 28 -11c13 -2 27 -2 41 -1c11 2 23 4 33 11c9 6 16 14 21 23c0 1 2 5 1 3c1 1 1 3 2 4c1 4 2 8 3 11c8 31 8 64 9 96
c0 6 4 10 10 10h22h149c6 0 10 -4 10 -10c0 -34 1 -68 -4 -101c-8 -50 -28 -98 -60 -137c-32 -37 -73 -65 -120 -79c-51 -17 -108 -19 -160 -9c-50 11 -96 33 -132 68c-37 36 -61 82 -69 133c-8 52 -4 111 27 157c26 39 62 73 96 106c16 15 32 31 44 49c1 2 3 5 5 8
c0 1 1 2 1 3c0 0 1 0 1 1c1 2 -1 -2 0 0c2 6 4 13 5 19c6 30 4 63 4 94c0 5 4 10 10 10h23h150c13 0 13 -20 0 -20h-23h-150c3 3 6 7 10 10c0 -27 1 -54 -2 -81c-2 -14 -4 -29 -10 -42c-5 -12 -13 -22 -21 -31c-18 -22 -39 -41 -59 -60c-18 -18 -35 -35 -51 -54
c-12 -15 -23 -31 -31 -50c-9 -26 -13 -53 -12 -80c1 -50 16 -99 47 -137c32 -38 73 -65 121 -78c50 -13 106 -14 156 -1c47 12 88 36 120 72c32 37 52 83 60 131c5 33 4 66 4 99c4 -3 7 -6 10 -10h-22h-149c3 4 6 7 10 10c-1 -15 -1 -31 -2 -47c-2 -41 -9 -93 -52 -112
c-25 -11 -56 -12 -83 -7c-10 2 -21 6 -30 12c-9 7 -17 17 -22 27c-12 26 -13 57 0 83c8 17 21 31 35 44c27 26 54 51 78 80c15 18 28 38 37 60c9 21 15 44 17 67c5 35 4 70 4 105z" />
    <glyph glyph-name="quotedbl" unicode="&#x22;" horiz-adv-x="671" 
d="M316 834c5 2 11 1 14 -4c2 -4 1 -11 -4 -13c-10 -5 -19 -9 -29 -13c-7 -3 -14 -7 -19 -13c-6 -7 -8 -15 -9 -24c-4 4 -7 8 -10 12h43c6 0 10 -4 10 -10v-4v-144c0 -6 -4 -10 -10 -10h-5h-144c-5 0 -10 4 -10 10v109c0 39 4 79 24 113c13 22 31 40 53 53c14 8 28 14 42 20
c6 3 11 2 14 -3c18 -28 36 -55 54 -83c7 -10 -11 -20 -18 -10c-17 28 -35 55 -53 83c4 -2 9 -3 14 -4c-24 -10 -47 -20 -66 -37c-25 -24 -38 -55 -42 -89c-3 -27 -2 -56 -2 -83v-69l-10 10h5h144c-3 -4 -6 -7 -10 -10v4v144c4 -3 7 -6 10 -10h-43c-7 0 -11 7 -10 13
c3 11 6 22 14 32c6 7 14 13 23 17c10 4 20 9 30 13zM513 832c5 2 10 1 13 -4c3 -4 2 -11 -3 -13c-10 -5 -19 -9 -29 -13c-7 -3 -14 -7 -19 -14c-6 -6 -8 -14 -10 -23l-9 12h43c5 0 10 -4 10 -10v-5v-143c0 -6 -5 -10 -10 -10h-5h-144c-5 0 -10 4 -10 10v109
c0 38 3 78 23 113c13 22 32 40 54 53c14 8 28 14 42 20c5 3 11 2 14 -3c18 -28 36 -55 53 -83c8 -11 -10 -21 -17 -10c-18 28 -35 55 -53 83c4 -2 9 -3 13 -4c-23 -10 -47 -20 -65 -37c-25 -24 -38 -55 -42 -89c-3 -27 -2 -56 -2 -83v-69l-10 10h5h144c-3 -4 -7 -7 -10 -10
v4v144c3 -3 7 -6 10 -10h-43c-7 0 -11 7 -10 13c2 11 6 22 14 32c6 7 14 13 23 17c10 4 20 9 30 13z" />
    <glyph glyph-name="quotesingle" unicode="'" horiz-adv-x="621" 
d="M207 694c-5 -2 -11 -1 -14 4c-2 4 -1 11 4 13c10 5 19 9 29 13c7 3 14 7 19 14c6 6 8 14 9 23c4 -4 7 -8 10 -12h-43c-6 0 -10 4 -10 10v4v144c0 6 4 10 10 10h5h144c5 0 10 -4 10 -10v-109c0 -38 -3 -79 -24 -113c-12 -22 -31 -40 -53 -53c-14 -8 -28 -14 -42 -20
c-6 -3 -11 -2 -14 3c-18 28 -36 55 -54 83c-7 11 11 21 18 10c18 -28 35 -55 53 -83c-4 2 -9 3 -13 4c23 10 46 20 65 37c25 24 38 55 42 89c3 27 2 56 2 83v69l10 -10h-5h-144c3 4 7 7 10 10v-4v-144c-3 3 -7 6 -10 10h43c7 0 11 -7 10 -13c-3 -11 -6 -22 -14 -32
c-6 -7 -14 -13 -23 -17c-10 -4 -20 -9 -30 -13z" />
    <glyph glyph-name="semicolon" unicode=";" horiz-adv-x="550" 
d="M350 581c13 0 13 -20 0 -20h-5h-145c-5 0 -10 5 -10 10v6v144c0 6 5 10 10 10h6h144c6 0 10 -4 10 -10v-5v-145c0 -12 -20 -12 -20 0v6v144c4 -3 7 -6 10 -10h-5h-145l10 10v-5v-145c-3 4 -6 7 -10 10h6h144zM187 114c-5 -3 -11 -2 -14 3c-2 4 -1 12 4 14
c10 4 19 8 29 13c7 3 14 7 19 13c6 7 8 15 9 24c4 -4 7 -9 10 -13h-43c-6 0 -10 5 -10 10v5v144c0 5 4 10 10 10h5h144c5 0 10 -5 10 -10v-109c0 -39 -4 -79 -24 -113c-13 -23 -31 -41 -54 -54c-13 -8 -27 -14 -42 -20c-5 -2 -10 -1 -13 4c-18 27 -36 55 -54 82
c-7 11 11 21 18 10c17 -27 35 -55 53 -82c-5 1 -9 2 -14 3c24 11 47 20 66 38c25 23 38 55 42 88c3 28 2 56 2 84v69c3 -3 6 -7 10 -10h-5h-144c3 3 6 7 10 10v-5v-144l-10 10h43c7 0 11 -6 10 -12c-3 -12 -6 -23 -14 -32c-6 -8 -14 -13 -23 -17c-10 -5 -20 -9 -30 -13z" />
    <glyph glyph-name="slash" unicode="/" horiz-adv-x="620" 
d="M572 927c11 -6 1 -23 -10 -17c-22 10 -43 21 -65 32c5 1 9 2 14 3c-3 -5 -6 -11 -8 -17c-15 -29 -30 -58 -45 -88c-23 -47 -47 -95 -71 -143c-28 -57 -57 -114 -85 -172c-30 -58 -59 -117 -88 -176c-26 -53 -52 -105 -78 -157c-19 -37 -38 -75 -56 -112
c-8 -15 -15 -29 -22 -43c-1 4 -2 9 -3 14c21 -11 43 -22 64 -32c-5 -2 -9 -3 -14 -4c3 6 6 11 9 17c14 29 29 59 44 88c23 48 47 95 71 143c28 57 57 114 85 172c30 59 59 118 89 176c26 53 52 105 78 157c18 38 37 75 56 112c7 15 14 29 21 43c6 12 23 2 17 -10
c-3 -5 -5 -11 -8 -17c-15 -29 -29 -59 -44 -88c-24 -48 -48 -95 -71 -143c-29 -57 -57 -114 -86 -172s-59 -117 -88 -176c-26 -53 -52 -105 -78 -157c-19 -38 -37 -75 -56 -112c-7 -15 -14 -29 -21 -43c-3 -5 -10 -6 -14 -4c-22 11 -43 22 -64 32c-6 3 -6 9 -4 14
c3 6 6 11 8 17c15 29 30 59 44 88c24 48 48 95 71 143c29 57 58 114 86 172c30 59 59 118 88 176c26 53 52 105 78 157c19 38 38 75 56 112c7 15 15 29 22 43c2 5 9 6 13 4c22 -11 43 -21 65 -32z" />
    <glyph glyph-name="underscore" unicode="_" horiz-adv-x="620" 
d="M620 -117c0 -13 -20 -13 -20 0v72c3 -4 6 -7 10 -10c-7 -1 -14 -1 -21 -1h-136c-64 0 -129 0 -194 -1h-174h-75l10 10v-72c-4 3 -7 6 -10 10h20h136c64 0 129 0 194 1h174c25 0 50 0 76 1c12 0 12 -20 0 -20c-7 -1 -14 -1 -21 -1h-136c-64 0 -129 0 -194 -1h-174h-75
c-6 -1 -10 4 -10 10v72c0 5 4 9 10 10h20h136c64 0 129 0 194 1h174c25 0 50 0 76 1c5 0 10 -5 10 -10v-72z" />
    <glyph glyph-name="braceleft" unicode="{" 
 />
    <glyph glyph-name="braceright" unicode="}" 
 />
    <glyph glyph-name="bracketleft" unicode="[" 
 />
    <glyph glyph-name="bracketright" unicode="]" 
 />
    <glyph glyph-name="parenleft" unicode="(" horiz-adv-x="621" 
d="M343 -44c3 -4 0 -11 -4 -14c-5 -3 -11 0 -14 4c-26 36 -46 75 -63 116c-23 56 -42 113 -54 172c-13 62 -20 126 -17 189c2 64 12 127 28 189c16 57 37 114 63 167c10 21 22 42 35 61c4 5 9 16 17 16h7h145c7 0 14 -9 9 -15c-22 -30 -42 -61 -59 -94
c-27 -52 -47 -108 -62 -164c-16 -59 -26 -120 -26 -181s8 -121 24 -180c15 -58 35 -115 62 -169c12 -23 24 -45 39 -66c7 -11 15 -21 22 -31c5 -6 -2 -15 -9 -15h-6h-146c-13 0 -13 20 0 20h7h145c-2 -5 -5 -10 -8 -15l-1 1c-8 11 -17 23 -24 35c-15 21 -28 44 -39 67
c-27 54 -48 112 -63 171c-14 60 -23 121 -23 182c1 61 10 123 25 182c16 59 37 116 64 170c11 23 24 45 39 66c7 11 14 21 22 31c3 -5 6 -10 8 -15h-6h-146c3 2 6 3 9 5c-46 -63 -75 -136 -97 -210c-37 -121 -46 -250 -22 -375c11 -62 30 -122 54 -181
c17 -42 38 -82 65 -119z" />
    <glyph glyph-name="parenright" unicode=")" horiz-adv-x="620" 
d="M295 -54c-3 -4 -8 -7 -13 -4s-7 10 -4 14c45 63 74 136 97 210c37 121 46 250 22 375c-12 62 -30 122 -54 181c-17 42 -38 82 -65 119c3 -2 6 -3 9 -5h-7h-146l9 15c9 -12 17 -24 25 -36c14 -21 27 -44 39 -67c26 -54 47 -112 62 -171s24 -121 24 -182
c-1 -61 -10 -123 -26 -182c-15 -59 -36 -116 -63 -170c-12 -23 -25 -45 -39 -66c-7 -11 -15 -21 -22 -31l-9 15h7h146c13 0 13 -20 0 -20h-7h-146c-7 0 -13 9 -8 15c21 30 42 61 59 94c27 52 47 108 62 164c16 59 25 120 26 181c0 61 -9 121 -24 180c-15 58 -35 115 -63 169
c-11 23 -24 45 -38 66c-8 11 -15 21 -22 31c-5 6 1 15 8 15h143h9c7 0 10 -6 14 -11c12 -18 24 -37 34 -56c27 -52 47 -108 63 -164c36 -123 43 -252 19 -378c-12 -61 -31 -122 -55 -180c-18 -43 -39 -84 -66 -121z" />
    <glyph glyph-name="emdash" unicode="&#x2014;" horiz-adv-x="620" 
d="M553 253c0 -13 -20 -13 -20 0v72c3 -4 7 -7 10 -10c-5 -1 -10 -1 -16 -1h-148c-63 -1 -127 -1 -191 -1h-95c3 3 7 6 10 10v-72c-3 3 -7 6 -10 10h16h148c64 1 128 1 191 1c32 0 64 0 95 1c13 0 13 -20 0 -20c-5 -1 -10 -1 -16 -1h-148c-63 -1 -127 -1 -191 -1h-95
c-5 -1 -10 4 -10 10v72c0 5 5 9 10 10h16h148c64 1 128 1 191 1c32 0 64 0 95 1c6 0 10 -5 10 -10v-72z" />
    <glyph glyph-name="endash" unicode="&#x2013;" horiz-adv-x="620" 
d="M550 243c0 -13 -20 -13 -20 0v72c3 -4 7 -7 10 -10c-5 -1 -10 -1 -16 -1h-148c-63 -1 -127 -1 -191 -1h-95c3 3 7 6 10 10v-72c-3 3 -7 6 -10 10h16h148c64 1 127 1 191 1c32 0 64 0 95 1c13 0 13 -20 0 -20c-5 -1 -10 -1 -16 -1h-148c-63 -1 -127 -1 -191 -1h-95
c-5 -1 -10 4 -10 10v72c0 5 5 9 10 10h16h148c64 1 127 1 191 1c32 0 64 0 95 1c6 0 10 -5 10 -10v-72z" />
    <glyph glyph-name="hyphen" unicode="-" horiz-adv-x="500" 
d="M410 263c0 -13 -20 -13 -20 0v72c3 -4 6 -7 10 -10c-4 -1 -8 -1 -11 -1c-55 0 -110 0 -165 -1h-124l10 10v-72c-4 3 -7 6 -10 10h10c55 0 110 0 165 1c41 0 83 0 125 1c12 0 12 -20 0 -20c-4 -1 -8 -1 -11 -1c-55 0 -110 0 -165 -1h-124c-6 -1 -10 4 -10 10v72
c0 5 4 9 10 10h10c55 0 110 0 165 1c41 0 83 0 125 1c5 0 10 -5 10 -10v-72z" />
    <glyph glyph-name="guillemotleft" unicode="&#xab;" 
 />
    <glyph glyph-name="guillemotright" unicode="&#xbb;" 
 />
    <glyph glyph-name="guilsinglleft" unicode="&#x2039;" 
 />
    <glyph glyph-name="guilsinglright" unicode="&#x203a;" 
 />
    <glyph glyph-name="quotedblbase" unicode="&#x201e;" horiz-adv-x="621" 
d="M96 -64c-5 -2 -11 -1 -14 4c-2 4 -1 11 4 13c10 5 19 9 29 13c7 3 14 7 19 14c6 6 8 14 9 23c4 -4 7 -8 10 -12h-43c-6 0 -10 4 -10 10v4v144c0 6 4 10 10 10h5h144c5 0 10 -4 10 -10v-109c0 -38 -4 -79 -24 -113c-13 -22 -31 -40 -54 -53c-13 -8 -27 -14 -42 -20
c-5 -3 -10 -2 -13 3c-18 28 -36 55 -54 83c-7 11 11 21 18 10c17 -28 35 -55 53 -83c-5 2 -9 3 -14 4c24 10 47 20 66 37c25 24 38 55 42 89c3 27 2 56 2 83v69l10 -10h-5h-144c3 4 6 7 10 10v-4v-144c-4 3 -7 6 -10 10h43c7 0 11 -7 10 -13c-3 -11 -6 -22 -14 -32
c-6 -7 -14 -13 -23 -17c-10 -4 -20 -9 -30 -13zM96 -64c-5 -2 -11 -1 -14 4c-2 4 -1 11 4 13c10 5 19 9 29 13c7 3 14 7 19 14c6 6 8 14 9 23c4 -4 7 -8 10 -12h-43c-6 0 -10 4 -10 10v4v144c0 6 4 10 10 10h5h144c5 0 10 -4 10 -10v-109c0 -38 -4 -79 -24 -113
c-13 -22 -31 -40 -54 -53c-13 -8 -27 -14 -42 -20c-5 -3 -10 -2 -13 3c-18 28 -36 55 -54 83c-7 11 11 21 18 10c17 -28 35 -55 53 -83c-5 2 -9 3 -14 4c24 10 47 20 66 37c25 24 38 55 42 89c3 27 2 56 2 83v69l10 -10h-5h-144c3 4 6 7 10 10v-4v-144c-4 3 -7 6 -10 10h43
c7 0 11 -7 10 -13c-3 -11 -6 -22 -14 -32c-6 -7 -14 -13 -23 -17c-10 -4 -20 -9 -30 -13z" />
    <glyph glyph-name="quotedblleft" unicode="&#x201c;" horiz-adv-x="671" 
d="M316 833c5 3 11 2 14 -3c2 -4 1 -12 -4 -14c-10 -4 -19 -8 -29 -13c-7 -3 -14 -7 -19 -13c-6 -7 -8 -15 -9 -24c-4 4 -7 9 -10 13h43c6 0 10 -5 10 -10v-5v-144c0 -5 -4 -10 -10 -10h-5h-144c-5 0 -10 5 -10 10v109c0 39 4 79 24 113c13 23 31 41 53 54c14 8 28 14 42 20
c6 2 11 1 14 -4c18 -27 36 -55 54 -82c7 -11 -11 -21 -18 -10c-17 27 -35 55 -53 82c4 -1 9 -2 14 -3c-24 -11 -47 -20 -66 -38c-25 -23 -38 -55 -42 -88c-3 -28 -2 -56 -2 -84v-69c-3 3 -6 7 -10 10h5h144c-3 -3 -6 -7 -10 -10v5v144c4 -3 7 -7 10 -10h-43
c-7 0 -11 6 -10 12c3 12 6 23 14 32c6 8 14 14 23 17c10 5 20 9 30 13zM513 831c5 3 10 2 13 -3c3 -4 2 -12 -3 -14c-10 -4 -19 -8 -29 -13c-7 -3 -14 -7 -19 -13c-6 -7 -8 -15 -10 -24c-3 4 -6 9 -9 13h43c5 0 10 -5 10 -10v-5v-144c0 -5 -5 -10 -10 -10h-5h-144
c-5 0 -10 5 -10 10v109c0 39 3 79 23 113c13 23 32 41 54 54c14 8 28 14 42 20c5 2 11 1 14 -4c18 -27 36 -55 53 -82c8 -11 -10 -21 -17 -10c-18 27 -35 55 -53 82c4 -1 9 -2 13 -3c-23 -11 -47 -20 -65 -38c-25 -23 -38 -55 -42 -89c-3 -27 -2 -55 -2 -83v-69
c-3 3 -6 7 -10 10h5h144l-10 -10v5v144c3 -4 7 -7 10 -10h-43c-7 0 -11 6 -10 12c2 12 6 23 14 32c6 8 14 13 23 17c10 5 20 9 30 13z" />
    <glyph glyph-name="quotedblright" unicode="&#x201d;" horiz-adv-x="671" 
d="M356 693c-5 -3 -11 -2 -14 3c-2 4 -1 12 4 14c9 4 19 8 29 13c7 3 14 7 19 13c6 7 8 15 9 24c4 -4 7 -9 10 -13h-43c-6 0 -10 5 -10 10v5v144c0 5 4 10 10 10h4h144c6 0 10 -5 10 -10v-109c0 -39 -3 -79 -23 -113c-13 -23 -31 -41 -54 -54c-13 -8 -27 -14 -42 -20
c-5 -2 -10 -1 -13 4c-18 27 -36 55 -54 82c-7 11 11 21 18 10c17 -27 35 -55 53 -82c-5 1 -9 2 -14 3c24 11 47 20 66 38c25 23 38 55 42 88c3 28 1 56 1 84v69c4 -3 7 -7 10 -10h-4h-144c3 3 6 7 10 10v-5v-144l-10 10h43c7 0 11 -6 10 -12c-3 -12 -6 -23 -14 -32
c-6 -8 -14 -13 -23 -17c-10 -5 -20 -9 -30 -13zM159 695c-5 -3 -11 -2 -14 3c-2 5 -1 12 4 14c10 4 19 8 29 13c7 3 14 7 19 13c6 7 8 15 9 24c4 -4 7 -8 10 -13h-43c-6 0 -10 5 -10 10v5v144c0 5 4 10 10 10h5h144c5 0 10 -5 10 -10v-109c0 -39 -3 -79 -24 -113
c-12 -22 -31 -41 -53 -54c-14 -8 -28 -14 -42 -20c-6 -2 -11 -1 -14 4c-18 27 -36 55 -54 82c-7 11 11 21 18 10c18 -27 35 -55 53 -82c-4 1 -9 2 -13 4c23 10 46 19 65 37c25 23 38 55 42 89c3 27 2 55 2 83v69c3 -3 6 -7 10 -10h-5h-144l10 10v-5v-144c-3 4 -7 7 -10 10
h43c7 0 11 -6 10 -12c-3 -12 -6 -23 -14 -32c-6 -8 -14 -13 -23 -17c-10 -5 -20 -9 -30 -13z" />
    <glyph glyph-name="quoteleft" unicode="&#x2018;" horiz-adv-x="621" 
d="M414 833c5 2 11 1 14 -4c2 -4 1 -11 -4 -13c-10 -5 -19 -9 -29 -13c-7 -3 -14 -7 -19 -14c-6 -6 -8 -14 -9 -23c-4 4 -7 8 -10 12h43c6 0 10 -4 10 -10v-5v-143c0 -6 -4 -10 -10 -10h-5h-144c-5 0 -10 4 -10 10v109c0 38 4 78 24 113c12 22 31 40 53 53c14 8 28 14 42 20
c6 3 11 2 14 -3c18 -28 36 -55 54 -83c7 -11 -11 -21 -18 -10c-18 28 -35 55 -53 83c4 -2 9 -3 14 -4c-24 -10 -47 -20 -66 -37c-25 -24 -38 -55 -42 -89c-3 -27 -2 -56 -2 -83v-69l-10 10h5h144c-3 -4 -7 -7 -10 -10v4v144c3 -3 7 -6 10 -10h-43c-7 0 -11 7 -10 13
c3 11 6 22 14 32c6 7 14 13 23 17c10 4 20 9 30 13z" />
    <glyph glyph-name="quoteright" unicode="&#x2019;" horiz-adv-x="621" 
d="M207 694c-5 -2 -11 -1 -14 4c-2 4 -1 11 4 13c10 5 19 9 29 13c7 3 14 7 19 14c6 6 8 14 9 23c4 -4 7 -8 10 -12h-43c-6 0 -10 4 -10 10v4v144c0 6 4 10 10 10h5h144c5 0 10 -4 10 -10v-109c0 -38 -4 -79 -24 -113c-12 -22 -31 -40 -53 -53c-14 -8 -28 -14 -42 -20
c-6 -3 -11 -2 -14 3c-18 28 -36 55 -54 83c-7 11 11 21 18 10c18 -28 35 -55 53 -83c-4 2 -9 3 -14 4c24 10 47 20 66 37c25 24 38 55 42 89c3 27 2 56 2 83v69l10 -10h-5h-144c3 4 7 7 10 10v-4v-144c-3 3 -7 6 -10 10h43c7 0 11 -7 10 -13c-3 -11 -6 -22 -14 -32
c-6 -7 -14 -13 -23 -17c-10 -4 -20 -9 -30 -13z" />
    <glyph glyph-name="quotesinglbase" unicode="&#x201a;" horiz-adv-x="621" 
d="M96 -64c-5 -2 -11 -1 -14 4c-2 4 -1 11 4 13c10 5 19 9 29 13c7 3 14 7 19 14c6 6 8 14 9 23c4 -4 7 -8 10 -12h-43c-6 0 -10 4 -10 10v4v144c0 6 4 10 10 10h5h144c5 0 10 -4 10 -10v-109c0 -38 -4 -79 -24 -113c-13 -22 -31 -40 -54 -53c-13 -8 -27 -14 -42 -20
c-5 -3 -10 -2 -13 3c-18 28 -36 55 -54 83c-7 11 11 21 18 10c17 -28 35 -55 53 -83c-5 2 -9 3 -14 4c24 10 47 20 66 37c25 24 38 55 42 89c3 27 2 56 2 83v69l10 -10h-5h-144c3 4 6 7 10 10v-4v-144c-4 3 -7 6 -10 10h43c7 0 11 -7 10 -13c-3 -11 -6 -22 -14 -32
c-6 -7 -14 -13 -23 -17c-10 -4 -20 -9 -30 -13z" />
    <glyph glyph-name="space" unicode=" " horiz-adv-x="300" 
 />
    <glyph glyph-name="cent" unicode="&#xa2;" horiz-adv-x="620" 
d="M440 278c6 12 23 2 17 -10c-6 -10 -12 -21 -18 -32c-9 -16 -26 -29 -43 -36c-7 -3 -15 0 -15 8v32v150c0 8 8 12 15 9c16 -9 32 -20 44 -35c7 -9 15 -18 22 -27h-14c8 10 17 20 25 30c32 38 63 76 95 115c0 -4 -1 -8 -1 -12c-6 7 -11 14 -17 21c4 -5 -2 2 -2 3
c-2 2 -5 4 -7 7c-4 4 -8 9 -13 13c-8 8 -17 16 -26 23c-16 13 -33 25 -52 34s-40 14 -62 18c-4 0 -7 5 -7 9v48l10 -10h-84l10 10v-46c0 -6 -5 -9 -10 -10c-70 -9 -140 -41 -187 -93c-38 -42 -60 -97 -66 -153c-7 -53 -3 -110 15 -160c15 -45 42 -85 79 -113
c46 -35 102 -53 159 -59c5 0 10 -4 10 -10v-46l-10 10h84l-10 -10v47c0 4 3 9 7 10c24 3 47 10 69 21c20 10 40 22 56 38c14 13 27 27 37 44c5 8 9 17 14 25c1 -4 1 -8 2 -12c-10 11 -20 22 -30 32c-31 35 -63 70 -95 105c-8 10 6 24 14 14c10 -11 21 -22 31 -33
c31 -34 62 -69 94 -104c3 -3 4 -8 1 -12c-5 -9 -10 -19 -15 -28c-12 -18 -26 -34 -41 -48c-36 -33 -84 -54 -131 -62c2 4 4 7 7 10v-47c0 -5 -5 -10 -10 -10h-84c-6 0 -10 5 -10 10v46l10 -10c-84 8 -168 42 -219 111c-29 40 -46 87 -53 136c-8 58 -5 118 14 174
c10 27 22 53 39 76c16 22 36 42 59 59c47 34 102 55 160 62l-10 -10v46c0 5 4 10 10 10h84c5 0 10 -5 10 -10v-48c-3 3 -5 7 -7 10c46 -7 87 -27 123 -57c9 -7 18 -16 27 -24c8 -8 17 -17 24 -26c5 -7 10 -14 16 -21c3 -4 1 -9 -2 -13c-8 -10 -16 -20 -25 -30
c-31 -38 -63 -76 -95 -114c-3 -4 -11 -4 -14 0c-7 9 -15 18 -22 27c-11 13 -25 24 -40 31l15 9v-32v-150l-15 9c12 5 22 13 31 23l3 3c2 2 -1 -3 0 0c1 1 2 3 3 5c5 10 11 20 17 30zM284 237c3 -4 4 -10 0 -14s-11 -4 -14 0c-23 27 -33 65 -27 100c3 17 9 33 18 47
c10 15 24 26 41 34c6 3 15 0 15 -8v-41v-149c0 -8 -9 -12 -15 -9c-12 7 -23 16 -32 26c-9 9 5 24 14 14c8 -9 17 -17 28 -22l-15 -9v41v149l15 -9c-14 -7 -26 -16 -34 -29c-8 -12 -13 -25 -16 -40c-4 -28 4 -59 22 -81z" />
    <glyph glyph-name="currency" unicode="&#xa4;" 
 />
    <glyph glyph-name="dollar" unicode="$" horiz-adv-x="680" 
d="M571 463c4 -4 3 -11 0 -15c-4 -4 -10 -3 -15 0c-51 45 -117 69 -183 85c-4 1 -7 5 -7 10v95c0 7 6 12 13 10c34 -10 66 -24 93 -48c14 -13 28 -25 41 -38c-5 0 -10 -1 -15 -2c15 23 31 45 47 67c28 39 55 78 83 117c0 -4 1 -8 1 -12l-2 2c-27 23 -54 46 -84 64
c-52 30 -110 50 -170 59c-4 1 -7 5 -7 10v47l10 -10h-118l10 10v-44c0 -6 -5 -9 -10 -10c-52 -5 -103 -20 -147 -48c-46 -29 -82 -70 -99 -121c-9 -27 -15 -56 -15 -85s4 -58 13 -86c7 -25 19 -49 36 -69c17 -21 38 -39 61 -53c47 -30 100 -45 154 -59c4 -1 7 -5 7 -10v-100
c0 -7 -6 -12 -13 -10c-50 14 -95 42 -134 76c-15 12 -29 25 -44 38h14c-18 -22 -37 -44 -55 -67c-31 -36 -62 -73 -92 -109v14c12 -11 24 -22 36 -32c39 -34 80 -63 126 -85c47 -23 99 -38 152 -44c5 -1 10 -4 10 -10v-42l-10 10h118l-10 -10v41c0 6 5 10 10 10
c49 6 96 21 138 48c41 27 76 64 96 110c22 50 25 110 14 163c-10 46 -32 87 -68 118c-4 4 -3 11 0 15c5 4 11 3 15 0c0 -1 1 -2 2 -2c36 -32 59 -76 70 -123c12 -54 10 -115 -10 -168c-20 -52 -57 -96 -104 -127c-46 -31 -99 -47 -153 -54c3 4 7 7 10 10v-41
c0 -5 -5 -10 -10 -10h-118c-5 0 -10 5 -10 10v42c3 -4 7 -7 10 -10c-39 5 -78 13 -116 27c-52 20 -100 47 -145 81c-23 19 -45 39 -67 59c-5 4 -4 10 0 14c18 22 37 45 55 67c31 36 62 73 92 109c4 5 10 3 14 0c14 -12 29 -25 43 -37c37 -32 79 -58 127 -72
c-5 -3 -9 -6 -13 -9v100c2 -3 5 -6 7 -9c-63 16 -127 36 -180 76c-22 17 -42 36 -57 60c-15 23 -27 48 -33 75c-13 57 -12 120 10 175c21 52 58 94 106 123c47 30 101 46 157 51c-3 -3 -7 -6 -10 -10v44c0 5 5 10 10 10h118c5 0 10 -5 10 -10v-47c-2 3 -5 6 -7 9
c9 -1 18 -3 28 -5c58 -12 115 -34 164 -67c25 -18 49 -38 72 -58c4 -3 4 -9 2 -12c-16 -22 -32 -45 -47 -67c-28 -39 -56 -78 -83 -117c-4 -5 -11 -6 -16 -2c-13 12 -27 25 -40 37c-25 22 -54 34 -86 44c5 3 9 6 13 9v-95c-2 3 -5 6 -7 9c68 -17 137 -43 192 -89zM242 597
c5 -3 7 -9 4 -14c-3 -4 -9 -7 -14 -3c-7 5 -13 11 -15 19c-2 9 -3 20 0 29c6 16 23 23 38 27c7 2 13 -3 13 -10v-67c0 -6 -7 -12 -13 -10c-8 3 -16 7 -23 12c-10 7 0 24 10 17c6 -4 12 -7 19 -10c-5 -3 -9 -6 -13 -9v67c4 -3 8 -6 13 -9c-7 -2 -14 -5 -20 -9
c0 0 -3 -2 -2 -1l-1 -1c1 1 -1 -1 -1 -1c-1 -3 0 1 -1 -2c-1 -5 -1 -11 0 -16c1 -4 2 -6 6 -9zM384 244c4 3 11 1 13 -4c3 -5 1 -10 -3 -13s-8 -5 -13 -7c-7 -3 -15 0 -15 8v66c0 8 8 12 15 8c13 -6 29 -15 31 -31c1 -8 1 -17 -2 -25s-9 -14 -16 -19c-4 -4 -11 -1 -14 3
c-3 5 -1 11 4 14c8 6 11 15 8 24c-1 4 -3 6 -6 9c-5 3 -10 6 -15 8l15 9v-66l-15 9c5 2 9 4 13 7z" />
    <glyph glyph-name="Euro" unicode="&#x20ac;" horiz-adv-x="650" 
d="M317 -32c12 0 12 -20 0 -20c-67 0 -133 13 -193 42c-49 24 -94 58 -128 101c-37 46 -63 99 -79 156c3 -2 6 -5 10 -7h-87c-5 0 -10 4 -10 10v21v149c0 5 5 10 10 10h66l-10 -10v13c4 -3 7 -6 10 -10h-63c-6 0 -10 5 -10 10v21v149c0 6 4 10 10 10h86c-3 -2 -6 -5 -9 -7
c23 79 67 151 134 201c40 30 86 50 135 62c56 13 116 18 173 12c61 -7 121 -25 174 -56c26 -15 50 -33 75 -50c5 -4 6 -11 2 -16c-9 -12 -19 -23 -28 -35c-30 -39 -60 -78 -91 -117c-2 -3 -9 -4 -12 -2c-14 10 -29 20 -43 30c-24 15 -50 27 -78 32c-28 6 -57 6 -85 3
c-23 -3 -47 -9 -67 -20c-23 -12 -41 -30 -54 -52c-3 5 -5 10 -8 15h15h170h123c6 0 10 -4 10 -10v-21v-149c0 -5 -4 -10 -10 -10h-46h-185h-115l10 10v-13c-4 3 -7 7 -10 10h45h184h115c5 0 10 -5 10 -10v-21v-149c0 -6 -5 -10 -10 -10h-16h-171h-123l9 15
c12 -22 28 -42 48 -58c19 -14 41 -25 64 -30c27 -7 55 -8 83 -5c25 2 50 9 72 20c26 13 48 32 71 50c5 3 11 0 14 -4c9 -12 18 -25 27 -37c29 -40 59 -80 88 -120c3 -4 0 -10 -4 -13c-7 -5 -13 -10 -20 -15c-13 -8 -25 -17 -37 -25c-24 -15 -50 -28 -76 -39
c-53 -21 -109 -31 -165 -31c-13 0 -13 20 0 20c19 0 38 1 58 4c54 7 107 25 155 53c26 15 50 33 75 50c-1 -4 -2 -9 -3 -14c-9 13 -18 25 -27 37c-30 40 -59 80 -88 120c4 -1 9 -3 13 -4c-25 -18 -49 -39 -78 -52c-49 -23 -109 -28 -162 -15c-26 7 -51 18 -73 35
s-39 39 -52 63c-4 6 1 15 8 15h17h170h123l-10 -10v21v149l10 -10h-45h-185h-114c-6 0 -11 5 -10 10v13c1 6 5 10 10 10h47h185h114l-10 -10v21v149c4 -3 7 -6 10 -10h-15h-170h-123c-8 0 -13 9 -9 15c12 21 28 39 48 52c17 11 36 19 55 24c55 13 115 11 167 -10
c31 -13 57 -33 84 -51c-4 -1 -8 -1 -12 -2c9 12 18 23 27 35c31 39 61 78 91 117c1 -5 2 -10 2 -16l-42 30c-32 23 -67 41 -104 53c-58 20 -120 26 -181 21c-52 -3 -104 -14 -151 -37c-44 -20 -83 -50 -114 -87c-32 -40 -55 -87 -69 -136c-1 -5 -5 -8 -10 -8h-86
c3 4 6 7 10 10v-21v-149l-10 10h63c6 0 11 -4 10 -10v-13c0 -5 -5 -10 -10 -10h-66c4 3 7 7 10 10v-21v-149c-3 3 -6 7 -10 10h87c4 0 8 -3 9 -7c17 -60 45 -117 87 -163c36 -40 81 -71 131 -91c52 -21 107 -31 163 -31z" />
    <glyph glyph-name="sterling" unicode="&#xa3;" horiz-adv-x="672" 
d="M-34 177c-12 -6 -22 11 -10 17c9 6 18 11 27 16c11 6 22 11 32 18c19 13 36 31 48 51c11 20 15 43 16 67c3 -4 6 -7 10 -10h-104c-5 0 -10 4 -10 10v49v149c0 5 5 10 10 10h56c-3 -5 -6 -9 -9 -13c-8 42 -10 87 -1 129c11 55 39 105 81 142c40 35 90 58 142 68
c54 9 113 8 165 -9c48 -16 92 -45 125 -84c32 -40 53 -88 61 -139c4 -23 7 -47 11 -70c1 -5 -1 -12 -7 -12c-22 -4 -44 -7 -65 -10c-48 -8 -96 -15 -145 -22c0 6 -1 13 -2 20h39c5 0 10 -5 10 -10v-50v-148c0 -6 -5 -10 -10 -10h-130l10 10c-3 -35 -13 -69 -27 -101
c-2 5 -4 9 -6 14c32 -4 63 -13 95 -19l30 -6c3 0 6 -1 9 -1c2 -1 -2 0 1 0c0 0 1 -1 2 -1h3c2 0 5 0 8 -1c1 0 2 0 3 1h3c-3 -1 1 0 2 0c19 4 37 11 54 19l63 30c6 3 12 1 15 -6c7 -21 15 -43 23 -65c16 -45 32 -91 48 -137c1 -4 -1 -9 -5 -11c-16 -7 -33 -14 -50 -21
c-28 -12 -56 -24 -86 -31c-47 -11 -95 -11 -142 2c-23 6 -46 14 -70 21c-12 3 -24 7 -37 10s-28 3 -42 2s-29 -4 -43 -8c-21 -7 -40 -16 -58 -27c-20 -13 -40 -26 -61 -40c-6 -3 -12 1 -15 6c-9 25 -19 49 -29 74c-18 44 -35 89 -53 133c-2 5 2 11 7 12c6 2 10 -1 12 -7
c10 -24 20 -48 29 -73c18 -44 36 -89 54 -133l-15 6c15 9 30 19 45 28c21 14 42 27 66 36c29 10 60 16 90 13c15 -2 28 -5 42 -9c24 -7 49 -15 73 -22c11 -3 23 -6 34 -8c31 -6 63 -6 94 0c25 5 49 13 72 23c25 9 49 20 73 30c-2 -4 -3 -7 -5 -11c-7 22 -15 43 -22 65
c-16 46 -33 91 -49 137l15 -6c-25 -12 -51 -25 -77 -36c-17 -7 -35 -15 -53 -16c-6 -1 -12 0 -18 1c-47 6 -93 20 -140 27c-7 1 -8 10 -6 15c12 29 21 59 24 91c0 5 4 10 10 10h130l-10 -10v49v149c3 -4 6 -7 10 -10h-39c-11 0 -14 18 -3 19c22 4 44 7 65 10
c48 7 96 15 145 22c-3 -4 -5 -8 -7 -12c-2 9 -3 19 -5 29c-5 37 -11 74 -26 109c-19 45 -50 84 -90 111c-44 28 -95 42 -147 43c-54 2 -108 -8 -156 -35c-46 -25 -84 -64 -106 -112c-24 -53 -27 -115 -16 -172c1 -6 -3 -12 -10 -12h-56c3 3 7 6 10 10v-50v-148
c-3 3 -7 6 -10 10h104c5 0 10 -5 10 -10c-1 -26 -5 -53 -18 -76c-13 -22 -31 -42 -52 -57c-11 -8 -23 -14 -35 -20c-9 -5 -19 -11 -28 -16zM414 535c0 -6 -5 -10 -10 -10c-6 0 -10 4 -10 10c-2 12 -4 25 -5 38c-2 14 -3 29 -6 43c-5 22 -16 43 -38 53c-11 5 -24 5 -35 4
c-10 -1 -21 -4 -29 -11c-9 -7 -17 -16 -20 -27c-2 -9 -1 -18 -1 -27c2 -24 7 -47 13 -71c-3 3 -6 5 -10 8h1h140c13 0 13 -20 0 -20h-1h-140c-4 0 -8 3 -9 7c-5 18 -9 37 -11 56c-2 12 -4 25 -3 38c3 38 35 65 71 67c27 2 52 -6 70 -27c15 -17 21 -39 24 -62z" />
    <glyph glyph-name="yen" unicode="&#xa5;" 
 />
    <glyph glyph-name="plus" unicode="+" horiz-adv-x="709" 
d="M298 102c0 -13 -20 -13 -20 0v74v145c3 -4 7 -7 10 -10h-73h-145c-5 0 -10 4 -10 10v22v149c0 5 5 10 10 10h73h145l-10 -10v75v144c0 6 5 10 10 10h23h150c5 0 10 -4 10 -10v-75v-144l-10 10h73h145c5 0 10 -5 10 -10v-22v-149c0 -6 -5 -10 -10 -10h-73h-145
c3 3 7 6 10 10v-75v-144c0 -6 -5 -10 -10 -10h-23h-150c-13 0 -13 20 0 20h23h150c-3 -4 -7 -7 -10 -10v74v145c0 5 4 10 10 10h73h145c-3 -4 -7 -7 -10 -10v22v149l10 -10h-73h-145c-6 0 -10 4 -10 10v75v144c3 -3 7 -6 10 -10h-23h-150c3 4 7 7 10 10v-75v-144
c0 -6 -5 -10 -10 -10h-73h-145l10 10v-22v-149c-3 3 -7 6 -10 10h73h145c5 0 10 -5 10 -10v-75v-144z" />
    <glyph glyph-name="minus" unicode="&#x2212;" horiz-adv-x="708" 
d="M678 352c13 0 13 -20 0 -20h-26h-140h-195h-173h-74c-6 0 -10 4 -10 10v22v149c0 5 4 10 10 10h26h140h195h173h74c6 0 10 -5 10 -10v-22v-149c0 -13 -20 -13 -20 0v22v149c4 -3 7 -7 10 -10h-26h-140h-195h-173h-74c3 3 6 7 10 10v-22v-149c-4 3 -7 6 -10 10h26h140h195
h173h74z" />
    <glyph glyph-name="multiply" unicode="&#xd7;" horiz-adv-x="653" 
d="M508 161c9 -10 -5 -24 -14 -15c-18 18 -35 36 -53 53l-102 102h14c-17 -17 -34 -34 -52 -51c-34 -35 -68 -69 -102 -103c-4 -4 -10 -4 -14 0l-16 16l-105 105c-4 4 -4 11 0 14c17 18 34 35 51 52c34 34 69 68 103 103v-15l-54 54c-33 34 -67 68 -101 102c-4 4 -4 10 0 14
l16 16c35 36 71 71 106 106c4 4 10 4 14 0l53 -53l102 -102h-14l52 52l102 102c4 4 10 4 14 0c5 -5 11 -10 16 -16l105 -105c4 -4 4 -10 0 -14c-17 -18 -34 -35 -51 -52c-34 -34 -69 -68 -103 -102v14c18 -18 35 -36 53 -53l102 -102c4 -4 4 -10 0 -14
c-5 -6 -11 -11 -16 -17c-36 -35 -71 -70 -106 -106c-9 -9 -23 5 -14 15l16 16c36 35 71 71 106 106v-14c-18 17 -35 35 -53 52c-34 34 -68 68 -102 103c-4 3 -4 10 0 14c17 17 35 34 52 51c34 35 68 69 102 103v-14l-15 15c-36 35 -71 71 -106 106h14
c-17 -17 -34 -35 -51 -52c-35 -34 -69 -68 -103 -102c-4 -4 -10 -4 -14 0c-18 17 -36 35 -53 53l-102 102h14l-17 -17l-105 -105v14c17 -18 35 -36 53 -53l102 -102c4 -4 4 -11 0 -15c-17 -17 -35 -34 -52 -51c-34 -34 -68 -69 -102 -103v14l15 -15c36 -35 71 -71 106 -106
h-14c17 18 34 35 51 52c35 34 69 68 103 102c4 4 10 4 14 0c18 -17 35 -35 53 -52z" />
    <glyph glyph-name="divide" unicode="&#xf7;" horiz-adv-x="709" 
d="M679 369c13 0 13 -20 0 -20h-26h-140h-195h-173h-75c-5 0 -10 5 -10 10v22v149c0 6 5 10 10 10h26h140h195h173h75c5 0 10 -4 10 -10v-22v-149c0 -13 -20 -13 -20 0v22v149c3 -3 7 -6 10 -10h-26h-140h-195h-173h-75l10 10v-22v-149c-3 3 -6 7 -10 10h26h140h195h173h75z
M273 690c0 -13 -20 -13 -20 0c0 55 41 105 96 113c47 7 95 -14 119 -56c23 -42 18 -95 -13 -132c-31 -35 -83 -50 -127 -32c-45 17 -75 59 -75 107c0 13 20 13 20 0c0 -29 14 -57 37 -75c34 -26 85 -26 118 2c33 27 45 76 25 115s-64 61 -107 50c-43 -10 -73 -48 -73 -92z
M272 206c0 -13 -20 -13 -20 0c0 55 41 105 95 113c48 8 96 -14 119 -56c24 -42 19 -95 -12 -132c-31 -35 -83 -49 -127 -32c-45 17 -75 59 -75 107c0 13 20 13 20 0c0 -29 14 -57 37 -75c34 -26 85 -26 117 2c34 28 46 76 26 115s-64 61 -107 51c-43 -11 -73 -49 -73 -93z
" />
    <glyph glyph-name="equal" unicode="=" horiz-adv-x="709" 
d="M679 456c13 0 13 -20 0 -20h-26h-140h-195h-173h-75c-5 0 -10 4 -10 10v22v149c0 5 5 10 10 10h26h140h195h173h75c5 0 10 -5 10 -10v-22v-149c0 -13 -20 -13 -20 0v22v149l10 -10h-26h-140h-195h-173h-75l10 10v-22v-149c-3 3 -7 6 -10 10h26h140h195h173h75zM679 222
c13 0 13 -20 0 -20h-26h-140h-195h-173h-75c-5 0 -10 4 -10 10v22v149c0 5 5 10 10 10h26h140h195h173h75c5 0 10 -5 10 -10v-22v-149c0 -13 -20 -13 -20 0v22v149l10 -10h-26h-140h-195h-173h-75l10 10v-22v-149c-3 3 -7 6 -10 10h26h140h195h173h75z" />
    <glyph glyph-name="notequal" unicode="&#x2260;" 
 />
    <glyph glyph-name="greater" unicode="&#x3e;" 
 />
    <glyph glyph-name="less" unicode="&#x3c;" 
 />
    <glyph glyph-name="greaterequal" unicode="&#x2265;" 
 />
    <glyph glyph-name="lessequal" unicode="&#x2264;" 
 />
    <glyph glyph-name="plusminus" unicode="&#xb1;" 
 />
    <glyph glyph-name="approxequal" unicode="&#x2248;" 
 />
    <glyph glyph-name="asciitilde" unicode="~" 
 />
    <glyph glyph-name="logicalnot" unicode="&#xac;" 
 />
    <glyph glyph-name="emptyset" unicode="&#x2205;" 
 />
    <glyph glyph-name="infinity" unicode="&#x221e;" 
 />
    <glyph glyph-name="integral" unicode="&#x222b;" 
 />
    <glyph glyph-name="product" unicode="&#x220f;" 
 />
    <glyph glyph-name="summation" unicode="&#x2211;" 
 />
    <glyph glyph-name="radical" unicode="&#x221a;" 
 />
    <glyph glyph-name="partialdiff" unicode="&#x2202;" 
 />
    <glyph glyph-name="percent" unicode="%" horiz-adv-x="1014" 
d="M759 10c13 0 13 -20 0 -20c-33 0 -66 8 -95 24c-27 15 -51 38 -68 64c-27 43 -37 95 -38 145c-2 55 8 112 37 160c13 21 28 40 48 55c19 14 41 24 63 30c50 12 106 6 151 -19c43 -24 74 -63 91 -110c18 -51 20 -109 12 -162c-7 -49 -27 -95 -62 -130
c-38 -37 -87 -57 -139 -57c-13 0 -13 20 0 20c39 0 78 12 109 37c18 15 34 32 46 53s19 43 24 67c5 27 7 55 6 82c-1 26 -5 52 -13 77c-14 44 -43 83 -84 106c-43 23 -97 28 -144 14c-21 -6 -41 -17 -57 -31c-18 -17 -32 -37 -43 -59c-24 -49 -29 -106 -23 -160
c4 -45 17 -93 48 -127c17 -19 37 -34 60 -44c22 -11 46 -15 71 -15zM761 352c13 0 13 -20 0 -20c-7 0 -15 -2 -20 -7c-2 -1 -4 -3 -6 -5c0 0 -3 -4 -2 -3c-1 -1 -2 -2 -2 -3l-3 -6c-1 0 -1 -2 0 1c-1 -1 -1 -2 -1 -2c-1 -2 -1 -3 -2 -4c-2 -8 -4 -16 -5 -24
c-4 -25 -4 -53 -2 -79c1 -10 2 -20 5 -30c1 -4 2 -8 3 -11c0 -1 1 -3 0 -1c1 -1 1 -1 1 -2c1 -1 1 -2 2 -4c4 -7 10 -13 17 -17c2 -1 3 -1 6 -2c1 0 2 -1 3 -1h1c4 0 9 0 13 1c5 1 9 3 13 6c3 3 6 7 8 9c1 1 2 3 3 5c0 1 1 2 1 3c1 2 -1 -2 0 0c1 1 1 1 1 2c6 17 8 36 9 54
c2 26 2 53 -4 78c-5 20 -16 41 -39 42c-13 0 -13 20 0 20c22 0 41 -14 50 -34c10 -19 12 -41 13 -62c2 -26 1 -52 -3 -77c-2 -14 -6 -28 -13 -39c-10 -18 -30 -30 -51 -28c-20 2 -37 14 -46 32c-9 17 -12 36 -13 54c-2 28 -2 56 2 83c2 14 5 29 12 41c10 18 28 30 49 30z
M225 -5c-6 -11 -23 -1 -17 10c1 2 2 4 3 5c12 24 24 47 36 71l69 132c29 56 58 111 87 167c30 59 60 117 91 176c27 53 55 106 82 159c20 38 40 76 59 114c8 15 16 29 23 44c2 3 6 5 9 5h1h139c8 0 12 -9 9 -15c-1 -2 -2 -4 -3 -5c-12 -24 -24 -47 -36 -71
c-23 -44 -45 -88 -68 -132c-29 -55 -58 -111 -87 -167c-30 -58 -60 -117 -91 -176c-27 -53 -54 -106 -82 -158c-19 -39 -39 -77 -59 -115c-8 -15 -15 -29 -23 -44c-1 -3 -5 -5 -8 -5h-2h-140c-13 0 -13 20 0 20h1h141c-3 -2 -6 -3 -9 -5c1 2 2 4 3 5c12 24 24 47 36 70
c23 44 45 88 68 132l87 168c30 58 60 117 91 176c27 53 54 105 82 158c20 38 39 77 59 115c8 14 15 29 23 44c3 -5 6 -10 8 -15h-1h-139c3 1 6 3 9 5c-1 -2 -2 -4 -3 -5c-12 -24 -25 -48 -37 -71c-23 -44 -45 -88 -68 -132c-29 -56 -58 -112 -87 -167
c-31 -59 -61 -118 -91 -176c-28 -53 -55 -106 -83 -159c-19 -38 -39 -76 -59 -114c-8 -15 -15 -29 -23 -44zM261 414c13 0 13 -20 0 -20c-33 0 -66 8 -94 24c-27 15 -51 38 -68 64c-27 42 -37 94 -39 144c-2 55 8 111 36 159c13 21 28 41 48 56c19 15 41 25 64 31
c50 12 106 7 151 -19c42 -24 74 -63 90 -109c18 -52 21 -109 13 -163c-7 -48 -27 -95 -62 -130c-38 -37 -86 -57 -139 -57c-13 0 -13 20 0 20c39 0 78 12 109 37c18 15 34 33 46 53c11 21 19 44 24 67c5 27 7 55 5 82c-1 26 -4 52 -12 77c-14 45 -43 83 -84 106
c-43 24 -97 28 -144 14c-21 -6 -41 -17 -58 -32c-18 -17 -32 -37 -42 -59c-24 -50 -29 -106 -23 -160c5 -45 18 -92 49 -126c16 -19 36 -34 59 -44c22 -10 47 -15 71 -15zM263 756c13 0 13 -20 0 -20c-6 0 -11 -1 -16 -4c-3 -1 -5 -3 -7 -5c-1 -1 -2 -2 -3 -4
c0 1 -3 -3 -2 -2c-1 -1 -2 -2 -3 -4c0 -1 -1 -2 -1 -3c-1 -1 -2 -4 -1 -1c-1 -3 -2 -6 -3 -8c-6 -20 -7 -41 -8 -62c0 -25 0 -51 8 -75c6 -19 22 -37 44 -31c5 1 9 3 13 7c3 2 6 6 8 8c1 2 2 3 3 5c0 1 1 2 1 3c1 2 -1 -2 0 0c0 1 1 1 1 2c6 17 8 36 9 54c1 26 2 53 -4 78
c-5 20 -16 42 -39 42c-13 0 -13 20 0 20c16 0 31 -7 41 -20c10 -11 15 -25 18 -39c5 -27 6 -54 4 -81c-1 -19 -3 -40 -9 -58c-5 -14 -14 -27 -28 -35c-22 -13 -51 -7 -67 13c-16 19 -20 45 -22 69c-2 26 -1 53 2 79c2 14 5 29 12 42c10 18 28 30 49 30z" />
    <glyph glyph-name="perthousand" unicode="&#x2030;" 
 />
    <glyph glyph-name="arrowup" unicode="&#x2191;" 
 />
    <glyph glyph-name="uni2197" unicode="&#x2197;" 
 />
    <glyph glyph-name="arrowright" unicode="&#x2192;" 
 />
    <glyph glyph-name="uni2198" unicode="&#x2198;" 
 />
    <glyph glyph-name="arrowdown" unicode="&#x2193;" 
 />
    <glyph glyph-name="uni2199" unicode="&#x2199;" 
 />
    <glyph glyph-name="arrowleft" unicode="&#x2190;" 
 />
    <glyph glyph-name="uni2196" unicode="&#x2196;" 
 />
    <glyph glyph-name="arrowboth" unicode="&#x2194;" 
 />
    <glyph glyph-name="arrowupdn" unicode="&#x2195;" 
 />
    <glyph glyph-name="lozenge" unicode="&#x25ca;" 
 />
    <glyph glyph-name="at" unicode="@" horiz-adv-x="958" 
d="M537 -98c16 0 16 -25 0 -25c-77 0 -156 10 -229 37c-53 20 -102 47 -144 85c-42 37 -77 82 -100 134c-49 110 -56 238 -25 355c28 106 86 207 173 275c41 33 87 58 138 75c53 18 110 26 167 27c113 2 230 -29 317 -105c85 -74 136 -184 138 -297c1 -53 -8 -107 -29 -157
c-21 -52 -53 -99 -93 -139c-3 7 -6 14 -9 22h16h149c10 0 15 -11 11 -19c0 -1 -1 -1 -1 -1c-12 -24 -22 -49 -36 -73c-29 -49 -72 -92 -119 -125c-45 -33 -97 -58 -151 -73c-56 -15 -115 -21 -173 -21c-16 0 -16 25 0 25c57 0 115 5 170 21c52 16 103 40 147 73
c23 17 45 37 64 59c18 19 34 41 47 65c10 20 20 41 30 62c4 -6 7 -12 11 -18h-16h-149c-11 0 -16 13 -9 21c33 33 62 72 82 115c45 98 44 217 -2 315c-23 48 -54 91 -94 125c-39 35 -86 60 -136 76c-56 18 -114 25 -172 24c-56 -2 -111 -11 -163 -29
c-96 -35 -175 -104 -227 -192c-60 -103 -85 -224 -71 -342c7 -56 24 -112 51 -161c27 -47 64 -89 108 -121c94 -69 214 -93 329 -93zM523 718c17 0 17 -25 0 -25c-35 0 -70 -5 -104 -15c-50 -16 -97 -43 -133 -81c-37 -38 -63 -88 -78 -140c-16 -55 -19 -115 -10 -172
c9 -50 28 -99 62 -137c35 -38 80 -62 129 -77c57 -18 117 -23 176 -20c52 2 105 11 150 34c24 12 48 27 68 45c15 13 27 27 38 43c6 -5 13 -10 20 -15l-18 -15c-42 -36 -92 -61 -147 -68c-28 -3 -56 -3 -83 4s-51 23 -67 45c5 -1 11 -3 17 -4c-24 -18 -51 -32 -79 -40
c-58 -15 -121 -2 -169 33c-45 34 -75 84 -89 138c-16 59 -14 122 4 180c17 56 45 111 85 154c38 41 89 74 143 87c60 13 122 1 170 -36c-6 -3 -12 -5 -18 -8l6 27c1 5 7 9 12 9h100c-2 -8 -4 -16 -6 -23c-53 35 -115 52 -179 52c-16 0 -16 25 0 25c68 0 135 -18 192 -56
c10 -7 6 -23 -7 -23h-100l12 9c-2 -9 -4 -17 -6 -26c-1 -7 -12 -12 -18 -8c-8 6 -16 12 -25 16c-25 14 -53 22 -82 22c-27 1 -54 -5 -80 -16c-49 -21 -91 -56 -121 -99c-66 -96 -94 -226 -38 -333c26 -47 65 -84 118 -99c26 -8 55 -9 82 -2c29 6 56 21 80 38c6 5 13 1 17 -4
c31 -42 92 -44 139 -35c52 10 98 37 137 74c5 4 13 5 18 0c3 -4 5 -11 1 -16c-10 -15 -22 -30 -36 -43c-19 -18 -40 -33 -63 -45c-47 -26 -99 -40 -153 -45c-60 -5 -122 -2 -181 12c-53 13 -105 35 -146 71c-39 34 -66 81 -80 130c-16 57 -19 118 -10 176
c9 56 31 113 63 160c31 43 71 78 118 102c53 27 111 40 169 40zM492 529c16 0 16 -25 0 -25c-22 0 -38 -12 -52 -27c-18 -21 -31 -45 -40 -70c-9 -27 -15 -56 -15 -84c0 -13 2 -25 6 -38c3 -10 7 -18 14 -26c5 -4 9 -7 14 -10c4 -2 -2 0 1 -1c1 0 2 0 3 -1c1 0 7 -1 3 0
c11 -1 20 1 30 6c51 26 78 84 87 138c4 26 5 55 -5 80c-1 2 -4 8 -7 12c-2 3 2 -1 -1 2c-1 1 -1 2 -2 3c-3 2 -5 4 -7 6c-9 7 -18 10 -29 10c-16 0 -16 25 0 25c25 0 47 -13 61 -33c13 -18 17 -42 18 -64c1 -32 -5 -64 -16 -94c-10 -27 -24 -52 -44 -73
c-19 -21 -45 -40 -75 -43c-24 -3 -44 12 -58 31c-14 22 -18 50 -18 75c0 30 7 59 17 87s23 53 42 75s43 39 73 39zM683 298c2 7 9 11 16 9c6 -2 10 -9 8 -15c-3 -17 -7 -34 -10 -50l-15 15c-4 -1 2 1 3 2c1 0 3 1 5 2c4 3 8 5 13 8c8 6 16 12 24 19c40 37 66 92 71 146
c5 57 -10 115 -46 160l21 6c-1 -7 -2 -13 -4 -20c-12 -57 -24 -113 -36 -170c-9 -39 -17 -79 -26 -118c-1 -7 -9 -11 -15 -9c-7 2 -10 9 -9 15c2 7 3 14 4 20c13 57 25 113 37 170c8 39 17 79 25 118c2 9 15 13 21 6c22 -28 38 -59 46 -93c15 -60 8 -124 -20 -179
c-12 -24 -28 -47 -47 -66c-18 -16 -38 -32 -61 -41c-9 -4 -17 7 -15 15c3 17 7 34 10 50z" />
    <glyph glyph-name="ampersand" unicode="&#x26;" horiz-adv-x="886" 
d="M575 77c4 3 11 1 14 -3c2 -5 0 -11 -4 -14c-1 -1 -2 -1 -3 -2c-44 -30 -95 -51 -148 -61c-56 -10 -115 -11 -170 2c-52 13 -101 38 -141 73c-42 38 -70 89 -79 145c-5 29 -6 58 -1 87c4 28 14 54 28 78c29 51 74 90 123 122c-2 -5 -3 -9 -4 -14c-12 16 -23 32 -32 50
c-8 16 -14 34 -18 52c-7 39 -7 81 4 119c7 27 20 52 37 74c17 21 39 39 63 53c47 29 102 43 157 44c55 0 110 -11 158 -38c49 -27 87 -69 103 -123c16 -55 10 -114 -18 -164c-29 -51 -75 -90 -123 -122c0 5 1 10 2 16c18 -22 37 -44 55 -65c-5 -1 -10 -2 -15 -2
c14 24 25 46 32 73c5 19 11 39 16 58c2 6 9 10 15 6c19 -14 39 -27 58 -41c40 -28 79 -56 119 -84c3 -2 6 -7 4 -11c-6 -18 -13 -36 -20 -53c-17 -39 -39 -75 -61 -111c-1 4 -1 8 -2 12c26 -30 53 -59 81 -86c13 -12 26 -24 38 -35c4 -4 4 -11 0 -15
c-16 -15 -33 -30 -49 -46c-36 -33 -71 -67 -107 -100c-3 -4 -10 -4 -14 0l-3 3c-32 36 -65 72 -97 108c-9 9 5 23 14 14c1 -2 2 -3 3 -4c33 -35 65 -71 97 -107h-14c17 15 33 31 50 47c35 33 71 66 106 100v-15c-13 12 -25 24 -38 36c-29 27 -55 56 -81 86c-3 3 -4 8 -1 12
c22 35 44 71 60 110c7 16 13 33 19 49c2 -4 3 -8 5 -11c-20 13 -39 27 -59 41c-39 28 -79 56 -118 84c5 2 10 4 14 6c-5 -20 -11 -40 -16 -60c-8 -27 -20 -52 -34 -76c-3 -6 -11 -7 -16 -2c-19 21 -37 43 -55 64c-5 6 -4 12 2 16c47 32 94 71 120 123c25 49 26 107 5 158
c-20 49 -62 85 -110 105c-50 22 -107 28 -161 21c-52 -6 -104 -27 -144 -61c-20 -18 -36 -39 -48 -64c-11 -25 -17 -52 -17 -80c-1 -28 1 -57 11 -84c8 -25 24 -48 40 -70c4 -4 1 -11 -3 -13c-42 -28 -82 -62 -110 -105c-13 -21 -23 -43 -29 -67s-7 -48 -4 -73
c4 -55 27 -107 67 -147c37 -36 85 -62 135 -74c54 -13 111 -14 165 -4c53 10 103 30 147 60zM322 349c5 3 11 1 14 -4s1 -10 -4 -13c-19 -14 -41 -30 -51 -53c-3 -8 -5 -18 -2 -27s9 -16 16 -21c18 -12 39 -16 60 -17c12 0 24 0 36 3c13 4 25 9 36 15c-1 -5 -1 -10 -2 -15
c-36 38 -71 77 -105 116c-3 4 -4 10 0 14s11 5 14 0c34 -39 70 -78 105 -116c5 -5 4 -13 -2 -16c-3 -2 -6 -3 -8 -4c-14 -7 -28 -13 -42 -15s-28 -3 -42 -1c-25 2 -50 9 -69 26c-19 18 -23 45 -12 68c12 26 36 45 58 60zM406 687c13 0 13 -20 0 -20c-10 0 -18 -3 -25 -8
c-3 -2 -6 -5 -8 -7c-1 -3 1 2 0 0c0 -1 0 -1 1 1v-4c1 -19 15 -34 25 -48c-4 1 -9 2 -13 3c13 8 26 17 38 26c3 3 6 6 9 10c1 1 4 5 2 2l2 2c1 2 3 6 1 2v-1c0 2 0 4 -1 5c0 2 0 3 -1 5v0v1c-2 3 0 0 -1 1l-1 1c3 -3 -1 1 -2 1c-2 1 -3 2 -5 3c-7 4 -14 5 -21 5
c-13 0 -13 20 0 20c16 0 36 -5 46 -20c4 -6 6 -14 6 -22c0 -3 -1 -6 -3 -9c-4 -7 -10 -13 -16 -18c-13 -12 -28 -22 -43 -31c-5 -3 -11 -1 -14 4c-14 18 -30 38 -28 62c0 11 10 18 18 24c10 7 22 10 34 10z" />
    <glyph glyph-name="paragraph" unicode="&#xb6;" 
 />
    <glyph glyph-name="section" unicode="&#xa7;" 
 />
    <glyph glyph-name="copyright" unicode="&#xa9;" horiz-adv-x="961" 
d="M509 127c13 0 13 -20 0 -20h-8c-59 1 -118 13 -170 41c-23 13 -46 28 -64 48c-16 17 -30 36 -41 57c-24 46 -34 98 -36 149c-1 59 9 120 37 173c27 49 68 88 117 114c49 25 106 41 161 39c27 0 54 -3 80 -10c23 -7 46 -18 66 -32c24 -16 46 -36 66 -57
c9 -11 17 -22 26 -33c2 -4 1 -9 -2 -12c-8 -10 -17 -20 -25 -30c-32 -38 -63 -76 -95 -115c-3 -3 -11 -4 -14 0l-15 18c-9 12 -19 22 -30 31c-21 15 -50 26 -76 20c-26 -5 -46 -23 -57 -47s-11 -52 -3 -77c8 -23 25 -46 49 -54c9 -4 14 -5 23 -5c14 0 28 2 41 7
c13 4 23 10 32 20l6 6c1 1 3 4 1 0c1 2 2 3 2 4c7 11 13 22 19 33c3 5 11 7 15 2l30 -33c32 -35 63 -70 95 -104c3 -4 4 -8 1 -12c-6 -12 -12 -24 -20 -35c-15 -21 -32 -40 -52 -55c-47 -33 -102 -51 -159 -51c-13 0 -13 20 0 20c54 0 105 17 148 49c19 13 36 32 48 51
c7 10 12 20 18 31c1 -4 1 -8 2 -12c-10 10 -20 21 -30 32c-31 35 -63 70 -95 105c5 0 11 1 16 2c-4 -8 -8 -15 -12 -22s-8 -14 -13 -20c-9 -10 -19 -18 -31 -24c-13 -6 -27 -10 -41 -12c-22 -3 -45 -2 -64 10c-49 30 -67 97 -46 149c6 12 13 25 23 35s22 18 36 23
c26 10 54 6 79 -5c15 -7 27 -15 39 -25l12 -12c7 -10 15 -19 23 -28h-14c8 10 16 20 25 30c31 38 63 76 95 114c-1 -4 -1 -8 -2 -12l-9 12c-2 3 -3 5 -5 8c-1 0 -1 1 -2 1c-1 2 4 -4 0 0c-17 19 -35 37 -55 52c-17 13 -35 25 -55 33c-19 7 -39 12 -59 14
c-55 6 -110 -1 -161 -23c-50 -22 -95 -55 -124 -101c-32 -49 -45 -108 -45 -166c0 -51 8 -102 31 -148c10 -20 23 -39 39 -56c17 -19 39 -34 61 -47c51 -28 110 -38 168 -38zM480 -7c13 0 13 -20 0 -20c-95 0 -190 31 -266 89c-94 72 -157 179 -171 297
c-15 119 20 242 97 335c75 91 185 150 303 159c120 10 241 -30 330 -110c89 -79 143 -192 148 -311c4 -119 -40 -238 -123 -324s-198 -135 -318 -135c-13 0 -13 20 0 20c67 0 134 16 194 47c101 53 178 146 210 255c34 116 16 243 -49 345c-61 97 -162 166 -275 187
c-118 23 -241 -6 -336 -79c-92 -70 -153 -178 -163 -294c-11 -117 28 -237 108 -324c39 -42 85 -75 136 -99c55 -25 115 -38 175 -38zM480 822c13 1 13 -19 0 -20c-113 0 -222 -50 -296 -136c-77 -90 -109 -215 -84 -331c23 -114 98 -212 201 -266c107 -55 238 -58 346 -6
c104 50 183 145 210 257c29 116 2 242 -72 335c-36 45 -81 81 -132 107c-53 27 -113 40 -173 40c-13 1 -13 21 0 20c25 0 50 -2 74 -6c115 -21 219 -93 278 -195c62 -105 74 -237 30 -351c-41 -109 -128 -197 -238 -238c-114 -44 -246 -33 -351 30
c-101 60 -174 162 -195 278c-11 61 -8 124 8 183c16 57 44 110 82 155c77 91 192 144 312 144z" />
    </font>
</defs>
</svg>
